<svg version="1.1" id="Layer_1" xmlns="http://www.w3.org/2000/svg" xmlns:xlink="http://www.w3.org/1999/xlink" x="0px" y="0px"
	 width="100%" viewBox="0 0 512 512" enable-background="new 0 0 512 512" xml:space="preserve">
<path fill="#000000" opacity="1.000000" stroke="none" 
	d="
M290.000000,513.000000 
	C193.356796,513.000000 97.213585,513.000000 1.035192,513.000000 
	C1.035192,342.398438 1.035192,171.796860 1.035192,1.097646 
	C171.559891,1.097646 342.119843,1.097646 512.839905,1.097646 
	C512.839905,171.666550 512.839905,342.333252 512.839905,513.000000 
	C438.796844,513.000000 364.648407,513.000000 290.000000,513.000000 
M254.500000,78.000717 
	C212.670013,78.000771 170.839996,77.987862 129.010071,78.036064 
	C126.725784,78.038689 124.367508,78.275543 122.170021,78.870239 
	C105.787636,83.303680 97.315598,95.165749 91.914635,110.398819 
	C82.773056,136.182159 73.282753,161.845276 63.601429,187.431183 
	C61.478958,193.040451 58.674145,198.725723 54.873547,203.283646 
	C49.803173,209.364334 43.084690,214.043365 37.738701,219.928177 
	C29.946581,228.505676 25.147615,238.859436 25.103365,250.511978 
	C24.880592,309.173309 24.997589,367.835907 25.005587,426.498077 
	C25.006577,433.759613 27.248268,435.991821 34.529949,435.994507 
	C63.527718,436.005310 92.525490,436.006470 121.523262,435.993896 
	C129.472122,435.990479 130.989075,434.419800 130.995605,426.255524 
	C131.008133,410.590057 131.129303,394.922821 130.914932,379.260315 
	C130.857437,375.060333 132.245193,373.919586 136.337555,373.924774 
	C216.831253,374.026825 297.325134,374.030945 377.818787,373.917542 
	C382.115143,373.911469 383.123810,375.419006 383.076111,379.416382 
	C382.889252,395.079620 382.990509,410.746399 383.005310,426.411865 
	C383.012878,434.396545 384.618591,435.992157 392.663513,435.994995 
	C421.494629,436.005188 450.325775,436.003693 479.156891,435.995972 
	C486.761353,435.993927 488.994598,433.800690 488.995422,426.311646 
	C489.001831,366.816223 489.004242,307.320770 488.975281,247.825363 
	C488.974335,245.849335 488.771057,243.847168 488.416901,241.901810 
	C486.038177,228.834518 479.364349,218.283249 469.841461,209.163651 
	C466.078003,205.559601 462.066742,201.402328 460.264069,196.694473 
	C448.474792,165.905609 437.196381,134.920029 425.884003,103.950165 
	C420.024445,87.908501 403.623993,77.639427 388.487610,77.816315 
	C344.163757,78.334267 299.829926,78.000679 254.500000,78.000717 
z"/>
<path fill="#083863" opacity="1.000000" stroke="none" 
	d="
M255.000000,78.000717 
	C299.829926,78.000679 344.163757,78.334267 388.487610,77.816315 
	C403.623993,77.639427 420.024445,87.908501 425.884003,103.950165 
	C437.196381,134.920029 448.474792,165.905609 460.264069,196.694473 
	C462.066742,201.402328 466.078003,205.559601 469.841461,209.163651 
	C479.364349,218.283249 486.038177,228.834518 488.416901,241.901810 
	C488.771057,243.847168 488.974335,245.849335 488.975281,247.825363 
	C489.004242,307.320770 489.001831,366.816223 488.995422,426.311646 
	C488.994598,433.800690 486.761353,435.993927 479.156891,435.995972 
	C450.325775,436.003693 421.494629,436.005188 392.663513,435.994995 
	C384.618591,435.992157 383.012878,434.396545 383.005310,426.411865 
	C382.990509,410.746399 382.889252,395.079620 383.076111,379.416382 
	C383.123810,375.419006 382.115143,373.911469 377.818787,373.917542 
	C297.325134,374.030945 216.831253,374.026825 136.337555,373.924774 
	C132.245193,373.919586 130.857437,375.060333 130.914932,379.260315 
	C131.129303,394.922821 131.008133,410.590057 130.995605,426.255524 
	C130.989075,434.419800 129.472122,435.990479 121.523262,435.993896 
	C92.525490,436.006470 63.527718,436.005310 34.529949,435.994507 
	C27.248268,435.991821 25.006577,433.759613 25.005587,426.498077 
	C24.997589,367.835907 24.880592,309.173309 25.103365,250.511978 
	C25.147615,238.859436 29.946581,228.505676 37.738701,219.928177 
	C43.084690,214.043365 49.803173,209.364334 54.873547,203.283646 
	C58.674145,198.725723 61.478958,193.040451 63.601429,187.431183 
	C73.282753,161.845276 82.773056,136.182159 91.914635,110.398819 
	C97.315598,95.165749 105.787636,83.303680 122.170021,78.870239 
	C124.367508,78.275543 126.725784,78.038689 129.010071,78.036064 
	C170.839996,77.987862 212.670013,78.000771 255.000000,78.000717 
M271.500000,358.000122 
	C338.561005,358.000122 405.622009,358.000122 472.605286,358.000122 
	C472.809998,356.779938 472.961487,356.298096 472.961609,355.816193 
	C472.969635,320.830414 473.088165,285.843933 472.885437,250.859314 
	C472.827332,240.825958 468.757355,232.109192 461.852966,224.782181 
	C459.111206,221.872620 456.127808,219.154510 453.671631,216.022079 
	C451.158539,212.817093 448.240479,211.910690 444.230255,211.914261 
	C325.944183,212.019791 207.656525,212.270752 89.373581,211.650452 
	C74.894951,211.574539 64.226654,215.072510 54.564526,225.743774 
	C46.045834,235.152161 40.922947,245.132065 40.965446,257.866364 
	C41.071083,289.520050 40.996365,321.174347 41.010750,352.828400 
	C41.011478,354.433044 41.168697,356.037628 41.271866,358.000122 
	C117.953339,358.000122 194.226669,358.000122 271.500000,358.000122 
M420.443542,137.081406 
	C417.369171,128.809586 414.304993,120.533974 411.218109,112.266838 
	C406.281952,99.047211 398.983673,94.003510 384.750397,94.002678 
	C301.757507,93.997841 218.764618,93.997910 135.771729,94.002449 
	C121.205872,94.003250 114.023743,98.982536 108.984047,112.547325 
	C99.358154,138.456284 89.736053,164.366653 80.127571,190.282089 
	C79.504768,191.961868 79.011513,193.689697 78.346184,195.739685 
	C199.736267,195.739685 320.627167,195.739685 442.173004,195.739685 
	C434.925232,176.133026 427.839478,156.964676 420.443542,137.081406 
M41.016438,417.210510 
	C40.869774,420.850952 43.609093,419.966339 45.563332,419.970276 
	C67.358925,420.014130 89.154648,420.004883 110.950294,419.977112 
	C112.208923,419.975494 113.467194,419.690430 114.648369,419.546692 
	C114.648369,404.252014 114.648369,389.360748 114.648369,374.435333 
	C89.964005,374.435333 65.633240,374.435333 41.004200,374.435333 
	C41.004200,388.664948 41.004200,402.461670 41.016438,417.210510 
M403.692719,419.998718 
	C426.601990,419.998718 449.511261,419.998718 472.602448,419.998718 
	C472.602448,404.396179 472.602448,389.387726 472.602448,374.304932 
	C447.991577,374.304932 423.778839,374.304932 399.025360,374.304932 
	C399.025360,388.863831 398.958954,403.126373 399.184570,417.384277 
	C399.198639,418.273315 401.502899,419.126129 403.692719,419.998718 
z"/>
<path fill="#00EFD1" opacity="1.000000" stroke="none" 
	d="
M271.000000,358.000122 
	C194.226669,358.000122 117.953339,358.000122 41.271866,358.000122 
	C41.168697,356.037628 41.011478,354.433044 41.010750,352.828400 
	C40.996365,321.174347 41.071083,289.520050 40.965446,257.866364 
	C40.922947,245.132065 46.045834,235.152161 54.564526,225.743774 
	C64.226654,215.072510 74.894951,211.574539 89.373581,211.650452 
	C207.656525,212.270752 325.944183,212.019791 444.230255,211.914261 
	C448.240479,211.910690 451.158539,212.817093 453.671631,216.022079 
	C456.127808,219.154510 459.111206,221.872620 461.852966,224.782181 
	C468.757355,232.109192 472.827332,240.825958 472.885437,250.859314 
	C473.088165,285.843933 472.969635,320.830414 472.961609,355.816193 
	C472.961487,356.298096 472.809998,356.779938 472.605286,358.000122 
	C405.622009,358.000122 338.561005,358.000122 271.000000,358.000122 
M180.999969,273.536133 
	C181.000214,287.033905 180.969864,300.531738 181.013153,314.029388 
	C181.036072,321.173950 183.859756,323.984985 191.048904,323.988525 
	C235.374893,324.010254 279.700897,324.011169 324.026886,323.987335 
	C331.155029,323.983490 333.968262,321.132538 333.987213,313.944641 
	C334.027222,298.780579 334.005737,283.616364 333.997742,268.452209 
	C333.992950,259.323059 331.648621,257.002380 322.433105,257.001587 
	C280.440063,256.997925 238.447006,257.000000 196.453964,257.000000 
	C181.807785,257.000000 181.000000,257.812988 180.999969,273.536133 
M440.808105,300.065521 
	C445.973999,278.821686 434.258057,259.963470 413.439819,256.484039 
	C408.896515,255.724701 404.149689,255.946381 399.505920,256.069061 
	C385.171265,256.447723 372.450500,266.191925 368.213867,279.833954 
	C363.876373,293.800781 368.965759,308.905334 380.771606,317.529205 
	C388.611938,323.256409 397.498718,324.214081 406.841919,324.058044 
	C423.226898,323.784363 434.696808,316.035797 440.808105,300.065521 
M100.239059,256.427795 
	C82.398666,260.215210 71.273766,273.674683 71.706627,290.947784 
	C72.121773,307.513947 83.899414,320.970764 100.653542,323.556061 
	C105.058975,324.235870 109.630043,324.046295 114.118370,323.948700 
	C131.064972,323.580261 145.289474,310.560760 146.951630,294.040741 
	C148.729019,276.375397 137.612793,260.354797 120.489655,257.044769 
	C114.214149,255.831635 107.581589,256.465637 100.239059,256.427795 
z"/>
<path fill="#00ACEA" opacity="1.000000" stroke="none" 
	d="
M420.598633,137.438873 
	C427.839478,156.964676 434.925232,176.133026 442.173004,195.739685 
	C320.627167,195.739685 199.736267,195.739685 78.346184,195.739685 
	C79.011513,193.689697 79.504768,191.961868 80.127571,190.282089 
	C89.736053,164.366653 99.358154,138.456284 108.984047,112.547325 
	C114.023743,98.982536 121.205872,94.003250 135.771729,94.002449 
	C218.764618,93.997910 301.757507,93.997841 384.750397,94.002678 
	C398.983673,94.003510 406.281952,99.047211 411.218109,112.266838 
	C414.304993,120.533974 417.369171,128.809586 420.598633,137.438873 
z"/>
<path fill="#00ACEA" opacity="1.000000" stroke="none" 
	d="
M41.010319,416.734436 
	C41.004200,402.461670 41.004200,388.664948 41.004200,374.435333 
	C65.633240,374.435333 89.964005,374.435333 114.648369,374.435333 
	C114.648369,389.360748 114.648369,404.252014 114.648369,419.546692 
	C113.467194,419.690430 112.208923,419.975494 110.950294,419.977112 
	C89.154648,420.004883 67.358925,420.014130 45.563332,419.970276 
	C43.609093,419.966339 40.869774,420.850952 41.010319,416.734436 
z"/>
<path fill="#00ACEA" opacity="1.000000" stroke="none" 
	d="
M403.217194,419.997253 
	C401.502899,419.126129 399.198639,418.273315 399.184570,417.384277 
	C398.958954,403.126373 399.025360,388.863831 399.025360,374.304932 
	C423.778839,374.304932 447.991577,374.304932 472.602448,374.304932 
	C472.602448,389.387726 472.602448,404.396179 472.602448,419.998718 
	C449.511261,419.998718 426.601990,419.998718 403.217194,419.997253 
z"/>
<path fill="#083863" opacity="1.000000" stroke="none" 
	d="
M180.999969,273.044739 
	C181.000000,257.812988 181.807785,257.000000 196.453964,257.000000 
	C238.447006,257.000000 280.440063,256.997925 322.433105,257.001587 
	C331.648621,257.002380 333.992950,259.323059 333.997742,268.452209 
	C334.005737,283.616364 334.027222,298.780579 333.987213,313.944641 
	C333.968262,321.132538 331.155029,323.983490 324.026886,323.987335 
	C279.700897,324.011169 235.374893,324.010254 191.048904,323.988525 
	C183.859756,323.984985 181.036072,321.173950 181.013153,314.029388 
	C180.969864,300.531738 181.000214,287.033905 180.999969,273.044739 
M201.692795,307.998413 
	C240.043839,307.998413 278.394897,307.998413 316.602692,307.998413 
	C316.602692,295.838684 316.602692,284.605682 316.602692,273.293152 
	C276.667542,273.293152 237.129532,273.293152 197.025513,273.293152 
	C197.025513,284.178345 196.935883,294.783386 197.186676,305.380341 
	C197.207977,306.279633 199.503052,307.125092 201.692795,307.998413 
z"/>
<path fill="#093A64" opacity="1.000000" stroke="none" 
	d="
M440.670654,300.446625 
	C434.696808,316.035797 423.226898,323.784363 406.841919,324.058044 
	C397.498718,324.214081 388.611938,323.256409 380.771606,317.529205 
	C368.965759,308.905334 363.876373,293.800781 368.213867,279.833954 
	C372.450500,266.191925 385.171265,256.447723 399.505920,256.069061 
	C404.149689,255.946381 408.896515,255.724701 413.439819,256.484039 
	C434.258057,259.963470 445.973999,278.821686 440.670654,300.446625 
M390.106659,304.532410 
	C395.920441,308.980438 402.726074,308.132721 409.318939,307.918610 
	C417.856873,307.641266 424.967834,301.021301 426.010193,292.823456 
	C427.137909,283.954010 422.438049,275.648285 414.197968,273.199432 
	C410.471191,272.091919 406.339813,272.100616 402.386383,272.051270 
	C393.558411,271.941132 387.084595,276.080231 384.150360,283.338165 
	C381.172333,290.704376 382.993561,297.714020 390.106659,304.532410 
z"/>
<path fill="#093A64" opacity="1.000000" stroke="none" 
	d="
M100.675476,256.342407 
	C107.581589,256.465637 114.214149,255.831635 120.489655,257.044769 
	C137.612793,260.354797 148.729019,276.375397 146.951630,294.040741 
	C145.289474,310.560760 131.064972,323.580261 114.118370,323.948700 
	C109.630043,324.046295 105.058975,324.235870 100.653542,323.556061 
	C83.899414,320.970764 72.121773,307.513947 71.706627,290.947784 
	C71.273766,273.674683 82.398666,260.215210 100.675476,256.342407 
M88.265472,294.715637 
	C91.890808,304.174408 97.384087,307.959747 107.560471,307.998840 
	C109.721077,308.007172 111.885841,308.068420 114.041756,307.963257 
	C122.792564,307.536285 129.962570,300.964691 130.967484,292.515656 
	C132.035614,283.535126 126.947502,275.356384 118.337868,272.969940 
	C115.207825,272.102356 111.786087,272.056915 108.495293,272.039307 
	C94.239624,271.963135 86.985001,279.797852 88.265472,294.715637 
z"/>
<path fill="#00ACEA" opacity="1.000000" stroke="none" 
	d="
M201.217316,307.996979 
	C199.503052,307.125092 197.207977,306.279633 197.186676,305.380341 
	C196.935883,294.783386 197.025513,284.178345 197.025513,273.293152 
	C237.129532,273.293152 276.667542,273.293152 316.602692,273.293152 
	C316.602692,284.605682 316.602692,295.838684 316.602692,307.998413 
	C278.394897,307.998413 240.043839,307.998413 201.217316,307.996979 
z"/>
<path fill="#FCD941" opacity="1.000000" stroke="none" 
	d="
M389.821014,304.298492 
	C382.993561,297.714020 381.172333,290.704376 384.150360,283.338165 
	C387.084595,276.080231 393.558411,271.941132 402.386383,272.051270 
	C406.339813,272.100616 410.471191,272.091919 414.197968,273.199432 
	C422.438049,275.648285 427.137909,283.954010 426.010193,292.823456 
	C424.967834,301.021301 417.856873,307.641266 409.318939,307.918610 
	C402.726074,308.132721 395.920441,308.980438 389.821014,304.298492 
z"/>
<path fill="#FCD941" opacity="1.000000" stroke="none" 
	d="
M88.175491,294.302368 
	C86.985001,279.797852 94.239624,271.963135 108.495293,272.039307 
	C111.786087,272.056915 115.207825,272.102356 118.337868,272.969940 
	C126.947502,275.356384 132.035614,283.535126 130.967484,292.515656 
	C129.962570,300.964691 122.792564,307.536285 114.041756,307.963257 
	C111.885841,308.068420 109.721077,308.007172 107.560471,307.998840 
	C97.384087,307.959747 91.890808,304.174408 88.175491,294.302368 
z"/>
</svg>