<svg version="1.1" id="Layer_1" xmlns="http://www.w3.org/2000/svg" xmlns:xlink="http://www.w3.org/1999/xlink" x="0px" y="0px"
	 width="100%" viewBox="0 0 512 512" enable-background="new 0 0 512 512" xml:space="preserve">
<path fill="#000000" opacity="1.000000" stroke="none" 
	d="
M289.000000,513.000000 
	C192.690048,513.000000 96.880096,513.000000 1.035069,513.000000 
	C1.035069,342.398346 1.035069,171.796707 1.035069,1.097524 
	C171.559967,1.097524 342.120026,1.097524 512.840027,1.097524 
	C512.840027,171.666550 512.840027,342.333252 512.840027,513.000000 
	C438.463348,513.000000 363.981659,513.000000 289.000000,513.000000 
M439.045715,140.480621 
	C438.014374,137.290848 437.122528,134.047623 435.924713,130.921646 
	C432.726166,122.574417 429.396149,114.277580 426.000336,105.209160 
	C425.724304,104.628143 425.369385,104.071182 425.183777,103.462593 
	C420.575775,88.352066 404.863220,77.867889 389.747101,77.902405 
	C302.808655,78.100937 215.869171,77.875069 128.930969,78.120461 
	C114.320740,78.161690 104.054222,86.457802 96.254723,99.178764 
	C92.820679,108.751564 89.386635,118.324364 85.284409,128.263626 
	C79.244865,144.841827 73.205330,161.420044 67.007652,178.748337 
	C66.345940,180.218414 65.329559,181.630447 65.077927,183.167664 
	C62.818573,196.969788 52.737087,205.176834 43.498238,214.126434 
	C39.533630,217.966904 36.393669,222.658691 32.251038,227.284744 
	C30.167681,232.491592 26.811131,237.568848 26.265175,242.932205 
	C25.117380,254.207947 25.444986,265.633881 25.020491,277.925568 
	C25.069006,297.616394 25.117519,317.307190 25.020079,337.925537 
	C25.068930,357.282959 25.117781,376.640381 25.021515,396.925507 
	C25.014408,407.415955 24.978878,417.906464 25.013229,428.396790 
	C25.028423,433.036469 27.999245,435.984406 32.673710,435.987732 
	C62.979588,436.009399 93.285507,436.017883 123.591354,435.980347 
	C128.787903,435.973907 130.947815,433.953827 130.968201,428.956299 
	C131.013016,417.970490 130.888672,406.983978 130.975113,395.070312 
	C130.975113,388.139832 130.975113,381.209320 130.975113,374.301788 
	C215.309631,374.301788 299.001953,374.301788 383.166931,374.301788 
	C383.166931,382.065887 383.166931,389.531799 383.021759,397.925415 
	C383.014648,408.081696 382.970367,418.238098 383.015442,428.394165 
	C383.039673,433.854156 385.034882,435.971008 390.344879,435.978271 
	C420.813843,436.019958 451.282898,436.012695 481.751892,435.981567 
	C485.763519,435.977448 488.940643,432.896545 488.973145,428.970825 
	C489.019989,423.314545 488.888672,417.656769 488.976227,411.071960 
	C488.928375,402.380829 488.880524,393.689697 488.975464,384.071075 
	C488.927948,372.713776 488.880463,361.356445 488.975403,349.071442 
	C488.928192,333.046722 488.880981,317.021973 488.975342,300.069794 
	C488.984314,282.133057 489.073547,264.195648 488.917908,246.260361 
	C488.893860,243.488998 487.746277,240.727417 487.012573,237.167007 
	C486.800598,236.054718 486.709564,234.902573 486.357910,233.836349 
	C482.926331,223.430893 476.285736,215.256851 468.425293,207.879593 
	C463.986786,203.713882 460.249664,199.113434 458.839325,192.841217 
	C458.072876,189.432465 456.204407,186.271515 454.944183,182.245178 
	C452.635925,176.052307 450.354736,169.849167 448.012482,163.669189 
	C445.159698,156.142090 442.255493,148.634460 439.045715,140.480621 
z"/>
<path fill="#00BBE4" opacity="1.000000" stroke="none" 
	d="
M488.832947,349.999146 
	C488.880463,361.356445 488.927948,372.713776 488.448456,384.535217 
	C483.003418,384.999237 478.085358,384.999146 473.095947,384.541656 
	C473.024597,380.816467 473.024597,377.548676 473.024597,374.308350 
	C448.029541,374.308350 423.660187,374.308350 398.833069,374.308350 
	C398.833069,382.075165 398.833069,389.536682 398.377197,396.998596 
	C393.003204,396.998566 388.085083,396.998138 383.166931,396.997711 
	C383.166931,389.531799 383.166931,382.065887 383.166931,374.301788 
	C299.001953,374.301788 215.309631,374.301788 130.975113,374.301788 
	C130.975113,381.209320 130.975113,388.139832 130.448608,395.534607 
	C125.003601,395.998718 120.085121,395.998535 115.095764,395.534546 
	C115.024895,388.144501 115.024895,381.218262 115.024895,374.308289 
	C90.026833,374.308289 65.658829,374.308289 40.833366,374.308289 
	C40.833366,381.741760 40.833366,388.869995 40.377491,395.998718 
	C35.003288,395.998749 30.084961,395.998291 25.166634,395.997803 
	C25.117781,376.640381 25.068930,357.282959 25.548744,337.462219 
	C30.996264,336.998505 35.915115,336.998047 40.906940,337.461365 
	C40.979912,344.524384 40.979912,351.123657 40.979912,357.709503 
	C185.326309,357.709503 329.033051,357.709503 473.167053,357.709503 
	C473.167053,354.950165 473.167053,352.474487 473.622894,349.999207 
	C478.996796,349.999420 483.914886,349.999298 488.832947,349.999146 
z"/>
<path fill="#00D4DB" opacity="1.000000" stroke="none" 
	d="
M454.832977,182.998779 
	C456.204407,186.271515 458.072876,189.432465 458.839325,192.841217 
	C460.249664,199.113434 463.986786,203.713882 468.425293,207.879593 
	C476.285736,215.256851 482.926331,223.430893 486.357910,233.836349 
	C486.709564,234.902573 486.800598,236.054718 486.590118,237.572647 
	C480.738617,237.998276 475.309570,238.018265 469.561829,237.865204 
	C468.465881,235.931625 468.040649,233.874268 466.850037,232.462234 
	C461.862976,226.547760 456.837738,220.637436 451.401703,215.146072 
	C449.693634,213.420654 446.659180,212.136353 444.226898,212.128220 
	C393.267548,211.957565 342.307434,211.999329 291.347504,211.999329 
	C219.237518,211.999329 147.127518,212.018967 75.017647,211.934906 
	C71.789154,211.931137 69.518684,212.835419 67.226303,215.136093 
	C62.706203,219.672577 57.790123,223.814514 52.765053,227.840424 
	C45.954544,227.362061 39.416790,227.162888 32.879036,226.963715 
	C36.393669,222.658691 39.533630,217.966904 43.498238,214.126434 
	C52.737087,205.176834 62.818573,196.969788 65.077927,183.167664 
	C65.329559,181.630447 66.345940,180.218414 67.542496,178.373688 
	C73.995987,177.665146 79.914627,177.331268 85.793488,177.361145 
	C83.435211,183.653137 81.116714,189.581375 78.695496,195.772278 
	C199.869934,195.772278 320.309113,195.772278 441.048523,195.772278 
	C440.306122,192.698868 439.631470,189.905899 439.229614,186.836212 
	C441.831177,186.039734 444.163849,185.536942 446.487671,184.995880 
	C449.273407,184.347229 452.051544,183.665939 454.832977,182.998779 
z"/>
<path fill="#00E6D5" opacity="1.000000" stroke="none" 
	d="
M96.938576,98.852646 
	C104.054222,86.457802 114.320740,78.161690 128.930969,78.120461 
	C215.869171,77.875069 302.808655,78.100937 389.747101,77.902405 
	C404.863220,77.867889 420.575775,88.352066 425.183777,103.462593 
	C425.369385,104.071182 425.724304,104.628143 425.584473,105.593521 
	C419.764587,106.356438 414.360535,106.735001 408.637360,106.971756 
	C402.655060,97.121368 393.508850,94.044159 383.053406,94.035843 
	C301.110321,93.970665 219.167130,93.986504 137.223999,94.021103 
	C129.419479,94.024399 122.076027,95.698418 115.700760,100.871262 
	C112.923653,100.415993 110.481339,100.231987 108.044258,99.994400 
	C104.340454,99.633331 100.640289,99.235100 96.938576,98.852646 
z"/>
<path fill="#00B3E8" opacity="1.000000" stroke="none" 
	d="
M25.094074,396.461670 
	C30.084961,395.998291 35.003288,395.998749 40.450050,396.462524 
	C40.978481,404.518372 40.978481,412.110901 40.978481,419.689545 
	C65.973045,419.689545 90.341545,419.689545 115.166634,419.689545 
	C115.166634,411.587341 115.166634,403.792847 115.166634,395.998322 
	C120.085121,395.998535 125.003601,395.998718 130.377747,395.998352 
	C130.888672,406.983978 131.013016,417.970490 130.968201,428.956299 
	C130.947815,433.953827 128.787903,435.973907 123.591354,435.980347 
	C93.285507,436.017883 62.979588,436.009399 32.673710,435.987732 
	C27.999245,435.984406 25.028423,433.036469 25.013229,428.396790 
	C24.978878,417.906464 25.014408,407.415955 25.094074,396.461670 
z"/>
<path fill="#00B3E8" opacity="1.000000" stroke="none" 
	d="
M383.094360,397.461548 
	C388.085083,396.998138 393.003204,396.998566 398.449799,397.462402 
	C398.978241,405.185242 398.978241,412.444672 398.978241,419.707336 
	C423.985229,419.707336 448.365692,419.707336 473.166595,419.707336 
	C473.166595,416.944336 473.166595,414.471832 473.622498,411.999573 
	C478.996704,411.999756 483.915070,411.999695 488.833405,411.999634 
	C488.888672,417.656769 489.019989,423.314545 488.973145,428.970825 
	C488.940643,432.896545 485.763519,435.977448 481.751892,435.981567 
	C451.282898,436.012695 420.813843,436.019958 390.344879,435.978271 
	C385.034882,435.971008 383.039673,433.854156 383.015442,428.394165 
	C382.970367,418.238098 383.014648,408.081696 383.094360,397.461548 
z"/>
<path fill="#00CADF" opacity="1.000000" stroke="none" 
	d="
M469.880524,238.038254 
	C475.309570,238.018265 480.738617,237.998276 486.642975,237.969788 
	C487.746277,240.727417 488.893860,243.488998 488.917908,246.260361 
	C489.073547,264.195648 488.984314,282.133057 488.448883,300.534119 
	C483.003693,300.998230 478.084930,300.998016 473.095398,300.533997 
	C473.015991,285.948975 473.325226,271.817169 472.858276,257.711090 
	C472.640411,251.127853 470.919922,244.594315 469.880524,238.038254 
z"/>
<path fill="#00C5E1" opacity="1.000000" stroke="none" 
	d="
M40.833969,336.997620 
	C35.915115,336.998047 30.996264,336.998505 25.621723,336.998474 
	C25.117519,317.307190 25.069006,297.616394 25.549374,277.462341 
	C30.996506,276.998718 35.914757,276.998260 40.906258,277.461609 
	C40.930992,297.616119 40.882477,317.306885 40.833969,336.997620 
z"/>
<path fill="#00CDDE" opacity="1.000000" stroke="none" 
	d="
M40.833008,276.997833 
	C35.914757,276.998260 30.996506,276.998718 25.622623,276.998657 
	C25.444986,265.633881 25.117380,254.207947 26.265175,242.932205 
	C26.811131,237.568848 30.167681,232.491592 32.565041,227.124237 
	C39.416790,227.162888 45.954544,227.362061 52.633327,228.150696 
	C46.972702,234.870163 42.779861,241.913116 42.076153,250.431061 
	C41.346699,259.260620 41.222134,268.140167 40.833008,276.997833 
z"/>
<path fill="#00DCD8" opacity="1.000000" stroke="none" 
	d="
M85.833267,176.997391 
	C79.914627,177.331268 73.995987,177.665146 67.621567,177.998627 
	C73.205330,161.420044 79.244865,144.841827 85.782333,128.416565 
	C87.754440,129.698135 89.123642,131.588425 90.722977,131.808853 
	C95.070549,132.407990 99.603447,132.674561 103.065659,129.427429 
	C97.288055,145.542145 91.560661,161.269775 85.833267,176.997391 
z"/>
<path fill="#00C1E2" opacity="1.000000" stroke="none" 
	d="
M473.166199,300.997803 
	C478.084930,300.998016 483.003693,300.998230 488.378113,300.997864 
	C488.880981,317.021973 488.928192,333.046722 488.904175,349.535278 
	C483.914886,349.999298 478.996796,349.999420 473.551636,349.535370 
	C473.071777,333.046722 473.118988,317.022247 473.166199,300.997803 
z"/>
<path fill="#00DAD9" opacity="1.000000" stroke="none" 
	d="
M454.888580,182.621979 
	C452.051544,183.665939 449.273407,184.347229 446.487671,184.995880 
	C444.163849,185.536942 441.831177,186.039734 438.900391,186.660004 
	C437.100006,183.582626 435.859344,180.419952 434.711151,177.224030 
	C431.107635,167.193817 427.538940,157.151093 424.153137,146.790894 
	C426.528717,145.645660 428.695099,144.786636 430.890259,144.008865 
	C433.705933,143.011230 436.544708,142.078903 439.373535,141.118439 
	C442.255493,148.634460 445.159698,156.142090 448.012482,163.669189 
	C450.354736,169.849167 452.635925,176.052307 454.888580,182.621979 
z"/>
<path fill="#00E0D7" opacity="1.000000" stroke="none" 
	d="
M439.209625,140.799530 
	C436.544708,142.078903 433.705933,143.011230 430.890259,144.008865 
	C428.695099,144.786636 426.528717,145.645660 423.820343,146.608917 
	C418.512939,133.537338 413.734711,120.325455 408.956512,107.113556 
	C414.360535,106.735001 419.764587,106.356438 425.643494,105.969299 
	C429.396149,114.277580 432.726166,122.574417 435.924713,130.921646 
	C437.122528,134.047623 438.014374,137.290848 439.209625,140.799530 
z"/>
<path fill="#00E2D6" opacity="1.000000" stroke="none" 
	d="
M103.115875,129.040314 
	C99.603447,132.674561 95.070549,132.407990 90.722977,131.808853 
	C89.123642,131.588425 87.754440,129.698135 86.116432,128.233337 
	C89.386635,118.324364 92.820679,108.751564 96.596649,99.015701 
	C100.640289,99.235100 104.340454,99.633331 108.044258,99.994400 
	C110.481339,100.231987 112.923653,100.415993 115.564011,101.187622 
	C113.573494,105.663765 111.115540,109.454353 109.259468,113.519722 
	C106.951645,118.574562 105.141151,123.856468 103.115875,129.040314 
z"/>
<path fill="#00B6E6" opacity="1.000000" stroke="none" 
	d="
M488.904816,411.535797 
	C483.915070,411.999695 478.996704,411.999756 473.551086,411.535736 
	C473.071625,402.380798 473.119476,393.689911 473.167328,384.999054 
	C478.085358,384.999146 483.003418,384.999237 488.377075,384.998962 
	C488.880524,393.689697 488.928375,402.380829 488.904816,411.535797 
z"/>
<path fill="#000000" opacity="1.000000" stroke="none" 
	d="
M473.095398,300.533997 
	C473.118988,317.022247 473.071777,333.046722 473.095825,349.534973 
	C473.167053,352.474487 473.167053,354.950165 473.167053,357.709503 
	C329.033051,357.709503 185.326309,357.709503 40.979912,357.709503 
	C40.979912,351.123657 40.979912,344.524384 40.906937,337.461365 
	C40.882477,317.306885 40.930992,297.616119 40.906258,277.461609 
	C41.222134,268.140167 41.346699,259.260620 42.076153,250.431061 
	C42.779861,241.913116 46.972702,234.870163 52.906086,228.429871 
	C57.790123,223.814514 62.706203,219.672577 67.226303,215.136093 
	C69.518684,212.835419 71.789154,211.931137 75.017647,211.934906 
	C147.127518,212.018967 219.237518,211.999329 291.347504,211.999329 
	C342.307434,211.999329 393.267548,211.957565 444.226898,212.128220 
	C446.659180,212.136353 449.693634,213.420654 451.401703,215.146072 
	C456.837738,220.637436 461.862976,226.547760 466.850037,232.462234 
	C468.040649,233.874268 468.465881,235.931625 469.561829,237.865204 
	C470.919922,244.594315 472.640411,251.127853 472.858276,257.711090 
	C473.325226,271.817169 473.015991,285.948975 473.095398,300.533997 
M181.021439,303.924957 
	C181.014450,308.087616 180.962997,312.250824 181.011536,316.412842 
	C181.074539,321.815430 183.101944,323.977325 188.395844,323.980988 
	C234.518890,324.012878 280.641998,324.008881 326.765076,323.982452 
	C330.767731,323.980164 333.961029,320.886475 333.973541,316.961548 
	C334.001160,308.307190 333.888672,299.652405 333.975769,290.070343 
	C333.984009,281.752960 334.015076,273.435547 333.992950,265.118256 
	C333.976379,258.896667 332.034882,257.029388 325.653564,257.002441 
	C321.661255,256.985565 317.668823,256.999268 313.676453,256.999268 
	C272.421936,256.999237 231.167435,256.997162 189.912918,257.001190 
	C182.680634,257.001892 180.987869,258.707397 181.007553,266.036530 
	C181.020050,270.690674 181.111191,275.344604 181.021698,280.926147 
	C181.069870,288.283905 181.118042,295.641693 181.021439,303.924957 
M144.582962,304.919312 
	C147.723785,297.721008 148.877991,290.400360 147.065674,282.551758 
	C144.368347,270.870544 137.704803,262.131165 126.629372,258.320312 
	C119.871559,255.995102 112.093925,256.433197 104.752434,256.050110 
	C92.521469,255.411835 83.298820,261.061859 76.661057,270.918549 
	C64.132454,289.522827 72.868347,315.794342 94.270630,322.399658 
	C100.839386,324.426941 108.305893,323.921448 115.360840,323.916565 
	C128.714630,323.907288 138.097687,317.252686 144.582962,304.919312 
M384.808014,320.949249 
	C392.468750,325.038513 400.794342,323.792206 408.953339,324.023102 
	C416.595306,324.239380 423.097992,321.937042 429.399261,317.389099 
	C445.205872,305.980896 447.585541,281.509308 433.891663,266.384949 
	C422.363861,253.652969 406.914673,253.967026 392.567505,256.672668 
	C371.698517,260.608246 361.405640,282.145172 368.038879,301.618866 
	C370.892944,309.997772 376.603363,316.100159 384.808014,320.949249 
z"/>
<path fill="#000000" opacity="1.000000" stroke="none" 
	d="
M473.095947,384.541656 
	C473.119476,393.689911 473.071625,402.380798 473.095184,411.535492 
	C473.166595,414.471832 473.166595,416.944336 473.166595,419.707336 
	C448.365692,419.707336 423.985229,419.707336 398.978241,419.707336 
	C398.978241,412.444672 398.978241,405.185242 398.905640,397.462006 
	C398.833069,389.536682 398.833069,382.075165 398.833069,374.308350 
	C423.660187,374.308350 448.029541,374.308350 473.024597,374.308350 
	C473.024597,377.548676 473.024597,380.816467 473.095947,384.541656 
z"/>
<path fill="#000000" opacity="1.000000" stroke="none" 
	d="
M115.095764,395.534546 
	C115.166634,403.792847 115.166634,411.587341 115.166634,419.689545 
	C90.341545,419.689545 65.973045,419.689545 40.978481,419.689545 
	C40.978481,412.110901 40.978481,404.518372 40.905922,396.462036 
	C40.833366,388.869995 40.833366,381.741760 40.833366,374.308289 
	C65.658829,374.308289 90.026833,374.308289 115.024895,374.308289 
	C115.024895,381.218262 115.024895,388.144501 115.095764,395.534546 
z"/>
<path fill="#000000" opacity="1.000000" stroke="none" 
	d="
M103.065659,129.427429 
	C105.141151,123.856468 106.951645,118.574562 109.259468,113.519722 
	C111.115540,109.454353 113.573494,105.663765 115.901138,101.434891 
	C122.076027,95.698418 129.419479,94.024399 137.223999,94.021103 
	C219.167130,93.986504 301.110321,93.970665 383.053406,94.035843 
	C393.508850,94.044159 402.655060,97.121368 408.637360,106.971756 
	C413.734711,120.325455 418.512939,133.537338 423.623962,146.931229 
	C427.538940,157.151093 431.107635,167.193817 434.711151,177.224030 
	C435.859344,180.419952 437.100006,183.582626 438.627563,186.936737 
	C439.631470,189.905899 440.306122,192.698868 441.048523,195.772278 
	C320.309113,195.772278 199.869934,195.772278 78.695496,195.772278 
	C81.116714,189.581375 83.435211,183.653137 85.793488,177.361145 
	C91.560661,161.269775 97.288055,145.542145 103.065659,129.427429 
z"/>
<path fill="#00C7E0" opacity="1.000000" stroke="none" 
	d="
M144.331055,305.215454 
	C138.097687,317.252686 128.714630,323.907288 115.360840,323.916565 
	C108.305893,323.921448 100.839386,324.426941 94.270630,322.399658 
	C72.868347,315.794342 64.132454,289.522827 76.661057,270.918549 
	C83.298820,261.061859 92.521469,255.411835 104.752434,256.050110 
	C112.093925,256.433197 119.871559,255.995102 126.629372,258.320312 
	C137.704803,262.131165 144.368347,270.870544 147.065674,282.551758 
	C148.877991,290.400360 147.723785,297.721008 144.331055,305.215454 
M113.062843,272.053406 
	C109.816101,272.366272 106.547272,272.533356 103.327034,273.021179 
	C95.696472,274.177094 89.019592,280.449036 88.053368,287.475830 
	C87.144012,294.089111 90.106491,301.605316 97.930824,305.420319 
	C105.913040,309.312317 114.125420,308.935120 121.869347,304.943329 
	C129.830429,300.839600 132.809052,290.660583 128.890533,282.693481 
	C125.830818,276.472504 120.665817,273.223907 113.062843,272.053406 
z"/>
<path fill="#00C7E0" opacity="1.000000" stroke="none" 
	d="
M384.467041,320.771851 
	C376.603363,316.100159 370.892944,309.997772 368.038879,301.618866 
	C361.405640,282.145172 371.698517,260.608246 392.567505,256.672668 
	C406.914673,253.967026 422.363861,253.652969 433.891663,266.384949 
	C447.585541,281.509308 445.205872,305.980896 429.399261,317.389099 
	C423.097992,321.937042 416.595306,324.239380 408.953339,324.023102 
	C400.794342,323.792206 392.468750,325.038513 384.467041,320.771851 
M385.035858,282.815308 
	C380.412079,294.412506 386.212189,305.087769 398.537994,306.904114 
	C403.098206,307.576111 407.966919,307.657257 412.472961,306.817230 
	C418.222748,305.745331 422.627533,301.685608 424.673248,296.354828 
	C427.044952,290.174744 426.905609,283.462189 421.232513,278.922577 
	C417.590485,276.008179 413.074463,273.419342 408.579346,272.502350 
	C400.052917,270.762970 390.232971,273.043610 385.035858,282.815308 
z"/>
<path fill="#00CADF" opacity="1.000000" stroke="none" 
	d="
M181.167068,279.998627 
	C181.111191,275.344604 181.020050,270.690674 181.007553,266.036530 
	C180.987869,258.707397 182.680634,257.001892 189.912918,257.001190 
	C231.167435,256.997162 272.421936,256.999237 313.676453,256.999268 
	C317.668823,256.999268 321.661255,256.985565 325.653564,257.002441 
	C332.034882,257.029388 333.976379,258.896667 333.992950,265.118256 
	C334.015076,273.435547 333.984009,281.752960 333.447937,290.534607 
	C327.668945,290.998749 322.417786,290.998566 317.095428,290.535065 
	C317.024231,284.475433 317.024231,278.879089 317.024231,273.284485 
	C276.670227,273.284485 236.948776,273.284485 197.152664,273.284485 
	C197.037201,275.709381 196.935074,277.854248 196.377090,279.999390 
	C191.003189,279.999329 186.085129,279.998962 181.167068,279.998627 
z"/>
<path fill="#00C3E1" opacity="1.000000" stroke="none" 
	d="
M317.166626,290.998383 
	C322.417786,290.998566 327.668945,290.998749 333.376709,290.998352 
	C333.888672,299.652405 334.001160,308.307190 333.973541,316.961548 
	C333.961029,320.886475 330.767731,323.980164 326.765076,323.982452 
	C280.641998,324.008881 234.518890,324.012878 188.395844,323.980988 
	C183.101944,323.977325 181.074539,321.815430 181.011536,316.412842 
	C180.962997,312.250824 181.014450,308.087616 181.549500,303.462402 
	C186.996323,302.999603 191.915054,302.999359 196.906342,303.439392 
	C196.978882,305.146027 196.978882,306.412384 196.978882,307.699799 
	C237.231903,307.699799 276.963806,307.699799 317.166626,307.699799 
	C317.166626,301.936676 317.166626,296.467529 317.166626,290.998383 
z"/>
<path fill="#00C7E0" opacity="1.000000" stroke="none" 
	d="
M196.833801,302.999115 
	C191.915054,302.999359 186.996323,302.999603 181.621887,302.999664 
	C181.118042,295.641693 181.069870,288.283905 181.094391,280.462402 
	C186.085129,279.998962 191.003189,279.999329 196.449768,280.463135 
	C196.930115,288.284058 196.881958,295.641602 196.833801,302.999115 
z"/>
<path fill="#000000" opacity="1.000000" stroke="none" 
	d="
M113.471024,272.217590 
	C120.665817,273.223907 125.830818,276.472504 128.890533,282.693481 
	C132.809052,290.660583 129.830429,300.839600 121.869347,304.943329 
	C114.125420,308.935120 105.913040,309.312317 97.930824,305.420319 
	C90.106491,301.605316 87.144012,294.089111 88.053368,287.475830 
	C89.019592,280.449036 95.696472,274.177094 103.327034,273.021179 
	C106.547272,272.533356 109.816101,272.366272 113.471024,272.217590 
z"/>
<path fill="#000000" opacity="1.000000" stroke="none" 
	d="
M385.207458,282.466949 
	C390.232971,273.043610 400.052917,270.762970 408.579346,272.502350 
	C413.074463,273.419342 417.590485,276.008179 421.232513,278.922577 
	C426.905609,283.462189 427.044952,290.174744 424.673248,296.354828 
	C422.627533,301.685608 418.222748,305.745331 412.472961,306.817230 
	C407.966919,307.657257 403.098206,307.576111 398.537994,306.904114 
	C386.212189,305.087769 380.412079,294.412506 385.207458,282.466949 
z"/>
<path fill="#000000" opacity="1.000000" stroke="none" 
	d="
M196.906342,303.439392 
	C196.881958,295.641602 196.930115,288.284058 196.905609,280.462830 
	C196.935074,277.854248 197.037201,275.709381 197.152664,273.284485 
	C236.948776,273.284485 276.670227,273.284485 317.024231,273.284485 
	C317.024231,278.879089 317.024231,284.475433 317.095428,290.535065 
	C317.166626,296.467529 317.166626,301.936676 317.166626,307.699799 
	C276.963806,307.699799 237.231903,307.699799 196.978882,307.699799 
	C196.978882,306.412384 196.978882,305.146027 196.906342,303.439392 
z"/>
</svg>