<svg version="1.1" id="Layer_1" xmlns="http://www.w3.org/2000/svg" xmlns:xlink="http://www.w3.org/1999/xlink" x="0px" y="0px"
	 width="100%" viewBox="0 0 258 732" enable-background="new 0 0 258 732" xml:space="preserve">
<path fill="#000000" opacity="1.000000" stroke="none" 
	d="
M259.000000,255.000000 
	C259.000000,258.361298 259.000000,261.722565 258.654602,265.878052 
	C251.406708,265.109772 244.526169,263.440155 237.594803,262.018280 
	C231.906143,260.851349 226.178024,259.303375 220.430115,259.124878 
	C210.280853,258.809631 200.329041,267.622925 198.016998,278.354797 
	C192.927948,301.976898 187.925064,325.618103 183.014038,349.277863 
	C178.853836,369.320251 174.982300,389.422791 170.780075,409.456146 
	C166.648041,429.154999 162.122223,448.771484 158.021118,468.476532 
	C153.192169,491.678711 148.731125,514.957275 143.930710,538.165588 
	C139.396240,560.088074 135.182419,582.100159 129.776062,603.811035 
	C125.929611,619.257568 138.404495,630.923096 150.812057,633.120117 
	C164.280121,635.504883 177.607391,638.684875 190.995987,641.518311 
	C205.965790,644.686340 220.937515,647.845337 235.904510,651.026611 
	C243.607361,652.663879 251.301773,654.340942 259.000000,656.000000 
	C259.000000,681.658691 259.000000,707.317444 259.000000,732.982056 
	C173.034653,732.988037 87.069290,732.988037 1.051966,732.988037 
	C1.051966,489.110352 1.051966,245.220688 1.051966,1.165514 
	C86.999763,1.165514 172.999847,1.165514 259.000000,1.165514 
	C259.000000,28.746744 259.000000,56.404713 258.589600,84.508476 
	C256.588165,84.623787 254.997345,84.292442 253.406113,83.962952 
	C239.644516,81.113319 225.961304,77.769135 212.096344,75.571602 
	C201.052017,73.821121 190.700180,68.606476 179.011124,69.809921 
	C172.891266,70.439995 168.568924,72.225334 168.036865,78.363167 
	C167.569427,83.755508 168.103012,89.455238 169.367386,94.738495 
	C174.546677,116.380455 180.200531,137.908524 185.629913,159.491028 
	C190.478622,178.765182 195.594910,197.980667 199.969543,217.362762 
	C203.518646,233.087387 212.406204,243.774628 227.729431,248.267441 
	C237.933716,251.259384 248.561661,252.806320 259.000000,255.000000 
z"/>
<path fill="#D7E3EF" opacity="1.000000" stroke="none" 
	d="
M259.000000,655.531372 
	C251.301773,654.340942 243.607361,652.663879 235.904510,651.026611 
	C220.937515,647.845337 205.965790,644.686340 190.995987,641.518311 
	C177.607391,638.684875 164.280121,635.504883 150.812057,633.120117 
	C138.404495,630.923096 125.929611,619.257568 129.776062,603.811035 
	C135.182419,582.100159 139.396240,560.088074 143.930710,538.165588 
	C148.731125,514.957275 153.192169,491.678711 158.021118,468.476532 
	C162.122223,448.771484 166.648041,429.154999 170.780075,409.456146 
	C174.982300,389.422791 178.853836,369.320251 183.014038,349.277863 
	C187.925064,325.618103 192.927948,301.976898 198.016998,278.354797 
	C200.329041,267.622925 210.280853,258.809631 220.430115,259.124878 
	C226.178024,259.303375 231.906143,260.851349 237.594803,262.018280 
	C244.526169,263.440155 251.406708,265.109772 258.654602,266.336121 
	C259.000000,280.354218 259.000000,294.708466 258.591125,309.519104 
	C252.834351,308.839172 247.468033,307.782684 242.142166,306.551178 
	C227.585892,303.185303 215.268982,310.560394 212.048630,325.226532 
	C208.284317,342.369843 205.124588,359.644897 201.527069,376.826019 
	C195.176117,407.157104 188.630737,437.447449 182.293289,467.781311 
	C179.637527,480.492920 186.966003,492.003906 199.585739,495.042206 
	C208.282349,497.135986 217.042740,498.984802 225.816360,500.733673 
	C236.855301,502.934174 247.936844,504.920990 259.000000,507.000000 
	C259.000000,556.354248 259.000000,605.708435 259.000000,655.531372 
z"/>
<path fill="#F3FBFB" opacity="1.000000" stroke="none" 
	d="
M259.000000,506.532410 
	C247.936844,504.920990 236.855301,502.934174 225.816360,500.733673 
	C217.042740,498.984802 208.282349,497.135986 199.585739,495.042206 
	C186.966003,492.003906 179.637527,480.492920 182.293289,467.781311 
	C188.630737,437.447449 195.176117,407.157104 201.527069,376.826019 
	C205.124588,359.644897 208.284317,342.369843 212.048630,325.226532 
	C215.268982,310.560394 227.585892,303.185303 242.142166,306.551178 
	C247.468033,307.782684 252.834351,308.839172 258.591125,309.987732 
	C259.000000,315.688049 259.000000,321.376068 258.707306,327.319916 
	C250.582993,325.625397 242.831924,323.150604 234.888138,321.930695 
	C230.452988,321.249542 231.271591,326.209442 230.418045,328.970673 
	C229.597137,331.626251 230.570557,333.492798 233.509064,334.085846 
	C238.550507,335.103302 243.577057,336.194305 248.614807,337.230469 
	C256.285797,338.808258 256.287567,338.799591 259.000000,332.000000 
	C259.000000,347.020905 259.000000,362.041779 258.596161,377.559814 
	C247.611053,375.840759 237.018311,373.677216 226.455353,371.376892 
	C223.214462,370.671112 221.360535,371.468567 220.772568,374.952179 
	C220.136642,378.720123 219.413513,382.498077 218.353806,386.163361 
	C217.121460,390.425659 218.605545,392.514160 222.855194,393.025330 
	C224.006073,393.163818 225.130264,393.512543 226.273026,393.731873 
	C237.181229,395.825287 248.090820,397.911621 259.000000,400.000000 
	C259.000000,405.688049 259.000000,411.376068 258.646423,417.662842 
	C257.641418,420.927368 256.638947,423.574921 256.498871,426.267334 
	C256.436554,427.464935 258.112823,428.752991 259.000000,430.000000 
	C259.000000,432.370575 259.000000,434.741119 258.598450,437.708984 
	C254.471130,437.574799 250.738602,436.875946 247.021805,436.101624 
	C244.052673,435.483032 242.274399,436.430359 241.683533,439.567993 
	C240.890228,443.780670 239.914368,447.958923 239.020691,452.152740 
	C238.317825,455.451141 239.788940,457.040283 242.997299,457.643921 
	C248.352448,458.651428 253.667862,459.870178 259.000000,461.000000 
	C259.000000,463.041656 259.000000,465.083344 258.616180,467.787292 
	C252.694061,467.344055 247.159210,466.220764 241.615906,465.140900 
	C239.032547,464.637604 236.534317,464.379700 235.803284,467.896576 
	C234.855759,472.454987 233.633224,476.973297 233.023254,481.574371 
	C232.843643,482.929108 234.109665,485.600739 235.101318,485.807556 
	C243.014847,487.457764 251.021729,488.660278 259.000000,490.000000 
	C259.000000,495.354919 259.000000,500.709869 259.000000,506.532410 
M244.883942,405.576691 
	C236.914780,403.878113 228.914795,402.309235 220.989273,400.426880 
	C216.950211,399.467621 215.068909,400.751373 214.463730,404.795837 
	C213.923218,408.408234 213.059937,411.981873 212.167694,415.529510 
	C211.239838,419.218689 212.454147,421.167603 216.272064,421.875488 
	C222.971283,423.117615 229.615433,424.653473 236.296295,425.998413 
	C249.582489,428.673096 249.586334,428.654083 252.379044,415.661591 
	C254.169571,407.331543 254.169571,407.331543 244.883942,405.576691 
M231.748611,364.767395 
	C236.465378,365.769958 241.185349,366.757782 245.897797,367.780212 
	C249.018021,368.457184 251.065247,367.605835 251.713913,364.179382 
	C252.518234,359.930695 253.441193,355.702271 254.415436,351.488800 
	C255.099426,348.530579 253.770660,347.099823 251.043793,346.517120 
	C244.698837,345.161255 238.357544,343.788361 232.013947,342.426117 
	C229.255981,341.833862 227.479858,342.775085 226.895020,345.660797 
	C226.267593,348.756561 225.584427,351.841034 224.941666,354.933746 
	C223.306458,362.801758 223.310074,362.802521 231.748611,364.767395 
M225.521378,453.922516 
	C228.460144,454.208862 232.085220,456.296936 233.283508,451.496857 
	C234.408905,446.988770 235.516281,442.426422 235.947296,437.823853 
	C236.083572,436.368744 234.296387,433.700745 232.907867,433.313171 
	C226.684357,431.576050 220.286270,430.465393 213.953064,429.119781 
	C210.967697,428.485535 209.144989,429.555328 208.541443,432.635315 
	C207.743118,436.709351 206.964981,440.791290 206.003723,444.828278 
	C205.143875,448.439362 206.676102,450.066071 210.090256,450.702454 
	C214.986771,451.615082 219.848633,452.713440 225.521378,453.922516 
M218.628036,482.747040 
	C226.459656,484.146820 226.458435,484.146576 228.059982,476.428894 
	C228.667435,473.501648 229.192688,470.553589 229.916870,467.655365 
	C230.735870,464.377563 229.560425,462.588257 226.276535,461.926910 
	C220.252075,460.713623 214.231644,459.471863 208.239273,458.111053 
	C205.012589,457.378265 203.122650,458.332184 202.483627,461.689850 
	C201.708237,465.764008 200.830795,469.819550 199.944489,473.871552 
	C199.163269,477.443024 200.764847,479.092957 204.178635,479.713867 
	C208.750000,480.545410 213.279007,481.609772 218.628036,482.747040 
z"/>
<path fill="#4A5068" opacity="1.000000" stroke="none" 
	d="
M259.000000,254.533142 
	C248.561661,252.806320 237.933716,251.259384 227.729431,248.267441 
	C212.406204,243.774628 203.518646,233.087387 199.969543,217.362762 
	C195.594910,197.980667 190.478622,178.765182 185.629913,159.491028 
	C180.200531,137.908524 174.546677,116.380455 169.367386,94.738495 
	C168.103012,89.455238 167.569427,83.755508 168.036865,78.363167 
	C168.568924,72.225334 172.891266,70.439995 179.011124,69.809921 
	C190.700180,68.606476 201.052017,73.821121 212.096344,75.571602 
	C225.961304,77.769135 239.644516,81.113319 253.406113,83.962952 
	C254.997345,84.292442 256.588165,84.623787 258.589600,84.977135 
	C259.000000,89.689255 259.000000,94.378510 258.574890,99.536064 
	C252.615112,99.005653 247.068695,98.067719 241.548264,96.995804 
	C229.356155,94.628448 217.134567,92.386200 205.010880,89.704605 
	C199.002899,88.375725 198.331131,88.622719 199.745758,94.695152 
	C205.277176,118.439156 210.878128,142.166962 216.454590,165.900467 
	C221.496613,187.359390 226.599548,208.804382 231.510910,230.293167 
	C232.146835,233.075485 233.591949,234.075806 236.095764,234.544235 
	C243.740814,235.974487 251.366669,237.507172 259.000000,239.000000 
	C259.000000,244.022095 259.000000,249.044189 259.000000,254.533142 
z"/>
<path fill="#5C6375" opacity="1.000000" stroke="none" 
	d="
M259.000000,238.531342 
	C251.366669,237.507172 243.740814,235.974487 236.095764,234.544235 
	C233.591949,234.075806 232.146835,233.075485 231.510910,230.293167 
	C226.599548,208.804382 221.496613,187.359390 216.454590,165.900467 
	C210.878128,142.166962 205.277176,118.439156 199.745758,94.695152 
	C198.331131,88.622719 199.002899,88.375725 205.010880,89.704605 
	C217.134567,92.386200 229.356155,94.628448 241.548264,96.995804 
	C247.068695,98.067719 252.615112,99.005653 258.574890,100.002182 
	C259.000000,146.020889 259.000000,192.041794 259.000000,238.531342 
z"/>
<path fill="#4D536A" opacity="1.000000" stroke="none" 
	d="
M259.000000,399.531433 
	C248.090820,397.911621 237.181229,395.825287 226.273026,393.731873 
	C225.130264,393.512543 224.006073,393.163818 222.855194,393.025330 
	C218.605545,392.514160 217.121460,390.425659 218.353806,386.163361 
	C219.413513,382.498077 220.136642,378.720123 220.772568,374.952179 
	C221.360535,371.468567 223.214462,370.671112 226.455353,371.376892 
	C237.018311,373.677216 247.611053,375.840759 258.596161,378.028503 
	C259.000000,385.020966 259.000000,392.041901 259.000000,399.531433 
z"/>
<path fill="#4C5269" opacity="1.000000" stroke="none" 
	d="
M259.000000,489.531433 
	C251.021729,488.660278 243.014847,487.457764 235.101318,485.807556 
	C234.109665,485.600739 232.843643,482.929108 233.023254,481.574371 
	C233.633224,476.973297 234.855759,472.454987 235.803284,467.896576 
	C236.534317,464.379700 239.032547,464.637604 241.615906,465.140900 
	C247.159210,466.220764 252.694061,467.344055 258.616180,468.224792 
	C259.000000,475.020966 259.000000,482.041901 259.000000,489.531433 
z"/>
<path fill="#4E546B" opacity="1.000000" stroke="none" 
	d="
M259.000000,460.531372 
	C253.667862,459.870178 248.352448,458.651428 242.997299,457.643921 
	C239.788940,457.040283 238.317825,455.451141 239.020691,452.152740 
	C239.914368,447.958923 240.890228,443.780670 241.683533,439.567993 
	C242.274399,436.430359 244.052673,435.483032 247.021805,436.101624 
	C250.738602,436.875946 254.471130,437.574799 258.598450,438.153137 
	C259.000000,445.354248 259.000000,452.708496 259.000000,460.531372 
z"/>
<path fill="#50576D" opacity="1.000000" stroke="none" 
	d="
M259.000000,331.600006 
	C256.287567,338.799591 256.285797,338.808258 248.614807,337.230469 
	C243.577057,336.194305 238.550507,335.103302 233.509064,334.085846 
	C230.570557,333.492798 229.597137,331.626251 230.418045,328.970673 
	C231.271591,326.209442 230.452988,321.249542 234.888138,321.930695 
	C242.831924,323.150604 250.582993,325.625397 258.707306,327.787842 
	C259.000000,329.066681 259.000000,330.133331 259.000000,331.600006 
z"/>
<path fill="#5B6275" opacity="1.000000" stroke="none" 
	d="
M259.000000,429.539368 
	C258.112823,428.752991 256.436554,427.464935 256.498871,426.267334 
	C256.638947,423.574921 257.641418,420.927368 258.646423,418.130798 
	C259.000000,421.692902 259.000000,425.385834 259.000000,429.539368 
z"/>
<path fill="#4E546B" opacity="1.000000" stroke="none" 
	d="
M245.286102,405.663940 
	C254.169571,407.331543 254.169571,407.331543 252.379044,415.661591 
	C249.586334,428.654083 249.582489,428.673096 236.296295,425.998413 
	C229.615433,424.653473 222.971283,423.117615 216.272064,421.875488 
	C212.454147,421.167603 211.239838,419.218689 212.167694,415.529510 
	C213.059937,411.981873 213.923218,408.408234 214.463730,404.795837 
	C215.068909,400.751373 216.950211,399.467621 220.989273,400.426880 
	C228.914795,402.309235 236.914780,403.878113 245.286102,405.663940 
z"/>
<path fill="#4F566C" opacity="1.000000" stroke="none" 
	d="
M231.340347,364.696716 
	C223.310074,362.802521 223.306458,362.801758 224.941666,354.933746 
	C225.584427,351.841034 226.267593,348.756561 226.895020,345.660797 
	C227.479858,342.775085 229.255981,341.833862 232.013947,342.426117 
	C238.357544,343.788361 244.698837,345.161255 251.043793,346.517120 
	C253.770660,347.099823 255.099426,348.530579 254.415436,351.488800 
	C253.441193,355.702271 252.518234,359.930695 251.713913,364.179382 
	C251.065247,367.605835 249.018021,368.457184 245.897797,367.780212 
	C241.185349,366.757782 236.465378,365.769958 231.340347,364.696716 
z"/>
<path fill="#4F556B" opacity="1.000000" stroke="none" 
	d="
M225.123337,453.827515 
	C219.848633,452.713440 214.986771,451.615082 210.090256,450.702454 
	C206.676102,450.066071 205.143875,448.439362 206.003723,444.828278 
	C206.964981,440.791290 207.743118,436.709351 208.541443,432.635315 
	C209.144989,429.555328 210.967697,428.485535 213.953064,429.119781 
	C220.286270,430.465393 226.684357,431.576050 232.907867,433.313171 
	C234.296387,433.700745 236.083572,436.368744 235.947296,437.823853 
	C235.516281,442.426422 234.408905,446.988770 233.283508,451.496857 
	C232.085220,456.296936 228.460144,454.208862 225.123337,453.827515 
z"/>
<path fill="#4E546B" opacity="1.000000" stroke="none" 
	d="
M218.227112,482.660614 
	C213.279007,481.609772 208.750000,480.545410 204.178635,479.713867 
	C200.764847,479.092957 199.163269,477.443024 199.944489,473.871552 
	C200.830795,469.819550 201.708237,465.764008 202.483627,461.689850 
	C203.122650,458.332184 205.012589,457.378265 208.239273,458.111053 
	C214.231644,459.471863 220.252075,460.713623 226.276535,461.926910 
	C229.560425,462.588257 230.735870,464.377563 229.916870,467.655365 
	C229.192688,470.553589 228.667435,473.501648 228.059982,476.428894 
	C226.458435,484.146576 226.459656,484.146820 218.227112,482.660614 
z"/>
</svg>