<svg version="1.1" id="Layer_1" xmlns="http://www.w3.org/2000/svg" xmlns:xlink="http://www.w3.org/1999/xlink" x="0px" y="0px"
	 width="100%" viewBox="0 0 143 137" enable-background="new 0 0 143 137" xml:space="preserve">
<path fill="#010101" opacity="1.000000" stroke="none" 
	d="
M87.000000,138.000000 
	C59.024570,138.000000 31.549061,137.972672 4.073845,138.049530 
	C1.761099,138.056000 0.915895,137.766388 0.922598,135.078873 
	C1.031823,91.284973 1.029646,47.490650 0.922656,3.696740 
	C0.916560,1.201672 1.584709,0.941691 3.798622,0.945209 
	C49.590893,1.017968 95.383423,1.039321 141.175430,0.908102 
	C144.107132,0.899701 144.028702,2.085979 144.026993,4.170352 
	C143.991257,47.797977 143.970535,91.425713 144.073044,135.053131 
	C144.079208,137.676300 143.327667,138.069839 140.951752,138.056091 
	C123.134987,137.953018 105.317360,138.000000 87.000000,138.000000 
z"/>
<path fill="#01B5CD" opacity="1.000000" stroke="none" 
	d="
M79.550049,95.503128 
	C80.918266,97.193016 82.057495,98.619629 83.513489,100.442902 
	C87.946823,94.568199 92.349396,89.016449 96.417076,83.229309 
	C98.566772,80.170921 99.939041,80.041046 102.279297,83.071053 
	C106.778023,88.895668 106.922035,88.784279 111.463959,82.647209 
	C112.256538,81.576271 112.912331,80.360161 113.865829,79.459328 
	C120.652809,73.047134 121.813469,65.026962 121.086182,56.218494 
	C120.849182,53.348011 120.037003,52.566593 117.302124,52.607506 
	C108.304497,52.742119 99.300888,52.534374 90.305389,52.727955 
	C86.347954,52.813118 84.484116,51.751671 87.290794,48.141163 
	C91.492462,42.736137 91.141785,37.782955 87.169624,32.508808 
	C84.880173,29.468918 85.566345,27.782923 89.773270,27.853481 
	C99.769974,28.021149 109.771996,28.049820 119.769005,27.917593 
	C122.917946,27.875940 124.177010,28.693197 124.164085,32.094051 
	C124.052666,61.423569 124.063248,90.753799 124.152298,120.083473 
	C124.161667,123.169296 123.109505,124.093575 120.091957,124.075508 
	C102.093353,123.967773 84.093735,124.036743 66.094597,123.992294 
	C64.766296,123.989014 62.595707,124.631058 62.713863,122.311829 
	C62.807247,120.478828 64.748192,121.006180 65.977592,121.000610 
	C75.141266,120.959106 84.305206,120.978065 94.773613,120.978065 
	C88.402946,112.414925 82.550011,104.547691 76.328339,96.184822 
	C72.942253,100.570076 69.824959,104.634300 66.673157,108.671585 
	C65.796631,109.794380 64.939217,111.874557 63.300816,110.768982 
	C61.535492,109.577728 63.319180,108.110214 64.124588,107.008507 
	C67.074074,102.973984 70.255806,99.103447 73.087471,94.990364 
	C75.485596,91.506996 77.367767,92.062355 79.550049,95.503128 
z"/>
<path fill="#02AFC6" opacity="1.000000" stroke="none" 
	d="
M74.892967,44.859062 
	C69.576584,50.610413 62.089512,54.814610 59.704624,61.559090 
	C57.397964,68.082314 59.034256,76.011894 59.000946,83.324036 
	C58.951691,94.137054 58.971943,104.950386 58.934662,115.763481 
	C58.911194,122.569763 55.305180,125.324341 49.086731,123.102188 
	C47.691364,122.603554 46.744106,122.720787 45.421364,123.179169 
	C39.664379,125.174232 35.912041,122.693626 35.744808,116.517570 
	C35.519711,108.204445 35.639557,99.880585 35.699379,91.561966 
	C35.718002,88.971916 35.960533,86.803658 32.202560,86.487381 
	C29.152899,86.230728 27.967636,83.627281 27.973764,80.624435 
	C27.989721,72.804733 27.835468,64.980736 28.050060,57.166721 
	C28.200331,51.694862 31.678892,48.343086 37.126980,47.754581 
	C37.292210,47.736732 37.463013,47.693863 37.623245,47.717255 
	C50.605724,49.612694 61.407440,46.303520 69.359726,35.162632 
	C71.116219,32.701843 74.316513,32.535618 76.875244,34.901131 
	C79.429886,37.262863 79.257111,39.837021 77.186172,42.416794 
	C76.563660,43.192249 75.827713,43.876640 74.892967,44.859062 
z"/>
<path fill="#03ACC2" opacity="1.000000" stroke="none" 
	d="
M55.507683,35.354652 
	C55.420105,40.163181 53.468624,43.284302 48.990063,44.454319 
	C45.754108,45.299709 43.031967,44.174484 41.036812,41.719387 
	C38.803616,38.971382 38.051250,35.808334 39.928307,32.479847 
	C41.714573,29.312353 44.379124,27.619337 48.099869,28.031160 
	C52.264843,28.492155 54.559658,31.002247 55.507683,35.354652 
z"/>
<path fill="#010304" opacity="1.000000" stroke="none" 
	d="
M93.764587,114.233658 
	C91.142189,110.209274 85.960724,107.081604 86.405464,103.058136 
	C86.834167,99.179787 91.107941,95.712524 93.735680,92.096085 
	C95.488403,89.683876 97.316872,87.326698 99.514107,84.410477 
	C106.607399,93.990829 113.688385,103.108345 120.236969,112.593445 
	C123.361763,117.119499 120.840393,120.968475 115.390556,120.981483 
	C112.729958,120.987831 110.017326,120.647133 107.419144,121.049896 
	C101.317566,121.995735 96.777817,120.160896 93.764587,114.233658 
z"/>
<path fill="#020506" opacity="1.000000" stroke="none" 
	d="
M110.958122,31.012581 
	C120.987564,31.167166 120.987556,31.167166 120.987541,40.674099 
	C120.987526,49.716442 120.987534,49.716450 111.845177,49.716465 
	C104.877625,49.716473 97.910072,49.716465 89.987740,49.716465 
	C93.786118,43.586693 96.220726,37.647202 89.675095,31.920202 
	C89.948303,31.617634 90.221504,31.315063 90.494705,31.012495 
	C97.151756,31.012495 103.808800,31.012495 110.958122,31.012581 
z"/>
<path fill="#030506" opacity="1.000000" stroke="none" 
	d="
M120.986053,78.858780 
	C120.987419,88.296021 120.987419,97.320862 120.987419,106.345695 
	C120.650002,106.455399 120.312576,106.565094 119.975159,106.674797 
	C116.559990,102.110291 113.150459,97.541542 109.724457,92.985184 
	C109.105255,92.161682 108.608131,91.468544 109.430748,90.394539 
	C112.752640,86.057526 115.865120,81.552620 119.331833,77.337463 
	C120.874435,75.461823 120.866730,77.390022 120.986053,78.858780 
z"/>
<path fill="#060C0D" opacity="1.000000" stroke="none" 
	d="
M74.331459,41.009533 
	C70.340317,45.078819 66.879814,49.204185 62.811859,52.602394 
	C57.191925,57.297066 55.185017,62.881500 55.594387,70.134682 
	C56.112659,79.317390 55.719463,79.342529 46.542564,79.363541 
	C45.044586,79.366974 43.540421,79.237930 42.049881,79.335182 
	C39.642502,79.492256 38.873589,78.393646 38.921539,76.083099 
	C39.028587,70.924988 38.962440,65.762901 38.933933,60.602615 
	C38.925846,59.138939 39.060253,57.165718 36.972786,57.368488 
	C35.229153,57.537853 35.763527,59.471855 35.750961,60.692131 
	C35.687538,66.850731 35.746487,73.010529 35.694614,79.169342 
	C35.679424,80.973038 35.730526,83.305717 33.206688,83.190681 
	C31.112520,83.095230 31.083612,81.007881 31.086254,79.284470 
	C31.096970,72.292938 30.971905,65.298615 31.132420,58.310730 
	C31.259499,52.778412 33.248333,51.280640 38.911224,50.874035 
	C42.509533,50.615669 46.078083,51.066261 49.620209,51.146255 
	C56.763603,51.307587 61.586075,48.013390 65.856140,42.981953 
	C67.360214,41.209686 69.086426,39.624073 70.734726,37.976772 
	C71.705482,37.006607 72.869835,36.048817 74.241043,36.860405 
	C75.935173,37.863113 75.476479,39.351013 74.331459,41.009533 
z"/>
<path fill="#060D0E" opacity="1.000000" stroke="none" 
	d="
M48.946274,103.007507 
	C48.946117,99.353096 49.012203,96.192703 48.919399,93.036972 
	C48.868843,91.317848 49.631378,88.502289 47.369675,88.405762 
	C44.699387,88.291801 45.810627,91.189346 45.782883,92.754242 
	C45.650311,100.232452 45.727730,107.714294 45.719048,115.194832 
	C45.716087,117.743820 45.797668,120.720184 42.312233,120.708885 
	C38.846432,120.697655 38.928677,117.784378 38.936226,115.192894 
	C38.963833,105.717613 39.030777,96.241035 38.896988,86.767570 
	C38.856926,83.930885 39.446327,82.678162 42.673607,82.554443 
	C55.727745,82.054016 55.723610,81.936485 55.723087,94.940872 
	C55.722809,101.922714 55.714863,108.904556 55.723110,115.886383 
	C55.726116,118.428101 55.232979,120.830750 52.099419,120.698952 
	C49.311443,120.581696 48.897598,118.344734 48.932007,115.970802 
	C48.992229,111.815826 48.947201,107.659332 48.946274,103.007507 
z"/>
<path fill="#040B0C" opacity="1.000000" stroke="none" 
	d="
M43.441078,39.798893 
	C41.427635,36.690506 41.508549,34.106777 44.359898,32.148170 
	C46.715752,30.529924 49.144348,30.868841 51.070751,32.915550 
	C53.080132,35.050423 52.841370,37.549591 51.083149,39.655437 
	C48.913422,42.254154 46.309921,42.246140 43.441078,39.798893 
z"/>
<path fill="#04A2B7" opacity="1.000000" stroke="none" 
	d="
M48.319431,55.422066 
	C49.067020,57.186966 49.367702,58.716850 47.531151,59.438927 
	C46.594734,59.807095 45.938568,58.996307 45.904503,58.130604 
	C45.847004,56.669445 45.009285,54.467918 48.319431,55.422066 
z"/>
<path fill="#04A0B5" opacity="1.000000" stroke="none" 
	d="
M48.725258,64.256271 
	C48.986118,66.161591 48.971691,67.874153 46.827011,67.494499 
	C45.473186,67.254852 45.630020,65.653343 45.862679,64.592110 
	C46.252094,62.815887 47.262352,62.541180 48.725258,64.256271 
z"/>
<path fill="#05A0B4" opacity="1.000000" stroke="none" 
	d="
M47.657799,71.188904 
	C49.188625,72.461754 49.212845,73.629059 47.862789,74.619270 
	C47.262566,75.059509 46.496037,74.818787 46.204559,74.144012 
	C45.646198,72.851402 45.384964,71.545700 47.657799,71.188904 
z"/>
</svg>