<svg version="1.1" id="Layer_1" xmlns="http://www.w3.org/2000/svg" xmlns:xlink="http://www.w3.org/1999/xlink" x="0px" y="0px"
	 width="100%" viewBox="0 0 512 512" enable-background="new 0 0 512 512" xml:space="preserve">
<path fill="#00EFD1" opacity="1.000000" stroke="none" 
	d="
M1.220091,351.383636 
	C1.000000,316.312439 1.000000,281.624878 1.000000,246.468658 
	C1.735892,229.084991 12.212710,217.962479 24.010733,207.751007 
	C27.274141,204.926437 30.305458,201.893463 33.446766,198.959869 
	C35.276939,197.250732 37.094196,195.509216 40.358017,195.971039 
	C43.274868,195.666229 45.772106,195.701675 48.267109,195.701645 
	C123.461746,195.700531 198.656372,195.698471 273.851013,195.702820 
	C276.512390,195.702988 279.176514,195.665970 282.306366,196.106445 
	C290.243225,196.459656 297.693054,196.759308 305.632568,196.149475 
	C309.258545,195.753281 312.409363,195.694504 315.566711,195.695435 
	C346.117645,195.704468 376.668549,195.698425 407.219482,195.704330 
	C410.040833,195.704880 412.867035,195.631790 416.153900,196.096420 
	C423.296173,196.191422 429.984131,197.224640 437.078369,195.532990 
	C438.201752,195.549454 438.831635,195.654556 439.921265,195.860596 
	C453.819672,195.782150 467.251434,195.217728 481.089111,196.283722 
	C485.985107,196.823074 488.258881,200.465897 490.810242,203.322495 
	C496.305023,209.474655 502.400391,215.128159 506.950989,222.103058 
	C510.779266,227.970840 512.247681,234.496201 512.778076,241.686523 
	C513.000000,279.020905 513.000000,316.041779 513.000000,353.531342 
	C511.815277,362.037781 509.508759,369.316589 502.905975,374.983215 
	C495.636444,381.222015 487.612518,385.059540 478.079224,385.174866 
	C458.750458,385.408600 439.418457,385.231415 420.087799,385.257874 
	C416.755127,385.262451 413.420624,385.224976 409.634766,385.687408 
	C406.210663,386.417175 403.203735,386.293274 400.209656,386.293640 
	C304.944183,386.305511 209.678726,386.306580 114.413269,386.290710 
	C111.421112,386.290192 108.412453,386.444061 105.005775,385.636841 
	C100.967987,383.376434 97.032211,383.216156 92.992119,383.224731 
	C74.835327,383.263275 56.675808,383.454346 38.522148,383.162811 
	C24.930235,382.944550 13.737977,377.793976 5.595529,366.423462 
	C2.351251,361.893005 2.216751,356.818329 1.220091,351.383636 
z"/>
<path fill="#FFFFFF" opacity="1.000000" stroke="none" 
	d="
M103.674095,384.142883 
	C205.703918,383.960754 307.372742,383.979004 409.508575,383.988312 
	C412.395050,385.222778 412.119232,387.559143 412.160736,389.669830 
	C412.311340,397.327850 412.207489,404.988037 412.226410,412.647369 
	C412.277679,433.409088 423.383423,447.050903 444.003754,449.270355 
	C456.993622,450.668488 470.312042,451.006470 483.329407,448.728699 
	C495.090179,446.670746 503.488190,439.731659 508.403625,428.759308 
	C509.279205,426.804840 509.736755,424.560577 512.595398,423.916473 
	C513.000000,452.481903 512.954285,480.964020 513.071228,509.445435 
	C513.082825,512.269470 512.698303,513.094971 509.558624,513.093018 
	C341.165588,512.987915 172.772491,512.985596 4.379501,513.105164 
	C1.063124,513.107544 0.936583,512.036682 0.944949,509.383698 
	C1.033720,481.235107 1.000000,453.086182 1.000000,424.468658 
	C3.673482,423.660889 4.318126,425.726898 5.087346,427.537415 
	C11.588201,442.838989 23.640253,449.702637 39.747925,449.686707 
	C51.042408,449.675537 62.403206,450.852142 73.637161,448.775543 
	C90.267807,445.701416 101.527100,432.323944 101.748497,415.436279 
	C101.855484,407.276154 101.705162,399.113739 101.816757,390.953674 
	C101.847870,388.678589 101.403648,386.223602 103.674095,384.142883 
z"/>
<path fill="#FFFFFF" opacity="1.000000" stroke="none" 
	d="
M39.370354,196.887161 
	C28.884354,207.182281 16.668713,215.243011 8.904729,227.641052 
	C5.425053,233.197632 2.829444,239.158646 1.353022,245.840454 
	C1.000000,165.701874 1.021589,85.403725 0.920605,5.105738 
	C0.916591,1.913668 1.249331,0.890533 4.890934,0.893196 
	C172.983795,1.016105 341.076752,1.017550 509.169617,0.887367 
	C512.935425,0.884450 513.072754,2.099840 513.069275,5.166287 
	C512.981445,83.798347 513.000000,162.430527 513.000000,241.531342 
	C509.871552,233.165985 506.970154,224.182159 500.515350,217.055222 
	C494.851288,210.801437 488.955658,204.757446 483.067139,198.295166 
	C480.486267,196.880203 479.349304,194.791855 478.416260,192.355240 
	C469.785736,169.816269 461.685852,147.080322 453.163757,124.501419 
	C448.520538,112.199379 444.169159,99.787384 439.438141,87.519867 
	C433.697632,72.634514 421.558685,64.282715 405.546539,64.273674 
	C308.779602,64.219017 212.012665,64.217209 115.245773,64.275452 
	C99.640938,64.284843 87.056778,73.459198 81.624397,87.985611 
	C68.740028,122.438919 56.220039,157.027527 43.166481,191.417618 
	C42.409611,193.411621 41.967953,195.641983 39.370354,196.887161 
z"/>
<path fill="#D4E1F4" opacity="1.000000" stroke="none" 
	d="
M103.961777,383.533875 
	C104.023308,393.427917 104.003586,402.913330 104.001289,412.398712 
	C103.995949,434.435455 92.812378,448.545044 71.030998,451.506592 
	C58.413338,453.222168 45.368137,453.028046 32.687496,451.483765 
	C16.709946,449.538025 6.304978,439.965332 1.241190,424.257812 
	C1.000000,399.979095 1.000000,375.958221 1.000000,351.468658 
	C3.442697,355.825104 4.499132,361.252350 7.852986,365.707794 
	C15.777806,376.235596 26.480087,380.854370 39.370499,380.893494 
	C59.158661,380.953583 78.947289,380.876495 98.735237,380.965363 
	C100.591377,380.973694 103.333794,379.681030 103.961777,383.533875 
z"/>
<path fill="#D4E1F4" opacity="1.000000" stroke="none" 
	d="
M513.000000,423.531342 
	C509.976776,430.993622 507.056915,437.893494 500.793274,442.986389 
	C494.744659,447.904419 488.014038,451.403473 480.494141,451.660828 
	C466.721100,452.132141 452.839600,453.272675 439.130676,450.905060 
	C422.363831,448.009277 410.044098,432.989166 410.004974,415.913330 
	C409.981323,405.581726 409.994537,395.250031 409.983398,384.448883 
	C411.463531,382.337769 413.421600,383.117706 415.144897,383.111786 
	C433.803345,383.047607 452.480591,382.552094 471.115814,383.213654 
	C490.868134,383.914917 506.789642,374.618652 512.687866,354.185608 
	C513.000000,377.020905 513.000000,400.041779 513.000000,423.531342 
z"/>
<path fill="#D4E1F4" opacity="1.000000" stroke="none" 
	d="
M39.233383,197.379883 
	C45.168114,180.010803 51.314842,162.960571 57.582417,145.954880 
	C64.828735,126.293587 72.315361,106.719948 79.444206,87.016548 
	C84.818253,72.163200 98.702461,62.005924 114.448997,62.004608 
	C211.553375,61.996490 308.657776,61.999035 405.762146,62.001881 
	C422.423889,62.002369 435.688904,70.788887 441.581543,86.444771 
	C453.005066,116.795464 464.122253,147.261429 475.382812,177.673538 
	C477.807739,184.222763 480.302338,190.746201 482.868408,197.625519 
	C468.938904,197.963806 454.905823,197.958069 440.400665,197.919556 
	C437.142822,195.166321 437.352020,191.444916 436.969421,188.074280 
	C433.048615,153.532822 403.911346,125.426033 369.009613,122.017502 
	C335.714844,118.765900 306.704529,137.177460 293.330353,163.556168 
	C288.685028,172.718369 286.316742,182.555618 285.208282,192.722763 
	C285.081818,193.882812 285.023773,195.054291 284.190430,196.418594 
	C283.825348,196.944077 283.657196,197.138535 283.208801,197.597839 
	C251.435425,197.898819 219.942276,197.954788 188.449142,197.966492 
	C140.790817,197.984207 93.132500,197.974152 45.474182,197.960419 
	C43.482365,197.959839 41.490597,197.802673 39.233383,197.379883 
z"/>
<path fill="#D3E1F4" opacity="1.000000" stroke="none" 
	d="
M54.067036,302.000000 
	C54.067215,291.506439 54.203804,281.510010 53.994499,271.520844 
	C53.919971,267.964172 54.715271,266.567230 58.630505,266.592621 
	C84.279549,266.758972 109.930511,266.738617 135.579987,266.609863 
	C139.183456,266.591797 140.532639,267.495514 140.489517,271.333221 
	C140.302383,287.987030 140.340088,304.644714 140.468414,321.299622 
	C140.494293,324.657379 139.599075,325.953613 136.002823,325.935425 
	C110.020241,325.803741 84.036537,325.826111 58.053616,325.917267 
	C55.077625,325.927704 53.908676,325.122528 54.007263,321.985474 
	C54.211208,315.496094 54.067661,308.995789 54.067036,302.000000 
z"/>
<path fill="#D3E1F4" opacity="1.000000" stroke="none" 
	d="
M407.000000,325.866394 
	C397.006134,325.865875 387.509125,325.725647 378.019958,325.936676 
	C374.444519,326.016205 373.503662,324.705170 373.530365,321.321167 
	C373.661804,304.666290 373.695343,288.008606 373.511566,271.354736 
	C373.469543,267.546600 374.765839,266.589691 378.398468,266.608429 
	C404.047913,266.740479 429.698547,266.724426 455.348267,266.621277 
	C458.639343,266.608032 460.048981,267.322662 460.010040,270.998932 
	C459.831818,287.819519 459.838593,304.644043 460.007507,321.464813 
	C460.043091,325.007782 458.921997,325.971558 455.468384,325.936798 
	C439.480316,325.775879 423.489685,325.866150 407.000000,325.866394 
z"/>
<path fill="#D3E1F4" opacity="1.000000" stroke="none" 
	d="
M417.204773,197.578888 
	C380.262726,197.890259 343.614655,197.920517 306.501831,197.910950 
	C305.844604,197.680878 305.652161,197.490601 305.203186,196.985535 
	C302.400024,190.730301 304.831573,185.088028 306.670288,179.766144 
	C315.204102,155.066391 334.955780,140.863266 360.324860,139.976990 
	C390.029419,138.939285 415.819489,162.098373 418.953156,191.582947 
	C419.110901,193.066940 419.214294,194.579819 418.220703,196.319992 
	C417.848572,196.883240 417.673676,197.090515 417.204773,197.578888 
z"/>
<path fill="#02ADEA" opacity="1.000000" stroke="none" 
	d="
M417.522339,197.198013 
	C415.169006,170.361572 399.581512,150.370193 375.930969,144.127213 
	C341.090637,134.930496 307.385406,159.962387 305.877411,196.528778 
	C298.559113,198.120773 291.270416,197.265808 283.589783,197.199066 
	C282.524323,158.807541 313.814148,123.799927 352.003448,119.957283 
	C399.533966,115.174698 438.444519,149.289246 439.913696,197.452866 
	C439.503113,197.900711 439.077667,197.914627 438.332123,197.919708 
	C431.332794,196.941452 424.609161,197.836929 417.522339,197.198013 
z"/>
<path fill="#00ADEA" opacity="1.000000" stroke="none" 
	d="
M232.000000,325.019531 
	C222.342056,325.018311 213.183853,325.058075 204.026230,325.003601 
	C195.793274,324.954559 190.641403,320.784821 190.461670,314.157837 
	C190.269257,307.064606 195.626816,302.117645 204.074295,302.089905 
	C231.880875,301.998566 259.687927,302.051910 287.494781,302.050842 
	C294.987640,302.050568 302.481537,301.979889 309.972992,302.083221 
	C314.833679,302.150238 319.272705,303.425598 321.908875,307.988251 
	C326.413666,315.785217 321.349243,324.548523 311.921783,324.930481 
	C304.440857,325.233582 296.938599,325.016479 289.445801,325.018127 
	C270.463867,325.022247 251.481934,325.019501 232.000000,325.019531 
z"/>
<path fill="#00ADEA" opacity="1.000000" stroke="none" 
	d="
M250.000000,290.008728 
	C234.020187,290.006287 218.539444,290.104675 203.060883,289.963867 
	C193.661880,289.878387 188.124283,282.306213 191.459106,274.274628 
	C193.759705,268.733856 198.615845,267.142639 204.078384,267.084930 
	C213.897827,266.981201 223.719147,267.050934 233.539673,267.050781 
	C258.673584,267.050385 283.807495,267.032562 308.941376,267.063263 
	C316.602539,267.072601 321.271332,269.876343 322.870605,275.231995 
	C325.254700,283.215881 319.988220,289.871216 310.920929,289.967133 
	C297.939301,290.104462 284.955139,290.006744 271.972076,290.008514 
	C264.814728,290.009491 257.657349,290.008728 250.000000,290.008728 
z"/>
<path fill="#26B6EB" opacity="1.000000" stroke="none" 
	d="
M283.092651,197.182312 
	C290.414490,196.967148 297.653564,196.971054 305.348145,196.966644 
	C305.803711,196.958359 305.954132,197.406799 305.995575,197.638977 
	C298.647034,197.894836 291.257050,197.918518 283.397827,197.902451 
	C282.928558,197.862686 283.009857,197.401398 283.092651,197.182312 
z"/>
<path fill="#2EB8EC" opacity="1.000000" stroke="none" 
	d="
M417.054626,197.183212 
	C423.848907,197.349335 430.602753,196.455002 437.659393,197.698471 
	C431.292297,197.917923 424.572540,197.925003 417.381775,197.896057 
	C416.910767,197.860016 416.981049,197.402603 417.054626,197.183212 
z"/>
</svg>