<svg version="1.1" id="Layer_1" xmlns="http://www.w3.org/2000/svg" xmlns:xlink="http://www.w3.org/1999/xlink" x="0px" y="0px"
	 width="100%" viewBox="0 0 512 512" enable-background="new 0 0 512 512" xml:space="preserve">
<path fill="#00B0FF" opacity="1.000000" stroke="none" 
	d="
M512.773621,234.691040 
	C513.000000,249.354233 513.000000,263.708466 513.000000,278.531342 
	C511.862396,287.522919 512.054016,296.139801 510.420166,304.662628 
	C501.824646,349.501160 482.987640,389.376068 453.266449,424.056946 
	C436.137360,444.044464 416.636414,461.335114 394.268585,475.292725 
	C391.854584,476.799072 389.615051,479.383209 385.891571,477.450989 
	C384.500916,475.345490 384.464874,473.331848 384.465637,471.339813 
	C384.472534,452.718231 384.298096,434.096313 384.590759,415.049469 
	C384.927521,411.867096 386.882446,410.301453 388.843079,408.729645 
	C394.675293,404.054199 400.318634,399.176666 405.220642,393.497559 
	C406.196991,392.366364 407.205383,391.266541 408.074829,390.047028 
	C415.453461,379.697845 411.166840,368.995209 398.605072,366.434174 
	C396.994110,366.105774 395.267761,366.203918 393.610168,364.739807 
	C392.342834,362.373169 392.401306,360.187225 392.400360,358.027679 
	C392.372467,294.725220 392.372711,231.422745 392.418335,168.120300 
	C392.420197,165.535706 391.912201,162.694962 394.879028,160.663361 
	C397.580566,161.421860 397.902802,163.555786 398.475433,165.400513 
	C400.510193,171.955597 401.537170,178.658554 401.529327,185.555237 
	C401.482574,226.672775 401.504517,267.790405 401.508575,308.908020 
	C401.508820,311.237793 401.408478,313.574402 401.672363,315.894226 
	C402.478363,322.979797 407.265137,327.894226 413.789795,328.382202 
	C420.863312,328.911163 426.842865,324.625641 428.689270,317.709076 
	C429.339294,315.274261 429.487579,312.787720 429.488220,310.283356 
	C429.498230,269.665161 429.728027,229.045090 429.396698,188.429520 
	C429.213470,165.964783 423.502563,144.972290 409.851349,126.628380 
	C408.754852,125.154999 407.759521,123.616150 407.337708,121.303062 
	C407.585907,100.976173 407.340240,81.114792 407.426788,61.254169 
	C407.438293,58.608154 407.306091,55.955688 407.785889,52.899731 
	C409.499390,48.876717 411.651306,50.815151 413.484741,52.090450 
	C419.095459,55.993271 424.239105,60.512558 429.260040,65.111015 
	C453.929993,87.705162 474.192078,113.681541 488.846313,143.867050 
	C500.119690,167.088425 507.783386,191.468292 511.672699,216.978836 
	C512.544556,222.697433 512.628723,228.561111 512.773621,234.691040 
z"/>
<path fill="#FFFFFF" opacity="1.000000" stroke="none" 
	d="
M1.393225,235.029724 
	C1.000000,158.405045 1.034289,81.810020 0.895047,5.215313 
	C0.888341,1.526464 1.757603,0.903042 5.277071,0.908585 
	C81.538803,1.028677 157.800766,1.000000 234.531342,1.000000 
	C232.993500,5.275815 228.860260,2.500127 225.529099,3.850770 
	C215.185074,4.887038 205.488571,7.141295 195.374313,9.342913 
	C184.641327,11.881860 174.544205,15.108063 164.288940,19.089930 
	C149.748291,24.618128 136.246796,31.398195 123.010834,39.519329 
	C109.314377,48.024380 96.786209,57.481323 84.891663,68.356003 
	C70.299698,82.338142 56.667900,96.683342 45.661209,113.786705 
	C24.030910,145.529205 10.831432,180.198547 4.780047,217.657715 
	C4.119586,221.746078 3.563234,225.869949 3.307217,230.019577 
	C3.196890,231.807800 3.479887,233.738937 1.393225,235.029724 
z"/>
<path fill="#FFFFFF" opacity="1.000000" stroke="none" 
	d="
M386.661499,478.084900 
	C461.053436,432.205048 503.699310,366.541107 512.619873,279.195374 
	C513.000000,355.594940 512.965698,432.189972 513.104919,508.784668 
	C513.111633,512.473389 512.242493,513.096985 508.722961,513.091431 
	C432.461212,512.971313 356.199249,513.000000 279.468658,513.000000 
	C279.201202,510.590210 281.187256,510.809753 282.700073,510.695496 
	C293.789703,509.858124 304.658966,507.716400 315.885040,505.234070 
	C338.555176,500.275879 359.476959,491.847321 379.511169,481.092194 
	C381.698181,479.918121 383.685333,478.321747 386.661499,478.084900 
z"/>
<path fill="#FFFFFF" opacity="1.000000" stroke="none" 
	d="
M513.000000,234.531342 
	C510.749542,231.160416 511.719696,226.752563 511.214569,222.683975 
	C508.854248,203.672974 504.194519,185.240433 497.585388,167.378052 
	C489.933655,146.697678 479.661194,127.285858 466.821411,109.262047 
	C454.614014,92.125969 440.507782,76.793556 424.630096,63.004799 
	C419.801849,58.811768 415.029205,54.597790 409.389099,50.936382 
	C407.088684,50.697235 405.779755,49.306503 404.302429,48.291317 
	C389.370605,38.030529 373.843140,28.850767 356.649078,21.895855 
	C340.772400,15.269644 324.803009,10.240158 307.857849,7.003999 
	C299.362915,5.419842 291.272552,3.917791 283.041412,3.369182 
	C281.563263,3.270661 280.060211,3.159602 279.008484,1.431310 
	C355.594940,1.000000 432.189972,1.034290 508.784668,0.895053 
	C512.473450,0.888347 513.096985,1.757501 513.091431,5.277043 
	C512.971313,81.538780 513.000000,157.800751 513.000000,234.531342 
z"/>
<path fill="#FFFFFF" opacity="1.000000" stroke="none" 
	d="
M234.987976,512.564880 
	C158.405045,513.000000 81.810036,512.965698 5.215341,513.104980 
	C1.526589,513.111633 0.903035,512.242554 0.908577,508.722961 
	C1.028677,432.461212 1.000000,356.199249 1.000000,279.468658 
	C3.548667,279.132050 3.088717,281.219025 3.231630,282.697021 
	C7.329758,325.079285 21.322691,363.902466 45.247433,399.552979 
	C56.651356,417.571106 71.129692,432.438721 86.389206,447.092926 
	C99.559074,458.764435 113.395340,468.924225 128.586578,477.832397 
	C141.921082,485.636475 155.597153,491.848694 170.136459,497.106964 
	C182.726639,501.639771 195.275375,504.873993 208.397644,507.549866 
	C216.322693,508.786011 223.804565,510.204193 231.419312,510.667938 
	C232.749268,510.748962 234.062866,510.981354 234.987976,512.564880 
z"/>
<path fill="#00ECFF" opacity="1.000000" stroke="none" 
	d="
M45.393051,400.869873 
	C19.591085,364.431732 5.257135,323.836578 1.377907,279.198364 
	C1.000000,264.645782 1.000000,250.291550 1.000000,235.468658 
	C3.263265,231.162933 2.258951,226.757553 2.790783,222.684006 
	C5.354586,203.046661 10.224294,184.044556 17.168280,165.565063 
	C24.125759,147.049652 33.301094,129.644012 44.644165,113.057388 
	C46.935822,113.772491 47.258118,115.586685 47.466156,117.438065 
	C47.689640,119.426888 47.619663,121.428268 47.619743,123.424927 
	C47.623264,212.474289 47.632435,301.523651 47.585655,390.572998 
	C47.583866,393.979828 48.415890,397.630157 45.393051,400.869873 
z"/>
<path fill="#00BEFF" opacity="1.000000" stroke="none" 
	d="
M317.324768,505.702484 
	C308.877808,508.601868 300.482971,509.847137 292.063202,511.105621 
	C287.835388,511.737518 283.611908,511.840485 279.196106,512.620361 
	C269.979095,513.000000 260.958221,513.000000 251.468658,513.000000 
	C249.412354,511.236023 249.413513,509.041199 249.409653,506.881104 
	C249.367188,483.117065 249.363144,459.352997 249.409775,435.588928 
	C249.413040,433.925568 249.493896,432.261505 250.425095,430.266235 
	C252.514099,428.374817 254.707291,428.419922 256.847961,428.413269 
	C274.882965,428.357269 292.918091,428.370392 310.953156,428.402283 
	C312.773315,428.405518 314.600128,428.436432 316.748444,429.438293 
	C318.840546,431.853973 318.593597,434.406860 318.598358,436.865295 
	C318.638550,457.572479 318.631958,478.279785 318.605286,498.987030 
	C318.602509,501.129547 318.737640,503.315155 317.324768,505.702484 
z"/>
<path fill="#00BEFF" opacity="1.000000" stroke="none" 
	d="
M278.531616,1.000000 
	C282.417542,3.478718 286.559235,2.114440 290.251587,2.612728 
	C296.037476,3.393549 301.704437,5.175945 307.817993,5.544637 
	C309.533020,7.688121 309.591705,9.864256 309.595276,12.035355 
	C309.631592,34.150177 309.637360,56.265022 309.591705,78.379829 
	C309.588287,80.044106 309.510590,81.709167 308.588867,83.709496 
	C306.980011,85.288528 305.329803,85.517593 303.673218,85.532997 
	C290.129486,85.658905 276.585419,85.686676 263.041748,85.522255 
	C261.880096,85.508156 260.742645,85.286713 259.238281,84.553352 
	C257.246277,82.281410 257.408386,79.891800 257.404327,77.580193 
	C257.363434,54.264900 257.368134,30.949551 257.398346,7.634239 
	C257.400909,5.642508 257.339294,3.618990 258.696350,1.398351 
	C265.354401,1.000000 271.708801,1.000000 278.531616,1.000000 
z"/>
<path fill="#00C6FF" opacity="1.000000" stroke="none" 
	d="
M250.602966,429.544739 
	C250.999008,457.255890 250.999512,484.659302 251.000000,512.531372 
	C245.977905,513.000000 240.955811,513.000000 235.466858,513.000000 
	C231.574890,510.531433 227.462494,512.027039 223.720764,511.374329 
	C218.809631,510.517609 213.845078,509.458466 208.418854,508.903076 
	C206.347122,507.098602 206.420776,504.888641 206.416245,502.744751 
	C206.368958,480.362732 206.367294,457.980591 206.412842,435.598511 
	C206.416214,433.939117 206.493759,432.278870 207.414368,430.284882 
	C209.035858,428.699066 210.701202,428.483887 212.370087,428.466492 
	C223.854156,428.346771 235.338684,428.319489 246.822754,428.477417 
	C247.994644,428.493500 249.140457,428.711121 250.602966,429.544739 
z"/>
<path fill="#00C4FF" opacity="1.000000" stroke="none" 
	d="
M258.531372,1.000000 
	C258.999939,28.397375 258.999847,55.794750 258.999329,83.670059 
	C258.372864,84.717133 257.651733,85.202126 256.814636,85.232895 
	C246.755646,85.602600 236.690140,86.295311 226.234421,84.551987 
	C224.452087,82.609520 224.439560,80.581604 224.434464,78.596863 
	C224.371826,54.190220 224.386810,29.783506 224.415497,5.376811 
	C224.416092,4.873400 224.562286,4.393544 224.776978,3.427387 
	C227.927139,0.847831 231.451874,2.742959 234.810272,1.375024 
	C242.687576,1.000000 250.375168,1.000000 258.531372,1.000000 
z"/>
<path fill="#FAFEFF" opacity="1.000000" stroke="none" 
	d="
M225.628906,83.831490 
	C236.691940,84.213028 247.385513,84.280991 258.539001,84.248474 
	C275.025940,84.215729 291.052979,84.283470 307.539825,84.248947 
	C309.100311,82.954803 310.550415,82.615326 312.074860,82.582512 
	C326.231750,82.277824 340.339966,82.586372 354.575836,86.196167 
	C374.777191,91.719383 391.796021,101.672516 405.423004,117.178284 
	C406.294891,118.170380 407.289581,119.065834 407.682800,120.770462 
	C416.797577,133.405151 424.040405,146.553589 427.624908,161.567123 
	C429.611572,169.888092 430.512939,178.327255 430.538727,186.807877 
	C430.666412,228.796616 430.641815,270.786041 430.571655,312.775055 
	C430.551941,324.565186 423.718842,330.827728 412.314056,329.921692 
	C406.186798,329.434937 400.070587,322.242126 400.087952,316.108582 
	C400.212921,271.963776 400.277649,227.818695 400.252350,183.673767 
	C400.248077,176.161560 398.254364,168.931091 395.960358,161.393051 
	C394.462646,160.181442 393.909607,158.796478 393.263428,157.429718 
	C383.301147,136.358093 367.173004,122.910713 343.848755,117.814079 
	C333.406158,115.555801 323.231628,116.872200 313.123230,116.552353 
	C308.308350,116.400009 303.486572,116.634514 298.196411,116.471313 
	C282.501038,116.707901 267.277924,116.609016 251.570343,116.505722 
	C237.542389,116.706299 223.998291,116.563225 209.987778,116.513351 
	C201.702744,116.562729 193.881516,116.609917 186.066452,116.462418 
	C178.984161,116.328743 172.156708,117.479485 165.042679,119.787888 
	C137.656082,128.029892 117.437782,155.103775 117.419685,183.278854 
	C117.388687,231.553604 117.802567,279.832733 117.268150,328.101562 
	C116.933304,358.344971 137.981644,387.098267 167.294067,394.961761 
	C173.001465,396.722198 178.403137,397.473602 183.933990,397.478180 
	C195.071808,397.487427 206.209961,397.371521 217.821960,397.530273 
	C234.514496,397.288391 250.732895,397.387939 267.434875,397.493835 
	C290.044006,397.293457 312.169922,397.427032 334.727661,397.451569 
	C349.230743,396.829803 361.510986,391.663879 372.607544,383.128815 
	C378.063080,378.932678 382.082153,373.412323 386.997620,368.739532 
	C389.191833,366.653687 391.448242,364.673920 395.222290,365.333557 
	C406.899567,365.901062 413.447113,371.932037 413.010437,381.336151 
	C412.840820,384.989105 411.221954,387.969666 409.010132,390.772797 
	C402.490417,399.035492 394.778320,406.009644 386.062378,412.389465 
	C384.030273,416.154572 380.504059,417.611145 377.310547,419.226990 
	C363.816925,426.054260 349.687042,430.661072 334.332245,430.384186 
	C331.145142,430.326691 328.063477,431.142029 324.915710,431.289490 
	C322.454895,431.404816 319.916931,431.808044 317.304749,430.147400 
	C295.305939,429.787384 273.612610,429.721161 251.458908,429.753723 
	C236.971893,429.786469 222.945282,429.720398 208.458282,429.754150 
	C204.141769,432.759308 199.652649,431.543335 195.493027,431.413483 
	C187.564545,431.165955 179.628418,430.685730 171.314148,429.788330 
	C155.928223,427.197479 141.983597,422.075775 129.063126,413.284637 
	C107.716980,398.008423 93.691925,378.057343 86.732056,352.675964 
	C84.419289,342.638123 83.501305,332.840790 83.474922,323.014679 
	C83.356850,279.036957 83.403465,235.058746 83.440872,191.080750 
	C83.448105,182.574814 84.608200,174.147614 85.610504,165.284531 
	C89.729805,149.806732 95.613457,135.590012 105.313896,123.224930 
	C110.763351,116.278534 117.148201,110.203812 124.191078,104.276947 
	C135.821106,94.839409 149.100800,89.727768 163.317657,85.635872 
	C173.567352,83.319725 183.577637,82.722160 194.095062,82.554146 
	C203.194305,82.267174 211.831863,82.448837 220.468628,82.453072 
	C222.129364,82.453888 223.803741,82.530251 225.628906,83.831490 
z"/>
<path fill="#01B5FF" opacity="1.000000" stroke="none" 
	d="
M344.761017,116.755783 
	C361.866058,120.823486 376.150208,129.019455 386.519318,143.289230 
	C390.352783,148.564774 393.505920,154.189209 395.818115,160.649139 
	C393.382294,161.501282 394.021179,163.473907 394.020630,165.014984 
	C393.997040,230.345474 393.999451,295.675964 394.009155,361.006470 
	C394.009338,362.315674 393.783081,363.701813 395.217407,365.066620 
	C391.033966,366.759949 387.495026,369.530975 384.474426,373.234863 
	C372.389191,388.054199 356.747375,396.521851 337.405273,398.907867 
	C334.881256,396.472351 335.442749,393.529388 335.436707,390.767883 
	C335.386108,367.693817 335.407104,344.619629 335.412018,321.545471 
	C335.412689,318.389526 335.388245,315.237030 334.921509,311.651611 
	C334.699921,308.347870 336.291687,306.144562 337.592529,303.835449 
	C351.605225,278.961639 354.034454,252.985474 345.021118,225.915314 
	C344.289093,223.716766 343.160522,221.626556 343.175720,218.788162 
	C343.789856,207.279694 343.295959,196.201294 343.470642,185.128189 
	C343.512207,182.493332 343.247620,179.819580 344.533630,176.930420 
	C346.165375,174.843918 348.041107,175.410889 349.850372,175.488403 
	C357.128387,175.800171 363.721680,169.962158 363.606750,163.351913 
	C363.493561,156.845688 357.128510,151.316727 349.973663,151.538574 
	C348.331360,151.589508 346.664276,152.161591 344.785797,150.900726 
	C343.069458,147.964752 343.311249,145.086716 343.443726,142.306259 
	C343.844055,133.905167 342.282501,125.427032 344.761017,116.755783 
z"/>
<path fill="#00B7FF" opacity="1.000000" stroke="none" 
	d="
M316.999603,430.333374 
	C326.067657,429.222565 335.178619,429.584076 344.229065,428.331360 
	C359.080688,426.275665 372.601807,420.838501 385.543610,412.781036 
	C385.917694,432.263123 385.950104,451.867218 386.013428,471.471191 
	C386.019806,473.439453 385.637848,475.476990 386.878601,477.719543 
	C365.447601,491.040588 342.467224,500.543945 317.451447,506.066681 
	C317.027679,481.015076 317.013824,455.914154 316.999603,430.333374 
z"/>
<path fill="#01B4FF" opacity="1.000000" stroke="none" 
	d="
M408.035950,120.878616 
	C397.164490,109.727226 385.558807,99.711227 371.093506,93.549660 
	C366.384979,91.544029 361.500977,89.950409 356.349213,88.019096 
	C354.241211,85.962982 354.423950,83.566536 354.419006,81.259796 
	C354.381226,63.642883 354.370636,46.025848 354.426575,28.408993 
	C354.434418,25.946198 354.208008,23.364204 356.607391,21.121487 
	C375.694611,28.191570 392.738098,38.326172 408.898773,50.567715 
	C409.024414,72.335716 409.024200,93.793930 408.978027,115.252060 
	C408.974182,117.042427 409.443115,118.922264 408.035950,120.878616 
z"/>
<path fill="#00E3FF" opacity="1.000000" stroke="none" 
	d="
M87.068100,162.558014 
	C83.684235,206.280273 86.011497,249.592545 85.453491,292.866699 
	C85.268906,307.181885 84.962891,321.512726 85.878448,335.831268 
	C86.241379,341.507263 87.291550,347.044861 88.306412,352.989624 
	C88.974152,381.009918 88.449600,408.645813 88.585266,436.279144 
	C88.604004,440.095367 88.803925,443.979675 86.325684,447.786011 
	C70.775284,434.075775 56.590973,419.150330 45.095642,401.426239 
	C46.164692,399.154419 46.004860,396.975098 46.004730,394.810577 
	C45.999226,302.888458 46.001263,210.966339 45.990799,119.044228 
	C45.990593,117.232491 46.293716,115.362404 45.120747,113.282349 
	C53.485146,99.408539 63.832104,87.427177 75.202179,76.288712 
	C77.923294,73.623024 80.595154,70.907059 83.593414,68.079880 
	C87.206505,68.665062 86.425117,71.484886 86.496193,73.556610 
	C86.734879,80.514381 86.539070,87.482162 86.598595,94.445534 
	C86.791275,116.987473 86.121780,139.534988 87.068100,162.558014 
z"/>
<path fill="#01DBFF" opacity="1.000000" stroke="none" 
	d="
M87.442917,162.872986 
	C85.131195,160.181931 84.995018,156.916946 84.995926,153.608948 
	C85.003242,127.042778 85.008743,100.476601 84.980644,73.910461 
	C84.978745,72.111847 85.377953,70.253868 84.211426,68.231354 
	C93.858910,58.052456 105.159554,49.857666 116.766403,42.053932 
	C118.235275,41.066353 119.764008,40.167801 121.580910,39.086639 
	C125.447044,40.046143 124.487793,43.129635 124.509247,45.500397 
	C124.650047,61.064564 124.587715,76.630287 124.568893,92.195465 
	C124.564087,96.172127 124.621208,100.140991 125.090698,104.578201 
	C106.380432,120.188583 93.823792,139.334198 87.442917,162.872986 
z"/>
<path fill="#00D4FF" opacity="1.000000" stroke="none" 
	d="
M125.456001,104.961151 
	C122.520775,103.937469 123.009399,101.605476 123.007828,99.502998 
	C122.994255,81.299316 123.012505,63.095592 122.980415,44.891953 
	C122.977249,43.099251 123.376869,41.247345 122.211113,39.231071 
	C134.536041,30.441029 148.430420,24.387314 162.643188,18.211758 
	C164.703613,19.882456 164.572174,22.107643 164.578583,24.239344 
	C164.635300,43.125866 164.629135,62.012516 164.586288,80.899094 
	C164.582169,82.718033 164.584641,84.559601 163.293777,86.603630 
	C153.620163,89.882011 144.524017,93.374809 135.783417,97.936302 
	C132.079193,99.869438 129.290253,102.827705 125.456001,104.961151 
z"/>
<path fill="#00C9FF" opacity="1.000000" stroke="none" 
	d="
M225.998932,83.665314 
	C215.638550,84.211891 205.278717,84.278717 194.458496,84.245758 
	C192.380936,82.200333 192.403152,79.848946 192.400208,77.522682 
	C192.373795,56.618153 192.372650,35.713604 192.400574,14.809072 
	C192.403244,12.817320 192.398773,10.811047 193.740875,8.589989 
	C203.988953,6.341159 213.742294,3.162440 224.454651,2.970057 
	C226.746185,4.524992 225.960693,6.666183 225.964691,8.553875 
	C226.017517,33.431019 225.999649,58.308311 225.998932,83.665314 
z"/>
<path fill="#00CEFF" opacity="1.000000" stroke="none" 
	d="
M193.625305,8.227955 
	C194.001251,33.172558 194.000336,58.179043 193.998749,83.665756 
	C183.897339,84.692513 173.745712,84.706932 163.407471,87.018631 
	C163.000000,64.364098 163.000000,41.722363 163.000137,18.623035 
	C172.849030,14.156928 183.059494,11.256349 193.625305,8.227955 
z"/>
<path fill="#00B9FF" opacity="1.000000" stroke="none" 
	d="
M356.858704,20.567612 
	C355.841675,22.838299 355.993683,25.010281 355.994659,27.169462 
	C356.003784,47.096386 356.000183,67.023315 356.000732,87.410042 
	C340.515137,83.917458 324.697754,84.394058 308.459564,84.247360 
	C308.005249,58.376637 308.010864,32.606594 308.029053,6.360225 
	C323.593323,8.334487 338.434296,13.220381 353.018463,18.992559 
	C354.214996,19.466124 355.453766,19.832972 356.858704,20.567612 
z"/>
<path fill="#01DAFF" opacity="1.000000" stroke="none" 
	d="
M86.101913,448.429199 
	C88.289734,419.125854 86.376656,390.079987 87.006683,361.064545 
	C87.056602,358.765717 86.604851,356.389465 88.089355,353.815369 
	C92.342216,366.408325 97.729713,378.767914 106.188370,389.651001 
	C112.655632,397.971924 120.133545,405.193054 128.877747,411.584473 
	C129.708725,413.072754 129.815979,414.371948 129.784698,415.716217 
	C129.353531,434.241608 129.718460,452.769989 129.581665,471.296478 
	C129.564667,473.599701 129.770340,475.947784 128.335571,478.473572 
	C114.335426,470.652435 101.063393,461.927582 89.411575,450.951263 
	C88.483444,450.076935 87.304382,449.468994 86.101913,448.429199 
z"/>
<path fill="#00D3FF" opacity="1.000000" stroke="none" 
	d="
M128.324432,478.992523 
	C128.001404,459.073700 128.009232,439.312653 127.988625,419.551636 
	C127.986191,417.220123 127.941032,414.904053 128.987549,412.293762 
	C141.320969,420.021057 154.716187,425.375793 169.604462,428.101685 
	C171.676010,429.937256 171.577255,432.156525 171.583054,434.298401 
	C171.635147,453.550720 171.631882,472.803101 171.588745,492.055450 
	C171.584656,493.880157 171.559814,495.718536 170.303711,497.756348 
	C157.244553,494.174072 145.347427,488.358185 133.642639,482.112244 
	C131.936356,481.201752 130.310059,480.141388 128.324432,478.992523 
z"/>
<path fill="#00CDFF" opacity="1.000000" stroke="none" 
	d="
M170.157104,498.441956 
	C169.975479,475.120483 169.987808,452.118286 169.999939,428.661346 
	C182.314804,429.830963 194.704239,429.549377 207.538269,429.753723 
	C207.998795,455.875580 207.999710,481.897125 208.001221,508.376251 
	C195.191193,506.449554 182.707870,502.841797 170.157104,498.441956 
z"/>
<path fill="#01D4FF" opacity="1.000000" stroke="none" 
	d="
M167.235382,396.195374 
	C138.620911,388.984039 116.389542,362.359833 116.020691,333.165497 
	C115.383194,282.708649 115.369179,232.232697 115.982735,181.775558 
	C116.332359,153.023361 135.806442,128.092636 163.500854,118.498932 
	C166.072495,120.531158 165.569519,123.324226 165.573654,125.913460 
	C165.629105,160.603210 165.596756,195.293030 165.597137,229.982834 
	C165.597168,231.810913 165.361740,233.639450 166.516891,235.751343 
	C167.854431,239.325531 166.970474,242.466003 166.493988,245.541412 
	C164.413605,258.969452 166.394470,271.998260 170.038864,284.892944 
	C170.580658,286.809937 171.219147,288.716858 170.587402,291.197479 
	C168.639191,295.348511 168.597656,299.334564 168.596786,303.325104 
	C168.590714,331.396362 168.607330,359.467590 168.576462,387.538818 
	C168.573395,390.336456 168.960052,393.209656 167.235382,396.195374 
z"/>
<path fill="#01BCFF" opacity="1.000000" stroke="none" 
	d="
M335.468719,309.684998 
	C336.838501,312.541351 337.037048,315.481903 337.030945,318.505341 
	C336.977539,344.982697 337.000214,371.460175 337.000824,398.396545 
	C314.314301,400.027222 291.612366,399.141815 268.458008,399.248535 
	C266.770691,397.659882 266.455627,395.886292 266.461365,394.037872 
	C266.504486,380.170410 266.129364,366.300842 266.745178,352.010498 
	C267.775116,348.459503 270.647247,348.637878 272.978729,348.230377 
	C289.242859,345.387695 303.842743,338.958862 316.623138,328.442871 
	C321.529633,324.405731 326.045227,320.012970 329.951141,314.986267 
	C331.459259,313.045380 332.542786,310.646973 335.468719,309.684998 
z"/>
<path fill="#01CCFF" opacity="1.000000" stroke="none" 
	d="
M167.210266,396.702148 
	C166.923004,364.376648 166.962769,332.219116 166.998138,300.061584 
	C167.001755,296.781311 166.921173,293.484009 170.065155,290.932495 
	C172.172638,291.304901 172.562561,292.825989 173.161819,294.169189 
	C182.059174,314.112000 196.480804,328.866577 215.534744,339.260651 
	C217.262741,340.203308 219.290024,340.765259 219.800201,343.502136 
	C219.243576,359.642029 219.731003,375.367920 219.552780,391.089691 
	C219.524902,393.548218 219.873550,396.081696 218.265778,398.756653 
	C202.924362,399.265228 187.824707,400.363678 172.810516,398.070099 
	C171.032730,397.798553 169.293274,397.276215 167.210266,396.702148 
z"/>
<path fill="#01CDFF" opacity="1.000000" stroke="none" 
	d="
M166.469864,237.023834 
	C163.576935,235.105347 164.006714,232.334091 164.004730,229.705612 
	C163.976913,192.946915 163.958328,156.188202 163.905533,118.914581 
	C173.169479,114.782433 182.909683,114.546585 192.690491,114.602974 
	C197.819946,114.632553 202.949570,114.634926 208.539154,114.750488 
	C210.853882,117.123962 210.541016,119.854248 210.560440,122.490364 
	C210.685364,139.440918 210.367111,156.393036 210.726913,173.768280 
	C211.119766,177.288971 208.823807,178.604370 206.775604,179.983627 
	C194.570175,188.202744 184.700562,198.642151 177.562881,211.483826 
	C173.538712,218.723862 169.832336,226.189590 168.161148,234.438553 
	C167.962112,235.420959 167.752579,236.399734 166.469864,237.023834 
z"/>
<path fill="#01BAFF" opacity="1.000000" stroke="none" 
	d="
M344.763733,116.257309 
	C345.171143,127.777031 344.433838,139.147552 345.821472,150.777466 
	C346.276672,152.872238 344.711151,153.538040 343.722137,154.562881 
	C337.819458,160.679626 337.772980,166.277130 343.617157,172.319656 
	C344.529755,173.263184 345.687469,173.996384 346.088257,175.649170 
	C344.780396,177.941483 345.037201,180.118454 344.992310,182.261185 
	C344.739838,194.315079 345.542206,206.381088 344.274597,218.716705 
	C341.480194,219.097504 341.227753,216.900497 340.477844,215.393631 
	C331.731812,197.818909 318.540009,184.611633 301.309418,175.357880 
	C299.379425,174.321365 297.373871,173.452805 296.736572,170.606293 
	C296.136200,153.444275 296.493469,136.697906 296.462921,119.953033 
	C296.460175,118.456711 296.614441,116.965355 297.727356,115.249680 
	C313.485596,114.738037 329.001099,113.566650 344.763733,116.257309 
z"/>
<path fill="#01C4FF" opacity="1.000000" stroke="none" 
	d="
M218.459595,399.246643 
	C217.999481,382.573578 218.000320,365.999237 217.999268,349.424896 
	C217.999130,347.277863 217.794037,345.104492 218.924133,342.707703 
	C220.069138,341.409241 221.220444,341.840668 222.283096,342.239227 
	C236.268753,347.484772 250.607315,350.439056 265.634827,349.055817 
	C266.302063,348.994415 266.931915,349.283630 267.760193,349.960876 
	C268.001373,366.268494 268.000244,382.227997 267.998413,398.667847 
	C251.638443,399.213928 235.279205,399.279633 218.459595,399.246643 
z"/>
<path fill="#01BFFF" opacity="1.000000" stroke="none" 
	d="
M297.538757,114.749641 
	C297.998871,133.590088 297.999115,152.329651 297.998718,171.538330 
	C296.561523,173.113464 295.140686,172.453323 293.782806,171.885452 
	C281.531250,166.761917 268.654602,164.860855 255.494949,164.386810 
	C253.835052,164.327026 252.172806,164.241302 250.499939,162.790283 
	C249.442047,160.708038 249.424805,158.883194 249.419144,157.069641 
	C249.381531,145.025482 249.375397,132.981247 249.423035,120.937111 
	C249.430206,119.124763 249.433929,117.291557 250.721466,115.258102 
	C266.358276,114.784103 281.718628,114.716431 297.538757,114.749641 
z"/>
<path fill="#01C5FF" opacity="1.000000" stroke="none" 
	d="
M250.538147,114.750992 
	C251.010712,130.691391 251.023483,146.531006 251.061432,162.860687 
	C250.842484,164.538361 249.894348,164.960709 248.900635,165.053192 
	C235.954102,166.257904 224.001755,170.720505 212.328796,176.121094 
	C211.877472,176.329910 211.361954,176.353073 210.472000,176.325714 
	C208.944794,174.295609 208.986069,172.150070 208.988495,169.983932 
	C209.008667,151.926743 208.999847,133.869507 208.999481,115.331848 
	C222.692261,114.784332 236.385300,114.717270 250.538147,114.750992 
z"/>
<path fill="#FDFEFF" opacity="1.000000" stroke="none" 
	d="
M209.884125,176.517380 
	C222.683533,169.414627 235.933823,164.647583 250.727631,163.513062 
	C267.137726,162.684982 282.612640,165.115585 297.633606,171.975937 
	C315.369629,181.019760 329.610382,193.392105 339.317108,210.601501 
	C340.785217,213.204422 342.072845,215.909119 343.708069,218.786835 
	C349.266113,232.953781 352.485107,247.230301 351.536774,262.302307 
	C350.468689,279.277344 345.188263,294.781799 335.923218,309.347992 
	C328.495605,319.155243 320.488770,327.980530 310.408966,334.676880 
	C297.762482,343.078430 283.920532,348.289825 268.409912,350.191895 
	C251.242569,351.702301 235.079803,349.404846 219.329956,342.401001 
	C200.121704,333.408142 185.847229,319.516205 175.317795,301.680634 
	C173.436356,298.493683 172.327850,294.850433 170.666504,291.135559 
	C164.190811,273.593414 162.725082,255.937714 166.104187,237.453766 
	C170.410110,220.266891 178.011948,205.281052 189.990128,192.645676 
	C195.844543,186.470047 202.398026,181.170914 209.884125,176.517380 
z"/>
<path fill="#F9FDFF" opacity="1.000000" stroke="none" 
	d="
M346.400818,176.027542 
	C337.322021,169.225418 335.719025,162.318283 341.136322,155.344971 
	C342.400757,153.717316 344.111755,152.736038 345.942596,151.334412 
	C352.058960,149.352295 357.356995,150.324554 361.488220,155.087112 
	C365.548737,159.768188 365.874939,165.268173 362.725616,170.284592 
	C359.131744,176.009064 353.908386,177.903625 346.400818,176.027542 
z"/>
<path fill="#01BEFF" opacity="1.000000" stroke="none" 
	d="
M261.707153,194.152679 
	C289.878174,193.991394 316.309296,217.631653 320.842407,246.368484 
	C326.738007,283.742615 300.449585,317.324982 262.489807,320.283173 
	C260.156433,318.365387 260.407013,315.937469 260.404114,313.647400 
	C260.356262,275.885437 260.361847,238.123459 260.391815,200.361465 
	C260.393402,198.370056 260.358612,196.353256 261.707153,194.152679 
z"/>
<path fill="#01C3FF" opacity="1.000000" stroke="none" 
	d="
M261.703003,193.604858 
	C262.042023,235.605865 262.031647,277.425568 262.036743,319.729553 
	C250.921066,321.655029 240.544647,319.047791 230.281418,314.112610 
	C229.323685,312.864716 229.249268,311.722626 229.257599,310.541199 
	C229.511856,274.509247 229.479858,238.477234 229.275375,202.445206 
	C229.272491,201.937637 229.432709,201.464905 229.773438,200.549133 
	C239.769241,194.682236 250.336197,192.998138 261.703003,193.604858 
z"/>
<path fill="#01C8FF" opacity="1.000000" stroke="none" 
	d="
M229.658417,200.150162 
	C230.843109,202.664612 231.031860,205.270660 231.028290,207.952621 
	C230.984772,240.709610 230.998779,273.466675 231.002609,306.223694 
	C231.002884,308.545898 231.188049,310.887115 230.061890,313.476074 
	C210.245560,304.320587 198.615387,288.358582 195.228745,267.017975 
	C190.749451,238.792023 204.158432,213.389343 229.658417,200.150162 
z"/>
</svg>