<svg version="1.1" id="Layer_1" xmlns="http://www.w3.org/2000/svg" xmlns:xlink="http://www.w3.org/1999/xlink" x="0px" y="0px"
	 width="100%" viewBox="0 0 204 133" enable-background="new 0 0 204 133" xml:space="preserve">
<path fill="#010101" opacity="1.000000" stroke="none" 
	d="
M150.000000,134.000000 
	C100.000008,134.000000 50.500011,134.000000 1.000013,134.000000 
	C1.000009,89.666679 1.000009,45.333355 1.000004,1.000025 
	C68.999977,1.000017 136.999954,1.000017 204.999954,1.000008 
	C204.999969,45.333309 204.999969,89.666618 204.999985,133.999969 
	C186.833328,134.000000 168.666672,134.000000 150.000000,134.000000 
M76.142029,102.971558 
	C78.100815,102.656448 80.059593,102.341331 82.395081,102.679268 
	C83.281097,105.540878 84.224266,108.386330 85.039177,111.268044 
	C86.146507,115.183807 88.765549,116.900169 92.572166,115.785477 
	C96.259575,114.705688 97.175369,111.725861 96.116920,108.205681 
	C94.728645,103.588585 93.695618,98.767181 91.556526,94.512962 
	C90.424492,92.261574 87.454102,89.939636 85.000595,89.531502 
	C77.196320,88.233269 77.136742,88.574623 77.073303,80.837738 
	C77.058876,79.078270 77.071182,77.318596 77.071182,75.176117 
	C78.884712,75.673927 80.255539,75.811974 81.392326,76.401413 
	C88.145905,79.903221 94.444031,77.370483 100.498672,74.651329 
	C102.054932,73.952400 103.798874,70.781715 103.378738,69.361008 
	C102.933022,67.853783 100.104500,66.843063 98.135201,66.089569 
	C97.258629,65.754173 95.855751,66.411919 94.832451,66.908707 
	C90.452538,69.035042 86.274918,68.830559 82.071320,66.356232 
	C80.512718,65.438805 78.730492,64.813042 76.973717,64.336281 
	C70.498421,62.578991 65.246376,64.351433 62.251499,69.441628 
	C60.655727,73.583420 62.410297,78.879929 57.978329,82.955124 
	C57.978329,93.906715 57.978329,104.858307 57.978329,115.809898 
	C58.814606,115.844650 59.650887,115.879402 60.487164,115.914162 
	C60.790997,112.743713 61.094830,109.573265 61.404057,106.346558 
	C64.213799,106.346558 66.779488,106.346558 69.384399,106.346558 
	C69.719597,109.748329 70.023193,112.829460 70.326797,115.910599 
	C70.972878,115.910736 71.618965,115.910873 72.265045,115.911018 
	C72.486420,113.806213 72.443298,111.627968 73.001793,109.616776 
	C73.587997,107.505775 74.750816,105.554901 76.142029,102.971558 
M126.683105,112.150513 
	C127.943733,104.309517 130.436127,98.576416 140.526886,100.297462 
	C145.082657,101.074486 148.013962,97.180260 148.290741,92.325516 
	C148.698059,85.180901 149.314835,78.014351 149.054230,70.885971 
	C148.975037,68.719734 146.611572,65.253830 144.739380,64.829048 
	C141.031631,63.987801 136.537643,63.855213 133.094986,65.237968 
	C127.717201,67.397980 123.352989,68.339516 118.536621,64.088821 
	C117.455338,63.134541 114.267242,64.567444 112.049049,64.901367 
	C112.437401,67.081184 112.047188,70.157372 113.347725,71.286995 
	C119.251137,76.414589 125.504860,81.620598 133.877594,75.526299 
	C134.030380,75.415092 134.458054,75.681572 134.955963,75.831657 
	C134.955963,77.604774 134.955872,79.429947 134.955978,81.255119 
	C134.956375,88.832710 134.960480,88.914711 127.583313,89.280777 
	C123.791695,89.468933 121.319122,91.080322 120.175446,94.746811 
	C118.790237,99.187637 117.291252,103.592987 115.908653,108.034592 
	C114.901825,111.269089 115.463013,114.265938 118.779953,115.579361 
	C121.755112,116.757431 124.751465,116.331192 126.683105,112.150513 
M127.291481,37.350822 
	C127.291481,31.737480 127.291481,26.124138 127.291481,20.392952 
	C112.869148,20.392952 99.054329,20.392952 85.393059,20.392952 
	C85.393059,32.216927 85.393059,43.549309 85.393059,56.008373 
	C87.654335,54.426498 89.314896,53.655373 90.446541,52.405392 
	C95.264610,47.083511 101.068893,45.250698 108.213989,45.900291 
	C114.389946,46.461777 120.657394,46.016922 127.291451,46.016922 
	C127.291451,42.905987 127.291451,40.604034 127.291481,37.350822 
M87.715546,86.055397 
	C93.134750,86.055397 98.553947,86.055397 103.855827,86.055397 
	C105.032692,96.476242 103.158318,106.319275 105.013611,115.878990 
	C105.802750,115.882095 106.591896,115.885193 107.381035,115.888298 
	C107.381035,106.032471 107.381035,96.176643 107.381035,86.047516 
	C112.427734,86.047516 116.238350,86.110214 120.045898,86.029320 
	C123.626556,85.953239 127.203987,85.725609 130.782837,85.564651 
	C126.867844,82.091019 84.072289,82.345299 80.618202,85.322472 
	C83.109955,85.636490 84.947823,85.868111 87.715546,86.055397 
M154.094162,100.494263 
	C153.603592,94.044441 155.145432,87.404129 153.159698,81.094444 
	C152.571182,81.091675 151.982681,81.088898 151.394165,81.086128 
	C151.394165,88.211899 151.394165,95.337677 151.394165,103.409744 
	C145.783447,103.409744 141.026947,103.409744 137.179718,103.409744 
	C138.354095,108.139114 139.325623,112.051559 140.297134,115.963997 
	C140.793747,115.900017 141.290375,115.836029 141.786987,115.772049 
	C142.063660,112.617180 142.340332,109.462311 142.611908,106.365532 
	C145.532257,106.365532 148.117432,106.365532 150.661530,106.365532 
	C150.993576,109.779915 151.292160,112.850189 151.590759,115.920464 
	C152.425217,115.916985 153.259689,115.913506 154.094162,115.910027 
	C154.094162,111.103462 154.094162,106.296906 154.094162,100.494263 
M63.742611,51.532265 
	C64.326920,54.394363 64.153099,57.835331 65.748802,59.925179 
	C66.908867,61.444481 70.927910,62.280254 72.732529,61.428890 
	C74.994736,60.361652 77.678261,57.235767 77.644531,55.037315 
	C77.606560,52.561665 75.265083,49.309036 72.991577,47.870510 
	C69.587349,45.716549 66.407410,47.833515 63.742611,51.532265 
M134.705383,51.513603 
	C133.481689,57.019245 135.237823,60.812965 139.484924,61.838673 
	C143.677505,62.851212 148.264496,60.477123 148.434692,56.228149 
	C148.540039,53.597412 147.011581,49.948193 144.969864,48.396084 
	C141.442719,45.714756 137.710419,47.245659 134.705383,51.513603 
z"/>
<path fill="#03ADC4" opacity="1.000000" stroke="none" 
	d="
M126.508545,112.497543 
	C124.751465,116.331192 121.755112,116.757431 118.779953,115.579361 
	C115.463013,114.265938 114.901825,111.269089 115.908653,108.034592 
	C117.291252,103.592987 118.790237,99.187637 120.175446,94.746811 
	C121.319122,91.080322 123.791695,89.468933 127.583313,89.280777 
	C134.960480,88.914711 134.956375,88.832710 134.955978,81.255119 
	C134.955872,79.429947 134.955963,77.604774 134.955963,75.831657 
	C134.458054,75.681572 134.030380,75.415092 133.877594,75.526299 
	C125.504860,81.620598 119.251137,76.414589 113.347725,71.286995 
	C112.047188,70.157372 112.437401,67.081184 112.049049,64.901367 
	C114.267242,64.567444 117.455338,63.134541 118.536621,64.088821 
	C123.352989,68.339516 127.717201,67.397980 133.094986,65.237968 
	C136.537643,63.855213 141.031631,63.987801 144.739380,64.829048 
	C146.611572,65.253830 148.975037,68.719734 149.054230,70.885971 
	C149.314835,78.014351 148.698059,85.180901 148.290741,92.325516 
	C148.013962,97.180260 145.082657,101.074486 140.526886,100.297462 
	C130.436127,98.576416 127.943733,104.309517 126.508545,112.497543 
M123.483482,74.786865 
	C123.483482,74.786865 123.719650,74.773048 124.311707,75.192513 
	C125.649315,74.845306 126.986931,74.498093 129.034531,74.045532 
	C131.755096,73.020142 134.475677,71.994759 137.998352,70.667046 
	C137.998352,75.309357 138.025818,79.078712 137.992767,82.847527 
	C137.918060,91.366974 137.490601,91.685379 129.110275,92.559013 
	C127.192162,92.758972 124.324791,93.604820 123.728004,94.960579 
	C121.661682,99.654808 120.295715,104.675507 118.942413,109.647942 
	C118.710571,110.499809 119.711380,112.477684 120.381149,112.596992 
	C121.357758,112.770950 123.102211,112.011971 123.538177,111.152840 
	C124.499237,109.258987 124.855873,107.056389 125.443230,104.975288 
	C127.632713,97.217598 127.977188,96.965057 136.184570,97.179436 
	C137.017181,97.201187 137.851562,97.195992 138.682037,97.250488 
	C143.008774,97.534462 145.255142,95.550957 145.397888,91.186592 
	C145.610199,84.694847 145.810394,78.202202 146.100693,71.713745 
	C146.230927,68.803192 144.854355,67.611298 142.086197,67.103989 
	C136.724716,66.121414 132.365524,68.511795 127.130684,70.842941 
	C124.470490,69.847748 121.803062,68.871330 119.152901,67.850098 
	C117.637604,67.266190 116.150421,66.609344 114.650581,65.985336 
	C114.363495,66.599495 114.076401,67.213646 113.789314,67.827805 
	C116.369217,69.641235 118.949120,71.454659 121.543297,73.410957 
	C121.543297,73.410957 121.686829,73.406998 121.967377,73.849335 
	C122.419556,74.103630 122.871742,74.357918 123.483482,74.786865 
z"/>
<path fill="#03ADC4" opacity="1.000000" stroke="none" 
	d="
M62.793457,68.985970 
	C65.246376,64.351433 70.498421,62.578991 76.973717,64.336281 
	C78.730492,64.813042 80.512718,65.438805 82.071320,66.356232 
	C86.274918,68.830559 90.452538,69.035042 94.832451,66.908707 
	C95.855751,66.411919 97.258629,65.754173 98.135201,66.089569 
	C100.104500,66.843063 102.933022,67.853783 103.378738,69.361008 
	C103.798874,70.781715 102.054932,73.952400 100.498672,74.651329 
	C94.444031,77.370483 88.145905,79.903221 81.392326,76.401413 
	C80.255539,75.811974 78.884712,75.673927 77.071182,75.176117 
	C77.071182,77.318596 77.058876,79.078270 77.073303,80.837738 
	C77.136742,88.574623 77.196320,88.233269 85.000595,89.531502 
	C87.454102,89.939636 90.424492,92.261574 91.556526,94.512962 
	C93.695618,98.767181 94.728645,103.588585 96.116920,108.205681 
	C97.175369,111.725861 96.259575,114.705688 92.572166,115.785477 
	C88.765549,116.900169 86.146507,115.183807 85.039177,111.268044 
	C84.224266,108.386330 83.281097,105.540878 82.135437,101.970383 
	C79.171547,100.993683 76.470238,100.537704 73.762459,100.495346 
	C67.134026,100.391685 64.182159,97.930161 63.775761,91.405045 
	C63.310860,83.940582 63.109390,76.459709 62.793457,68.985970 
M78.045166,68.052155 
	C77.715187,67.976654 77.385201,67.901161 76.397430,67.356995 
	C75.247757,67.241714 74.097046,67.018036 72.948593,67.029076 
	C66.440758,67.091652 65.924454,67.638535 66.038605,74.202797 
	C66.102196,77.859642 66.166267,81.517113 66.293526,85.172096 
	C66.702522,96.918976 66.713425,97.015808 78.319397,97.073364 
	C82.689590,97.095047 85.142700,98.948700 86.073936,103.154388 
	C86.575836,105.421104 87.011002,107.791801 88.055756,109.816589 
	C88.711761,111.087975 90.442810,111.804672 91.691544,112.770226 
	C92.101974,111.386230 93.060722,109.893684 92.812531,108.640083 
	C92.236008,105.728073 90.715858,102.991447 90.230835,100.075180 
	C89.275940,94.333794 86.356888,91.766319 80.415459,92.261391 
	C76.158272,92.616127 73.997269,90.294609 74.083733,85.899551 
	C74.178490,81.083153 74.111290,76.263557 74.868904,71.344551 
	C78.672279,72.428177 82.469162,73.535248 86.280693,74.589401 
	C90.878716,75.861069 98.733192,72.959854 100.155922,69.209366 
	C99.089432,69.209366 97.958023,68.863708 97.243988,69.263496 
	C90.950897,72.786972 84.909302,71.684578 78.713760,68.338715 
	C78.713760,68.338715 78.437790,68.388580 78.045166,68.052155 
z"/>
<path fill="#01B8CF" opacity="1.000000" stroke="none" 
	d="
M127.291466,37.826454 
	C127.291451,40.604034 127.291451,42.905987 127.291451,46.016922 
	C120.657394,46.016922 114.389946,46.461777 108.213989,45.900291 
	C101.068893,45.250698 95.264610,47.083511 90.446541,52.405392 
	C89.314896,53.655373 87.654335,54.426498 85.393059,56.008373 
	C85.393059,43.549309 85.393059,32.216927 85.393059,20.392952 
	C99.054329,20.392952 112.869148,20.392952 127.291481,20.392952 
	C127.291481,26.124138 127.291481,31.737480 127.291466,37.826454 
M100.513016,23.015347 
	C96.418518,23.015347 92.324020,23.015347 88.390182,23.015347 
	C88.390182,32.315697 88.390182,40.924274 88.390182,50.583153 
	C93.532188,44.843372 98.746094,42.124916 105.717239,42.792835 
	C111.609558,43.357388 117.598907,42.909153 123.751862,42.909153 
	C123.751862,36.074097 123.751862,29.720186 123.751862,23.015347 
	C116.095856,23.015347 108.802856,23.015347 100.513016,23.015347 
z"/>
<path fill="#03ACC2" opacity="1.000000" stroke="none" 
	d="
M87.250618,86.077560 
	C84.947823,85.868111 83.109955,85.636490 80.618202,85.322472 
	C84.072289,82.345299 126.867844,82.091019 130.782837,85.564651 
	C127.203987,85.725609 123.626556,85.953239 120.045898,86.029320 
	C116.238350,86.110214 112.427734,86.047516 107.381035,86.047516 
	C107.381035,96.176643 107.381035,106.032471 107.381035,115.888298 
	C106.591896,115.885193 105.802750,115.882095 105.013611,115.878990 
	C103.158318,106.319275 105.032692,96.476242 103.855827,86.055397 
	C98.553947,86.055397 93.134750,86.055397 87.250618,86.077560 
z"/>
<path fill="#01B8CF" opacity="1.000000" stroke="none" 
	d="
M154.094162,100.992302 
	C154.094162,106.296906 154.094162,111.103462 154.094162,115.910027 
	C153.259689,115.913506 152.425217,115.916985 151.590759,115.920464 
	C151.292160,112.850189 150.993576,109.779915 150.661530,106.365532 
	C148.117432,106.365532 145.532257,106.365532 142.611908,106.365532 
	C142.340332,109.462311 142.063660,112.617180 141.786987,115.772049 
	C141.290375,115.836029 140.793747,115.900017 140.297134,115.963997 
	C139.325623,112.051559 138.354095,108.139114 137.179718,103.409744 
	C141.026947,103.409744 145.783447,103.409744 151.394165,103.409744 
	C151.394165,95.337677 151.394165,88.211899 151.394165,81.086128 
	C151.982681,81.088898 152.571182,81.091675 153.159698,81.094444 
	C155.145432,87.404129 153.603592,94.044441 154.094162,100.992302 
z"/>
<path fill="#01B7CF" opacity="1.000000" stroke="none" 
	d="
M75.661652,103.534050 
	C74.750816,105.554901 73.587997,107.505775 73.001793,109.616776 
	C72.443298,111.627968 72.486420,113.806213 72.265045,115.911018 
	C71.618965,115.910873 70.972878,115.910736 70.326797,115.910599 
	C70.023193,112.829460 69.719597,109.748329 69.384399,106.346558 
	C66.779488,106.346558 64.213799,106.346558 61.404057,106.346558 
	C61.094830,109.573265 60.790997,112.743713 60.487164,115.914162 
	C59.650887,115.879402 58.814606,115.844650 57.978329,115.809898 
	C57.978329,104.858307 57.978329,93.906715 58.221916,82.226341 
	C59.294338,82.619736 60.791698,83.714203 60.839531,84.868744 
	C61.083225,90.750443 60.952000,96.647682 60.952000,102.697075 
	C66.210999,102.996307 70.936325,103.265182 75.661652,103.534050 
z"/>
<path fill="#132022" opacity="1.000000" stroke="none" 
	d="
M75.901840,103.252808 
	C70.936325,103.265182 66.210999,102.996307 60.952000,102.697075 
	C60.952000,96.647682 61.083225,90.750443 60.839531,84.868744 
	C60.791698,83.714203 59.294338,82.619736 58.190445,81.760033 
	C62.410297,78.879929 60.655727,73.583420 62.522476,69.213799 
	C63.109390,76.459709 63.310860,83.940582 63.775761,91.405045 
	C64.182159,97.930161 67.134026,100.391685 73.762459,100.495346 
	C76.470238,100.537704 79.171547,100.993683 81.947090,101.643860 
	C80.059593,102.341331 78.100815,102.656448 75.901840,103.252808 
z"/>
<path fill="#03ADC3" opacity="1.000000" stroke="none" 
	d="
M63.906754,51.180420 
	C66.407410,47.833515 69.587349,45.716549 72.991577,47.870510 
	C75.265083,49.309036 77.606560,52.561665 77.644531,55.037315 
	C77.678261,57.235767 74.994736,60.361652 72.732529,61.428890 
	C70.927910,62.280254 66.908867,61.444481 65.748802,59.925179 
	C64.153099,57.835331 64.326920,54.394363 63.906754,51.180420 
M66.480133,53.064632 
	C67.531807,55.011570 68.583481,56.958511 69.635147,58.905453 
	C71.267380,58.012470 73.526779,57.483738 74.326302,56.107132 
	C74.927109,55.072662 74.148651,52.456100 73.110680,51.413525 
	C70.951721,49.244984 68.592072,49.858746 66.480133,53.064632 
z"/>
<path fill="#03ADC4" opacity="1.000000" stroke="none" 
	d="
M134.880417,51.163956 
	C137.710419,47.245659 141.442719,45.714756 144.969864,48.396084 
	C147.011581,49.948193 148.540039,53.597412 148.434692,56.228149 
	C148.264496,60.477123 143.677505,62.851212 139.484924,61.838673 
	C135.237823,60.812965 133.481689,57.019245 134.880417,51.163956 
M142.881424,50.545368 
	C141.127335,51.284843 138.986847,51.651268 137.771149,52.910511 
	C137.094666,53.611244 137.505188,56.795380 138.218567,57.120426 
	C139.976807,57.921562 142.819901,58.621689 144.098358,57.735138 
	C147.023209,55.706863 146.238693,52.994358 142.881424,50.545368 
z"/>
<path fill="#080E0F" opacity="1.000000" stroke="none" 
	d="
M127.924606,70.800095 
	C132.365524,68.511795 136.724716,66.121414 142.086197,67.103989 
	C144.854355,67.611298 146.230927,68.803192 146.100693,71.713745 
	C145.810394,78.202202 145.610199,84.694847 145.397888,91.186592 
	C145.255142,95.550957 143.008774,97.534462 138.682037,97.250488 
	C137.851562,97.195992 137.017181,97.201187 136.184570,97.179436 
	C127.977188,96.965057 127.632713,97.217598 125.443230,104.975288 
	C124.855873,107.056389 124.499237,109.258987 123.538177,111.152840 
	C123.102211,112.011971 121.357758,112.770950 120.381149,112.596992 
	C119.711380,112.477684 118.710571,110.499809 118.942413,109.647942 
	C120.295715,104.675507 121.661682,99.654808 123.728004,94.960579 
	C124.324791,93.604820 127.192162,92.758972 129.110275,92.559013 
	C137.490601,91.685379 137.918060,91.366974 137.992767,82.847527 
	C138.025818,79.078712 137.998352,75.309357 137.998352,70.667046 
	C134.475677,71.994759 131.755096,73.020142 128.212143,74.097885 
	C126.166389,74.357841 124.943024,74.565445 123.719650,74.773048 
	C123.719650,74.773048 123.483482,74.786865 123.320831,74.430893 
	C122.667732,73.852280 122.177284,73.629639 121.686829,73.406998 
	C121.686829,73.406998 121.543297,73.410957 121.854973,73.097717 
	C124.085968,72.123016 126.005287,71.461555 127.924606,70.800095 
z"/>
<path fill="#162A2E" opacity="1.000000" stroke="none" 
	d="
M127.527649,70.821518 
	C126.005287,71.461555 124.085968,72.123016 121.847839,73.026283 
	C118.949120,71.454659 116.369217,69.641235 113.789314,67.827805 
	C114.076401,67.213646 114.363495,66.599495 114.650581,65.985336 
	C116.150421,66.609344 117.637604,67.266190 119.152901,67.850098 
	C121.803062,68.871330 124.470490,69.847748 127.527649,70.821518 
z"/>
<path fill="#162A2E" opacity="1.000000" stroke="none" 
	d="
M124.015678,74.982780 
	C124.943024,74.565445 126.166389,74.357841 127.857147,74.150558 
	C126.986931,74.498093 125.649315,74.845306 124.015678,74.982780 
z"/>
<path fill="#162A2E" opacity="1.000000" stroke="none" 
	d="
M121.827103,73.628166 
	C122.177284,73.629639 122.667732,73.852280 123.241058,74.343567 
	C122.871742,74.357918 122.419556,74.103630 121.827103,73.628166 
z"/>
<path fill="#080E0F" opacity="1.000000" stroke="none" 
	d="
M74.114662,71.445358 
	C74.111290,76.263557 74.178490,81.083153 74.083733,85.899551 
	C73.997269,90.294609 76.158272,92.616127 80.415459,92.261391 
	C86.356888,91.766319 89.275940,94.333794 90.230835,100.075180 
	C90.715858,102.991447 92.236008,105.728073 92.812531,108.640083 
	C93.060722,109.893684 92.101974,111.386230 91.691544,112.770226 
	C90.442810,111.804672 88.711761,111.087975 88.055756,109.816589 
	C87.011002,107.791801 86.575836,105.421104 86.073936,103.154388 
	C85.142700,98.948700 82.689590,97.095047 78.319397,97.073364 
	C66.713425,97.015808 66.702522,96.918976 66.293526,85.172096 
	C66.166267,81.517113 66.102196,77.859642 66.038605,74.202797 
	C65.924454,67.638535 66.440758,67.091652 72.948593,67.029076 
	C74.097046,67.018036 75.247757,67.241714 76.920692,67.758514 
	C77.775230,68.236214 78.106514,68.312401 78.437790,68.388580 
	C78.437790,68.388580 78.713760,68.338715 78.469833,68.662163 
	C76.855492,69.805527 75.485077,70.625443 74.114662,71.445358 
z"/>
<path fill="#132023" opacity="1.000000" stroke="none" 
	d="
M74.491783,71.394958 
	C75.485077,70.625443 76.855492,69.805527 78.573364,68.756729 
	C84.909302,71.684578 90.950897,72.786972 97.243988,69.263496 
	C97.958023,68.863708 99.089432,69.209366 100.155922,69.209366 
	C98.733192,72.959854 90.878716,75.861069 86.280693,74.589401 
	C82.469162,73.535248 78.672279,72.428177 74.491783,71.394958 
z"/>
<path fill="#132023" opacity="1.000000" stroke="none" 
	d="
M78.241478,68.220367 
	C78.106514,68.312401 77.775230,68.236214 77.249588,67.992844 
	C77.385201,67.901161 77.715187,67.976654 78.241478,68.220367 
z"/>
<path fill="#010202" opacity="1.000000" stroke="none" 
	d="
M101.011429,23.015347 
	C108.802856,23.015347 116.095856,23.015347 123.751862,23.015347 
	C123.751862,29.720186 123.751862,36.074097 123.751862,42.909153 
	C117.598907,42.909153 111.609558,43.357388 105.717239,42.792835 
	C98.746094,42.124916 93.532188,44.843372 88.390182,50.583153 
	C88.390182,40.924274 88.390182,32.315697 88.390182,23.015347 
	C92.324020,23.015347 96.418518,23.015347 101.011429,23.015347 
z"/>
<path fill="#0A1416" opacity="1.000000" stroke="none" 
	d="
M66.661804,52.734982 
	C68.592072,49.858746 70.951721,49.244984 73.110680,51.413525 
	C74.148651,52.456100 74.927109,55.072662 74.326302,56.107132 
	C73.526779,57.483738 71.267380,58.012470 69.635147,58.905453 
	C68.583481,56.958511 67.531807,55.011570 66.661804,52.734982 
z"/>
<path fill="#040E0F" opacity="1.000000" stroke="none" 
	d="
M143.218567,50.714554 
	C146.238693,52.994358 147.023209,55.706863 144.098358,57.735138 
	C142.819901,58.621689 139.976807,57.921562 138.218567,57.120426 
	C137.505188,56.795380 137.094666,53.611244 137.771149,52.910511 
	C138.986847,51.651268 141.127335,51.284843 143.218567,50.714554 
z"/>
</svg>