<svg version="1.1" id="Layer_1" xmlns="http://www.w3.org/2000/svg" xmlns:xlink="http://www.w3.org/1999/xlink" x="0px" y="0px"
	 width="100%" viewBox="0 0 157 129" enable-background="new 0 0 157 129" xml:space="preserve">
<path fill="#000101" opacity="1.000000" stroke="none" 
	d="
M101.000000,130.000000 
	C67.362343,130.000000 34.224693,130.000000 1.043519,130.000000 
	C1.043519,87.066666 1.043519,44.133274 1.043519,1.099941 
	C53.220757,1.099941 105.441772,1.099941 157.831390,1.099941 
	C157.831390,43.999462 157.831390,86.999672 157.831390,130.000000 
	C139.133667,130.000000 120.316833,130.000000 101.000000,130.000000 
M132.044250,90.507195 
	C128.624390,87.023041 125.204536,83.538887 120.992889,79.248055 
	C121.004707,79.466873 120.917496,78.314529 120.884056,77.160622 
	C120.585289,66.851982 116.701424,62.469036 106.483200,60.873531 
	C104.185532,60.514767 101.826721,60.299366 99.628983,59.600163 
	C94.936363,58.107220 93.994286,53.884743 96.876785,49.884632 
	C98.789986,47.229656 100.722809,44.280163 101.499382,41.175495 
	C103.448296,33.383907 102.941025,25.653639 96.311958,20.076599 
	C90.156700,14.898176 82.898048,14.316224 75.715775,17.926449 
	C65.074097,23.275583 63.089062,39.306606 71.582283,49.634979 
	C75.243286,54.087029 73.796455,58.533520 68.166069,59.847691 
	C65.740372,60.413860 63.241791,60.664604 60.779652,61.078434 
	C53.112991,62.367023 49.012630,66.618637 48.056461,74.254227 
	C47.898148,75.518456 47.737473,76.782387 47.515564,78.540115 
	C43.626793,78.540115 40.031517,78.540115 36.214169,78.540115 
	C36.214169,88.342392 36.214169,97.604347 36.214169,106.516762 
	C45.167774,107.903976 53.808800,109.254677 62.453739,110.579849 
	C85.655296,114.136391 107.664406,111.726349 127.115097,97.261391 
	C129.116898,95.772705 130.388184,93.301712 132.044250,90.507195 
z"/>
<path fill="#02B0C6" opacity="1.000000" stroke="none" 
	d="
M132.021332,90.896866 
	C130.388184,93.301712 129.116898,95.772705 127.115097,97.261391 
	C107.664406,111.726349 85.655296,114.136391 62.453739,110.579849 
	C53.808800,109.254677 45.167774,107.903976 36.214169,106.516762 
	C36.214169,97.604347 36.214169,88.342392 36.214169,78.540115 
	C40.031517,78.540115 43.626793,78.540115 47.515564,78.540115 
	C47.737473,76.782387 47.898148,75.518456 48.056461,74.254227 
	C49.012630,66.618637 53.112991,62.367023 60.779652,61.078434 
	C63.241791,60.664604 65.740372,60.413860 68.166069,59.847691 
	C73.796455,58.533520 75.243286,54.087029 71.582283,49.634979 
	C63.089062,39.306606 65.074097,23.275583 75.715775,17.926449 
	C82.898048,14.316224 90.156700,14.898176 96.311958,20.076599 
	C102.941025,25.653639 103.448296,33.383907 101.499382,41.175495 
	C100.722809,44.280163 98.789986,47.229656 96.876785,49.884632 
	C93.994286,53.884743 94.936363,58.107220 99.628983,59.600163 
	C101.826721,60.299366 104.185532,60.514767 106.483200,60.873531 
	C116.701424,62.469036 120.585289,66.851982 120.884056,77.160622 
	C120.917496,78.314529 121.004707,79.466873 120.992889,79.248055 
	C125.204536,83.538887 128.624390,87.023041 132.021332,90.896866 
M94.292458,29.262598 
	C92.638741,29.782625 90.985023,30.302654 88.489067,30.785023 
	C82.459381,30.431665 76.429695,30.078308 70.206474,29.713608 
	C68.910378,35.700405 69.591270,41.814133 73.640533,47.201515 
	C79.304558,54.737289 89.137711,55.006104 94.845795,47.518642 
	C99.679855,41.177670 100.842522,34.060902 97.055962,25.930471 
	C90.585640,16.835892 77.014740,16.654390 72.500183,25.637058 
	C78.270638,28.716171 84.284073,28.367008 90.446266,27.170307 
	C92.149986,26.839441 94.977257,24.969534 95.027534,29.013609 
	C95.027534,29.013609 95.017883,29.159952 94.292458,29.262598 
M126.473671,93.931572 
	C127.344589,92.846275 128.215515,91.760979 129.086426,90.675690 
	C126.773323,90.027725 125.037155,90.277039 123.415359,90.850090 
	C119.340012,92.290077 115.337128,93.934319 111.267952,95.392738 
	C100.305130,99.321877 89.114326,101.409225 77.464767,99.199097 
	C76.447876,99.006172 75.524666,98.319382 74.557945,97.861984 
	C74.693916,97.340950 74.829887,96.819916 74.965866,96.298882 
	C76.453285,96.390327 77.942261,96.579338 79.427849,96.555687 
	C84.736504,96.471130 90.086067,96.655045 95.330009,96.007408 
	C97.266808,95.768211 100.278503,93.685089 100.487488,92.131821 
	C100.967720,88.562431 97.701195,88.286858 94.909256,88.298492 
	C87.683998,88.328606 80.981537,86.574532 74.076912,84.236954 
	C67.091537,81.872032 59.259884,82.006775 51.205109,80.970131 
	C51.205109,89.222450 51.094612,96.020782 51.327194,102.807373 
	C51.361118,103.797157 52.886692,105.343651 53.967434,105.600647 
	C79.450134,111.660446 103.862915,110.543068 126.473671,93.931572 
M117.342751,81.921646 
	C117.309830,78.957710 117.542252,75.961617 117.187691,73.036667 
	C116.490204,67.282516 112.148567,65.513367 107.239372,64.087021 
	C102.470016,62.701305 99.420395,63.951263 97.290207,68.398476 
	C96.328842,70.405518 94.742027,72.112961 93.293358,74.162323 
	C90.788597,72.277847 88.764778,70.755219 86.352463,68.940292 
	C86.352463,74.606606 86.352463,79.618408 86.352463,84.592056 
	C90.996391,84.991150 95.728287,84.332817 99.390388,86.010147 
	C103.099014,87.708786 105.860794,87.305641 109.075729,85.953743 
	C111.671326,84.862282 114.256950,83.747093 117.342751,81.921646 
M67.139153,63.266823 
	C64.845154,63.668037 62.516037,63.929703 60.263687,64.496429 
	C53.293831,66.250168 50.623604,70.470871 51.650448,77.238754 
	C62.131798,78.999207 72.459564,80.733864 82.615402,82.439644 
	C82.615402,78.803398 82.615402,74.097328 82.615402,68.765434 
	C80.050293,70.746353 78.011253,72.321007 75.663818,74.133827 
	C72.917267,70.391907 70.385635,66.942787 67.139153,63.266823 
M48.125652,96.423271 
	C48.125652,91.500008 48.125652,86.576744 48.125652,81.519241 
	C44.753990,81.519241 42.171604,81.519241 39.380589,81.519241 
	C39.380589,89.303818 39.380589,96.831207 39.380589,104.471329 
	C42.316872,104.471329 44.900982,104.471329 47.482567,104.471329 
	C47.725430,103.783989 48.005283,103.335617 48.024834,102.876175 
	C48.102562,101.049507 48.099060,99.219391 48.125652,96.423271 
M87.715767,55.670994 
	C84.340508,55.670994 80.965256,55.670994 76.654617,55.670994 
	C77.048637,56.449295 77.398178,57.954617 78.333641,58.842934 
	C81.904243,62.233585 85.795265,63.708912 89.732994,59.374866 
	C90.839058,58.157490 91.534393,56.566940 92.418121,55.147560 
	C92.039658,54.904499 91.661201,54.661442 91.282745,54.418381 
	C90.342094,54.737091 89.401451,55.055798 87.715767,55.670994 
M108.556877,93.090393 
	C113.592484,90.995918 119.746429,90.782707 122.655396,84.968681 
	C117.042068,86.109398 111.805435,87.981003 106.679382,90.117889 
	C105.578636,90.576744 104.877777,91.994896 103.992714,92.971146 
	C105.258232,93.091675 106.523743,93.212212 108.556877,93.090393 
M76.428741,61.382111 
	C74.767334,61.496567 73.105927,61.611023 70.678200,61.778275 
	C72.927322,65.025490 74.495308,67.289299 76.265564,69.845154 
	C78.238838,68.088181 79.848679,66.654808 81.737267,64.973236 
	C79.700661,63.604210 78.346458,62.693905 76.428741,61.382111 
M95.337723,65.900993 
	C96.219284,64.342209 98.648232,61.925587 95.499992,61.409496 
	C92.996124,60.999031 90.065506,63.191830 86.466614,64.553398 
	C89.269325,66.900078 90.843590,68.218193 92.549637,69.646645 
	C93.531288,68.348862 94.224060,67.432983 95.337723,65.900993 
z"/>
<path fill="#040708" opacity="1.000000" stroke="none" 
	d="
M126.191162,94.166664 
	C103.862915,110.543068 79.450134,111.660446 53.967434,105.600647 
	C52.886692,105.343651 51.361118,103.797157 51.327194,102.807373 
	C51.094612,96.020782 51.205109,89.222450 51.205109,80.970131 
	C59.259884,82.006775 67.091537,81.872032 74.076912,84.236954 
	C80.981537,86.574532 87.683998,88.328606 94.909256,88.298492 
	C97.701195,88.286858 100.967720,88.562431 100.487488,92.131821 
	C100.278503,93.685089 97.266808,95.768211 95.330009,96.007408 
	C90.086067,96.655045 84.736504,96.471130 79.427849,96.555687 
	C77.942261,96.579338 76.453285,96.390327 74.965866,96.298882 
	C74.829887,96.819916 74.693916,97.340950 74.557945,97.861984 
	C75.524666,98.319382 76.447876,99.006172 77.464767,99.199097 
	C89.114326,101.409225 100.305130,99.321877 111.267952,95.392738 
	C115.337128,93.934319 119.340012,92.290077 123.415359,90.850090 
	C125.037155,90.277039 126.773323,90.027725 129.086426,90.675690 
	C128.215515,91.760979 127.344589,92.846275 126.191162,94.166664 
z"/>
<path fill="#040707" opacity="1.000000" stroke="none" 
	d="
M117.094879,82.282043 
	C114.256950,83.747093 111.671326,84.862282 109.075729,85.953743 
	C105.860794,87.305641 103.099014,87.708786 99.390388,86.010147 
	C95.728287,84.332817 90.996391,84.991150 86.352463,84.592056 
	C86.352463,79.618408 86.352463,74.606606 86.352463,68.940292 
	C88.764778,70.755219 90.788597,72.277847 93.293358,74.162323 
	C94.742027,72.112961 96.328842,70.405518 97.290207,68.398476 
	C99.420395,63.951263 102.470016,62.701305 107.239372,64.087021 
	C112.148567,65.513367 116.490204,67.282516 117.187691,73.036667 
	C117.542252,75.961617 117.309830,78.957710 117.094879,82.282043 
z"/>
<path fill="#030506" opacity="1.000000" stroke="none" 
	d="
M97.196167,26.587038 
	C100.842522,34.060902 99.679855,41.177670 94.845795,47.518642 
	C89.137711,55.006104 79.304558,54.737289 73.640533,47.201515 
	C69.591270,41.814133 68.910378,35.700405 70.206474,29.713608 
	C76.429695,30.078308 82.459381,30.431665 89.332550,30.843451 
	C91.789986,30.321236 93.403931,29.740593 95.017883,29.159952 
	C95.017883,29.159952 95.027534,29.013609 95.393326,28.871710 
	C96.238129,28.015553 96.717148,27.301294 97.196167,26.587038 
z"/>
<path fill="#05090A" opacity="1.000000" stroke="none" 
	d="
M67.496582,63.380249 
	C70.385635,66.942787 72.917267,70.391907 75.663818,74.133827 
	C78.011253,72.321007 80.050293,70.746353 82.615402,68.765434 
	C82.615402,74.097328 82.615402,78.803398 82.615402,82.439644 
	C72.459564,80.733864 62.131798,78.999207 51.650448,77.238754 
	C50.623604,70.470871 53.293831,66.250168 60.263687,64.496429 
	C62.516037,63.929703 64.845154,63.668037 67.496582,63.380249 
z"/>
<path fill="#081011" opacity="1.000000" stroke="none" 
	d="
M48.125648,96.906906 
	C48.099060,99.219391 48.102562,101.049507 48.024834,102.876175 
	C48.005283,103.335617 47.725430,103.783989 47.482567,104.471329 
	C44.900982,104.471329 42.316872,104.471329 39.380589,104.471329 
	C39.380589,96.831207 39.380589,89.303818 39.380589,81.519241 
	C42.171604,81.519241 44.753990,81.519241 48.125652,81.519241 
	C48.125652,86.576744 48.125652,91.500008 48.125648,96.906906 
z"/>
<path fill="#080F10" opacity="1.000000" stroke="none" 
	d="
M97.126060,26.258755 
	C96.717148,27.301294 96.238129,28.015553 95.466484,28.876675 
	C94.977257,24.969534 92.149986,26.839441 90.446266,27.170307 
	C84.284073,28.367008 78.270638,28.716171 72.500183,25.637058 
	C77.014740,16.654390 90.585640,16.835892 97.126060,26.258755 
z"/>
<path fill="#081214" opacity="1.000000" stroke="none" 
	d="
M88.088287,55.522751 
	C89.401451,55.055798 90.342094,54.737091 91.282745,54.418381 
	C91.661201,54.661442 92.039658,54.904499 92.418121,55.147560 
	C91.534393,56.566940 90.839058,58.157490 89.732994,59.374866 
	C85.795265,63.708912 81.904243,62.233585 78.333641,58.842934 
	C77.398178,57.954617 77.048637,56.449295 76.654617,55.670994 
	C80.965256,55.670994 84.340508,55.670994 88.088287,55.522751 
z"/>
<path fill="#0C1719" opacity="1.000000" stroke="none" 
	d="
M108.173065,93.211571 
	C106.523743,93.212212 105.258232,93.091675 103.992706,92.971146 
	C104.877777,91.994896 105.578636,90.576744 106.679382,90.117889 
	C111.805435,87.981003 117.042068,86.109398 122.655396,84.968681 
	C119.746429,90.782707 113.592484,90.995918 108.173065,93.211571 
z"/>
<path fill="#0A1416" opacity="1.000000" stroke="none" 
	d="
M76.710495,61.582855 
	C78.346458,62.693905 79.700661,63.604210 81.737267,64.973236 
	C79.848679,66.654808 78.238838,68.088181 76.265564,69.845154 
	C74.495308,67.289299 72.927322,65.025490 70.678200,61.778275 
	C73.105927,61.611023 74.767334,61.496567 76.710495,61.582855 
z"/>
<path fill="#081315" opacity="1.000000" stroke="none" 
	d="
M95.127274,66.209045 
	C94.224060,67.432983 93.531288,68.348862 92.549637,69.646645 
	C90.843590,68.218193 89.269325,66.900078 86.466614,64.553398 
	C90.065506,63.191830 92.996124,60.999031 95.499992,61.409496 
	C98.648232,61.925587 96.219284,64.342209 95.127274,66.209045 
z"/>
<path fill="#080F10" opacity="1.000000" stroke="none" 
	d="
M94.655167,29.211275 
	C93.403931,29.740593 91.789986,30.321236 89.753670,30.862280 
	C90.985023,30.302654 92.638741,29.782625 94.655167,29.211275 
z"/>
</svg>