<svg version="1.1" id="Layer_1" xmlns="http://www.w3.org/2000/svg" xmlns:xlink="http://www.w3.org/1999/xlink" x="0px" y="0px"
	 width="100%" viewBox="0 0 554 450" enable-background="new 0 0 554 450" xml:space="preserve">
<path fill="#000000" opacity="1.000000" stroke="none" 
	d="
M322.000000,451.000000 
	C214.666687,451.000000 107.833382,451.000000 1.000057,451.000000 
	C1.000038,301.000061 1.000038,151.000122 1.000019,1.000138 
	C185.666565,1.000092 370.333130,1.000092 554.999756,1.000046 
	C554.999878,150.999863 554.999878,300.999725 554.999939,450.999786 
	C477.500000,451.000000 400.000000,451.000000 322.000000,451.000000 
M244.999069,373.714935 
	C257.672821,373.845276 270.346558,373.975616 283.297363,374.710999 
	C283.836090,376.131348 284.374817,377.551697 284.231445,379.106995 
	C278.505890,383.331635 272.553009,386.916901 265.302338,388.146820 
	C263.719086,388.415344 262.539703,391.064850 261.174316,392.617798 
	C263.011719,393.412903 264.857422,394.909332 266.685181,394.887787 
	C277.474243,394.760620 288.263000,394.357666 299.040405,393.818604 
	C300.344727,393.753357 302.621704,392.369659 302.669952,391.498535 
	C302.896454,387.407349 302.716675,383.186737 298.255951,380.259552 
	C297.871979,379.112640 297.488007,377.965729 297.107178,376.051300 
	C297.066437,375.032715 297.025726,374.014130 297.829254,372.906311 
	C301.583771,372.355865 305.346527,371.856293 309.091461,371.246887 
	C339.293732,366.332123 367.891266,357.232605 392.837708,338.792603 
	C395.486664,336.834595 397.705322,334.294495 399.994354,332.005615 
	C399.994354,332.005615 399.975922,332.134888 400.552917,332.243866 
	C400.589020,331.861450 400.625122,331.479034 401.061066,330.491119 
	C407.416107,324.108429 413.771179,317.725739 420.687714,310.912903 
	C432.421692,293.050568 442.343109,274.311462 445.814514,252.964493 
	C449.959045,227.478531 438.846008,213.783417 418.934937,205.003418 
	C418.934937,205.003418 418.854706,205.040176 418.722351,204.769318 
	C418.571777,204.589798 418.389862,204.548492 417.554504,204.148529 
	C410.106659,201.876678 402.658844,199.604843 394.531311,197.070496 
	C387.317413,195.381180 380.103485,193.691849 372.797760,191.068634 
	C372.919281,186.184555 373.126526,181.300415 373.123322,176.416428 
	C373.121887,174.238174 372.786011,171.879425 369.075073,174.814850 
	C360.743317,174.762711 352.411560,174.710571 344.274384,174.043503 
	C346.193970,172.289047 348.352814,170.732376 349.993439,168.747345 
	C359.181183,157.631058 351.558533,139.693710 338.073212,133.783173 
	C331.523956,130.912659 326.607544,126.857452 322.824646,120.903633 
	C316.245148,110.548279 306.574615,107.083534 294.532013,109.659660 
	C286.208954,111.440125 279.693115,115.990692 273.052460,120.996185 
	C268.768188,116.159309 264.803040,110.985672 260.131073,106.557884 
	C251.270554,98.160469 242.004959,90.190514 232.574738,81.460152 
	C205.744431,62.423180 178.461929,63.877682 150.069733,79.904625 
	C147.627655,80.268288 145.185638,80.946014 142.743484,80.946533 
	C120.786163,80.951233 98.828545,80.748711 76.871643,80.815025 
	C70.798866,80.833366 64.728195,81.547585 57.994644,82.092331 
	C53.394390,85.076996 53.729576,89.618683 54.046143,95.100143 
	C54.035751,110.848358 54.009117,126.596588 54.022312,142.344788 
	C54.028259,149.442749 57.088425,152.710999 64.185921,152.942642 
	C69.482544,153.115509 74.789299,152.977692 80.008369,153.714066 
	C79.843788,154.182648 79.706276,154.662857 79.510742,155.118134 
	C69.236763,179.040421 66.011032,203.992828 69.171677,229.722504 
	C71.935333,252.220474 79.148926,273.292816 90.705879,292.852386 
	C104.500610,316.199249 122.488029,335.458832 146.458176,348.434235 
	C171.848022,362.178223 199.626831,368.246307 227.882660,372.857208 
	C227.248260,373.576355 226.752731,374.628601 225.956863,374.960449 
	C220.935593,377.053986 215.756607,378.792847 210.837616,381.093414 
	C209.372864,381.778442 208.575699,383.890839 207.472672,385.349243 
	C208.910461,385.891083 210.342438,386.883057 211.786972,386.901642 
	C221.110657,387.021667 230.437134,386.900055 239.762573,386.920685 
	C243.432266,386.928833 245.493484,385.548828 244.985611,381.551361 
	C244.652481,378.929260 244.371872,376.300446 244.999069,373.714935 
M470.298218,113.142258 
	C440.673645,113.142120 411.049042,113.131310 381.424469,113.150116 
	C374.899536,113.154259 373.110718,114.954453 373.091187,121.404686 
	C373.068024,129.060410 373.055878,136.716400 373.094971,144.371994 
	C373.125214,150.297333 374.911530,152.183945 380.817657,152.191849 
	C411.607178,152.233017 442.396820,152.232574 473.186340,152.191132 
	C478.693451,152.183716 480.760834,150.113968 480.823212,144.676971 
	C480.907196,137.355011 480.851959,130.031342 480.842072,122.708435 
	C480.831085,114.590019 479.424194,113.196381 470.298218,113.142258 
M293.490723,36.424950 
	C280.509369,36.426609 267.527954,36.406342 254.546692,36.438774 
	C247.599884,36.456127 246.151001,37.957455 246.124786,45.053490 
	C246.097733,52.376205 246.118484,59.699097 246.118790,67.021912 
	C246.119141,75.949776 246.237946,76.113541 254.957275,78.580193 
	C254.957275,82.361343 254.957275,86.315216 254.957275,91.325027 
	C258.808899,87.395943 262.008667,84.466110 264.796509,81.186157 
	C267.189331,78.370895 269.914459,77.570824 273.514221,77.646164 
	C283.994598,77.865517 294.482819,77.774025 304.967316,77.705673 
	C310.848663,77.667343 312.894012,75.725426 312.942963,69.995041 
	C313.018280,61.176365 312.969208,52.355083 312.842102,43.536797 
	C312.764893,38.178383 310.991699,36.544231 305.468964,36.439457 
	C301.808868,36.370022 298.146393,36.425457 293.490723,36.424950 
M444.181793,80.180908 
	C431.302155,78.651337 420.058777,74.616310 413.149109,62.328358 
	C410.295929,57.254383 404.876740,56.159271 399.116577,56.830002 
	C392.565765,57.592793 387.756683,61.308849 383.245178,65.594673 
	C378.247284,70.342476 372.825287,72.693863 366.054382,69.390984 
	C364.878662,68.817467 363.512634,68.611008 362.217133,68.309692 
	C350.029480,65.475075 337.405273,71.426376 332.677094,81.949715 
	C371.093842,81.949715 409.661896,81.949715 448.229980,81.949715 
	C448.241272,81.691978 448.252563,81.434250 448.263855,81.176514 
	C447.150513,80.893089 446.037140,80.609665 444.181793,80.180908 
z"/>
<path fill="#3E435D" opacity="1.000000" stroke="none" 
	d="
M296.984985,372.995544 
	C297.025726,374.014130 297.066437,375.032715 296.674561,376.523682 
	C292.753204,377.661194 289.264496,378.326324 285.560059,378.993652 
	C285.344330,378.995880 284.913513,378.972046 284.913513,378.972046 
	C284.374817,377.551697 283.836090,376.131348 283.185730,374.033264 
	C282.086456,371.141663 281.098846,368.927826 280.054810,366.362915 
	C274.918030,354.427582 269.907562,342.811951 264.734131,331.269379 
	C260.938995,322.801971 256.930206,314.430328 252.997543,305.636200 
	C250.252167,298.692413 247.461823,292.154083 244.816086,285.557800 
	C241.623505,277.598083 243.752090,270.465393 250.798386,266.165314 
	C265.500641,257.193085 280.309631,248.395905 295.030975,239.454727 
	C297.820099,237.760696 300.406525,235.732971 303.544983,233.907227 
	C315.025146,234.011398 326.046753,234.067581 337.129517,234.471725 
	C339.337463,240.284470 342.245880,245.583893 343.475494,251.247772 
	C346.184753,263.727142 339.421600,275.199585 327.244720,279.057343 
	C320.147675,281.305725 312.781189,282.933472 305.416046,284.048920 
	C295.763031,285.510803 285.991730,286.191681 276.188202,287.217163 
	C275.680145,290.809540 275.978516,292.956635 280.267914,292.844666 
	C299.073151,292.353851 317.888489,292.231689 336.691589,291.682678 
	C349.987671,291.294464 358.747986,282.869232 360.114899,269.708038 
	C361.714050,254.311111 363.237701,238.906326 364.844116,223.510162 
	C366.536255,207.292770 368.287445,191.081528 370.012848,174.867599 
	C372.786011,171.879425 373.121887,174.238174 373.123322,176.416428 
	C373.126526,181.300415 372.919281,186.184555 372.557312,191.813309 
	C371.704926,198.662842 371.023743,204.761703 370.494263,210.873703 
	C368.989258,228.247574 367.546112,245.626816 365.978943,263.412659 
	C365.657227,265.303589 365.389343,266.780609 365.220184,268.268860 
	C363.245148,285.645325 355.863464,293.599243 338.570892,296.449524 
	C329.782532,296.233185 321.386078,296.104065 312.723236,295.730072 
	C310.641174,295.649963 308.825500,295.814697 306.540833,295.967346 
	C296.803467,295.955231 287.535065,295.955231 277.624878,295.955231 
	C278.729584,300.587189 279.793732,305.238556 280.950653,309.866760 
	C285.629242,328.583282 290.336395,347.292694 295.012909,366.384338 
	C295.656860,368.841125 296.320923,370.918335 296.984985,372.995544 
z"/>
<path fill="#CFE8E6" opacity="1.000000" stroke="none" 
	d="
M80.091545,152.978241 
	C74.789299,152.977692 69.482544,153.115509 64.185921,152.942642 
	C57.088425,152.710999 54.028259,149.442749 54.022312,142.344788 
	C54.009117,126.596588 54.035751,110.848358 54.568832,94.648468 
	C99.372925,94.187607 143.654327,94.178421 187.954651,94.627007 
	C187.991135,110.222878 188.017822,125.360977 188.022873,140.499084 
	C188.025879,149.528931 185.800827,152.061295 176.540100,153.045013 
	C145.436935,152.987106 114.795708,153.016968 83.748276,153.030396 
	C82.258560,153.002060 81.175056,152.990143 80.091545,152.978241 
M100.910492,104.985710 
	C99.623711,104.001328 98.367447,102.215942 97.045074,102.165565 
	C89.732040,101.886978 82.402565,102.071892 75.079460,102.010452 
	C72.099556,101.985466 70.896729,103.362381 70.935074,106.273026 
	C71.009621,111.931198 71.032570,117.592598 70.921005,123.249588 
	C70.865852,126.045914 72.012665,127.092476 74.771080,127.054054 
	C81.926880,126.954376 89.086746,126.928917 96.241455,127.062691 
	C99.637581,127.126183 101.095726,125.832275 101.003738,122.375725 
	C100.857666,116.886818 100.959641,111.391312 100.910492,104.985710 
M108.500000,138.985626 
	C127.464516,138.985443 146.429092,139.007828 165.393448,138.954742 
	C167.611221,138.948532 170.603226,139.753723 170.691284,135.591431 
	C136.758652,135.591431 103.061295,135.591431 69.363937,135.591431 
	C69.217094,136.205612 69.070251,136.819809 68.923401,137.433990 
	C70.636459,137.950714 72.344330,138.894012 74.063416,138.914902 
	C85.207581,139.050430 96.354195,138.985107 108.500000,138.985626 
M128.500214,120.956192 
	C121.715439,120.956192 114.930656,120.956192 108.145882,120.956192 
	C108.065247,121.748306 107.984619,122.540421 107.903984,123.332527 
	C109.381660,123.875374 110.856567,124.881706 112.337433,124.890549 
	C130.462006,124.998779 148.587753,125.003548 166.712158,124.881065 
	C168.194244,124.871040 169.668701,123.735329 171.146713,123.122681 
	C170.958801,122.400475 170.770889,121.678261 170.582977,120.956055 
	C156.888702,120.956055 143.194427,120.956055 128.500214,120.956192 
M148.107025,107.937355 
	C147.834793,107.750366 147.564178,107.402328 147.290085,107.399559 
	C135.159378,107.276779 123.028145,107.133858 110.897942,107.192863 
	C110.010529,107.197174 109.130356,108.689056 108.246811,109.489334 
	C109.330383,110.000992 110.409706,110.946648 111.498192,110.957314 
	C122.645271,111.066559 133.794983,111.096931 144.940292,110.918587 
	C146.141266,110.899368 147.318939,109.422279 148.107025,107.937355 
z"/>
<path fill="#01AECF" opacity="1.000000" stroke="none" 
	d="
M232.907639,82.042999 
	C242.004959,90.190514 251.270554,98.160469 260.131073,106.557884 
	C264.803040,110.985672 268.768188,116.159309 273.396912,121.580994 
	C273.641418,125.481018 271.905914,128.761536 275.049530,131.977844 
	C276.917816,133.889359 278.467621,137.006271 278.510132,139.608215 
	C278.582245,144.018707 277.788177,148.574615 276.581451,152.850174 
	C272.942719,165.742935 275.348785,170.855377 288.032654,175.726044 
	C288.446960,176.266388 288.720215,176.629028 288.746979,177.247040 
	C287.152008,181.059753 285.751404,184.598511 284.474396,188.181335 
	C283.700623,190.352264 283.355408,192.498978 286.342987,193.625092 
	C284.661560,200.123627 282.938019,206.214920 281.537964,212.379654 
	C280.923767,215.083939 279.662506,216.179565 276.909790,216.532974 
	C270.653046,217.336212 264.444733,218.516602 258.004913,219.497009 
	C257.487915,219.472565 257.226105,219.590958 256.545532,219.759445 
	C252.386154,219.949539 248.688950,220.185684 244.835815,220.073257 
	C239.583679,205.884155 234.487457,192.043625 229.752304,177.939972 
	C230.408890,175.751434 230.940552,173.828598 230.961624,171.900208 
	C231.097961,159.420959 231.123001,146.940506 231.450256,134.703049 
	C232.888870,136.581161 234.061768,138.216675 235.224808,139.838409 
	C236.957596,137.448563 238.479782,135.349167 240.031815,133.208618 
	C238.422928,131.056564 236.716583,128.774170 235.077011,126.581070 
	C233.732849,128.462036 232.526352,130.150330 231.245361,131.322021 
	C231.115875,116.563301 230.985382,102.320648 231.091522,88.079765 
	C231.106552,86.063103 232.273727,84.055038 232.907639,82.042999 
z"/>
<path fill="#01B6C9" opacity="1.000000" stroke="none" 
	d="
M232.741180,81.751572 
	C232.273727,84.055038 231.106552,86.063103 231.091522,88.079765 
	C230.985382,102.320648 231.115875,116.563301 231.108810,131.508179 
	C231.092682,132.960785 231.138596,133.710617 231.184509,134.460449 
	C231.123001,146.940506 231.097961,159.420959 230.961624,171.900208 
	C230.940552,173.828598 230.408890,175.751434 229.527924,177.686127 
	C226.953506,177.169632 224.964523,176.643845 222.514313,176.037231 
	C207.702286,175.851807 193.351486,175.747177 178.996170,175.237000 
	C178.328445,167.598557 177.665237,160.365677 177.002029,153.132782 
	C185.800827,152.061295 188.025879,149.528931 188.022873,140.499084 
	C188.017822,125.360977 187.991135,110.222878 187.974899,94.174011 
	C187.596405,89.673134 189.521957,85.424019 184.853455,82.774597 
	C184.106888,82.358711 183.550919,82.173569 182.997162,81.994781 
	C182.999390,82.001144 183.012665,81.999252 182.698608,81.723831 
	C173.704330,81.293304 165.021835,81.207489 156.345642,80.927361 
	C154.506439,80.867981 152.690170,80.099045 150.863327,79.657028 
	C178.461929,63.877682 205.744431,62.423180 232.741180,81.751572 
z"/>
<path fill="#0195E3" opacity="1.000000" stroke="none" 
	d="
M366.078674,263.003937 
	C367.546112,245.626816 368.989258,228.247574 370.494263,210.873703 
	C371.023743,204.761703 371.704926,198.662842 372.603210,192.280243 
	C380.103485,193.691849 387.317413,195.381180 394.820068,197.696686 
	C395.037598,206.991287 395.055542,215.661606 394.869720,224.327545 
	C394.687988,232.803879 394.183472,241.274231 394.069580,249.750534 
	C394.034882,252.332703 394.824921,254.925980 395.184387,257.845581 
	C394.358093,259.340576 393.584656,260.504120 392.990692,261.397675 
	C393.863525,262.941498 394.565979,264.184021 395.101044,265.817261 
	C394.660950,267.647705 394.123596,269.094086 394.159790,270.526001 
	C394.352753,278.156830 394.967163,285.785980 394.912842,293.411987 
	C394.824707,305.782043 394.294189,318.148560 394.066925,330.518677 
	C394.045166,331.702087 394.846069,332.900604 395.059265,334.373810 
	C392.473541,336.181427 390.218140,337.965942 387.689484,339.182678 
	C381.205627,342.302582 374.600403,345.170258 368.034363,347.716492 
	C368.020935,341.873016 367.907898,336.449188 368.036682,331.031158 
	C368.263641,321.484955 368.907440,311.941528 368.882416,302.398254 
	C368.851532,290.607178 368.375122,278.815216 367.919403,267.030243 
	C367.866699,265.666473 366.718811,264.345001 366.078674,263.003937 
z"/>
<path fill="#DCDFED" opacity="1.000000" stroke="none" 
	d="
M369.543945,174.841217 
	C368.287445,191.081528 366.536255,207.292770 364.844116,223.510162 
	C363.237701,238.906326 361.714050,254.311111 360.114899,269.708038 
	C358.747986,282.869232 349.987671,291.294464 336.691589,291.682678 
	C317.888489,292.231689 299.073151,292.353851 280.267914,292.844666 
	C275.978516,292.956635 275.680145,290.809540 276.188202,287.217163 
	C285.991730,286.191681 295.763031,285.510803 305.416046,284.048920 
	C312.781189,282.933472 320.147675,281.305725 327.244720,279.057343 
	C339.421600,275.199585 346.184753,263.727142 343.475494,251.247772 
	C342.245880,245.583893 339.337463,240.284470 337.274841,234.092026 
	C341.058746,214.108505 340.529755,194.709534 339.718750,175.204407 
	C341.434937,174.966904 342.757355,174.812653 344.079803,174.658417 
	C352.411560,174.710571 360.743317,174.762711 369.543945,174.841217 
z"/>
<path fill="#C3DDDF" opacity="1.000000" stroke="none" 
	d="
M470.766907,113.142197 
	C479.424194,113.196381 480.831085,114.590019 480.842072,122.708435 
	C480.851959,130.031342 480.907196,137.355011 480.823212,144.676971 
	C480.760834,150.113968 478.693451,152.183716 473.186340,152.191132 
	C442.396820,152.232574 411.607178,152.233017 380.817657,152.191849 
	C374.911530,152.183945 373.125214,150.297333 373.094971,144.371994 
	C373.055878,136.716400 373.068024,129.060410 373.091187,121.404686 
	C373.110718,114.954453 374.899536,113.154259 381.424469,113.150116 
	C411.049042,113.131310 440.673645,113.142120 470.766907,113.142197 
M469.009430,130.540863 
	C468.910095,120.949280 470.114166,122.005821 460.535278,121.926643 
	C459.536316,121.918388 458.537262,121.925529 457.538239,121.925529 
	C445.895203,121.925529 445.866058,121.925621 445.903259,133.369675 
	C445.942108,145.314896 444.674103,144.029892 456.634827,143.973022 
	C470.982330,143.904816 468.808960,145.946915 469.009430,130.540863 
M420.499268,126.059685 
	C426.596222,125.868881 432.761139,126.479141 438.805664,125.670601 
	C438.772797,125.032524 438.739960,124.394440 438.707092,123.756363 
	C420.905548,123.756363 403.104004,123.756363 385.302460,123.756363 
	C385.282593,124.461433 385.262726,125.166504 385.242859,125.871567 
	C396.646637,126.272171 408.082336,125.959183 420.499268,126.059685 
M408.537933,142.071838 
	C418.612854,141.952805 428.712982,142.323090 438.738770,141.251678 
	C435.188843,138.282578 401.547333,138.341034 398.244171,142.072052 
	C401.348083,142.072052 404.451996,142.072052 408.537933,142.071838 
M403.300476,134.070877 
	C405.148224,133.810074 406.996002,133.549271 408.843750,133.288483 
	C403.506683,129.863037 387.725739,130.550323 385.013397,134.071152 
	C391.199066,134.071152 396.774658,134.071152 403.300476,134.070877 
M433.301514,134.070740 
	C435.142670,133.809174 436.983826,133.547623 438.824982,133.286057 
	C433.559143,129.893173 420.757416,130.537598 418.064972,134.071121 
	C423.235779,134.071121 427.795013,134.071121 433.301514,134.070740 
z"/>
<path fill="#008DE9" opacity="1.000000" stroke="none" 
	d="
M395.237244,257.514160 
	C394.824921,254.925980 394.034882,252.332703 394.069580,249.750534 
	C394.183472,241.274231 394.687988,232.803879 394.869720,224.327545 
	C395.055542,215.661606 395.037598,206.991287 395.159912,197.827942 
	C402.658844,199.604843 410.106659,201.876678 417.970825,204.472717 
	C418.535095,204.893143 418.690948,204.974228 418.854706,205.040176 
	C418.854706,205.040176 418.934937,205.003418 419.029449,205.450226 
	C419.415985,208.346024 419.955261,210.794266 419.962616,213.244110 
	C420.060608,245.943634 420.084167,278.643372 420.126221,311.343079 
	C413.771179,317.725739 407.416107,324.108429 400.733459,330.958069 
	C400.238647,331.647125 400.095337,331.883759 399.975922,332.134888 
	C399.975922,332.134888 399.994354,332.005615 399.705200,331.993286 
	C398.032410,332.684692 396.648743,333.388397 395.265076,334.092102 
	C394.846069,332.900604 394.045166,331.702087 394.066925,330.518677 
	C394.294189,318.148560 394.824707,305.782043 394.912842,293.411987 
	C394.967163,285.785980 394.352753,278.156830 394.159790,270.526001 
	C394.123596,269.094086 394.660950,267.647705 395.398499,265.755707 
	C397.294861,264.323212 398.726379,263.342957 400.146210,262.370728 
	C398.237091,260.115326 397.232025,258.886047 396.166595,257.711487 
	C395.994019,257.521271 395.553772,257.573822 395.237244,257.514160 
z"/>
<path fill="#E9EBEB" opacity="1.000000" stroke="none" 
	d="
M80.049957,153.346161 
	C81.175056,152.990143 82.258560,153.002060 83.666283,153.398376 
	C81.353058,164.386154 77.683998,174.854156 76.271675,185.618271 
	C72.039764,217.871704 78.496391,248.505005 93.217552,277.290924 
	C103.613235,297.618713 117.340012,315.457764 136.118958,329.424133 
	C149.544083,339.691132 163.963242,347.392578 180.327484,352.087708 
	C190.179245,354.820312 199.706772,357.364227 209.494934,359.984741 
	C210.286041,360.154327 210.816513,360.247253 211.708618,360.543884 
	C218.670929,361.848999 225.271591,362.950439 231.989319,364.440002 
	C232.398041,366.895386 232.689697,368.962585 232.930115,371.433746 
	C232.868576,372.108917 232.858261,372.380157 232.457642,372.505127 
	C230.696884,372.297150 229.326431,372.235443 227.955963,372.173767 
	C199.626831,368.246307 171.848022,362.178223 146.458176,348.434235 
	C122.488029,335.458832 104.500610,316.199249 90.705879,292.852386 
	C79.148926,273.292816 71.935333,252.220474 69.171677,229.722504 
	C66.011032,203.992828 69.236763,179.040421 79.510742,155.118134 
	C79.706276,154.662857 79.843788,154.182648 80.049957,153.346161 
z"/>
<path fill="#292D3D" opacity="1.000000" stroke="none" 
	d="
M344.177094,174.350952 
	C342.757355,174.812653 341.434937,174.966904 339.649597,174.788895 
	C338.117798,165.624481 332.523804,160.097260 323.620728,159.084503 
	C320.986145,158.784805 318.349762,158.500702 315.534912,157.848297 
	C314.769470,153.615189 314.183350,149.743225 313.618896,145.517822 
	C314.548981,144.331268 315.630920,143.621140 316.327637,142.638016 
	C317.567230,140.888870 319.317078,139.015427 319.421875,137.115021 
	C319.494415,135.800049 317.232086,133.305054 315.888000,133.215591 
	C313.986359,133.089005 311.889557,134.557251 310.043701,135.631683 
	C309.367737,136.025116 309.170105,137.240265 308.307404,138.983582 
	C307.417877,135.877991 306.977081,133.624619 306.124603,131.539566 
	C305.005646,128.802780 303.440674,127.297699 299.984100,128.927811 
	C293.988831,131.755188 287.752411,134.071167 281.082794,136.821960 
	C280.661743,151.490738 287.346802,158.332428 302.130310,157.240143 
	C302.342987,158.599899 302.464203,159.590851 302.203217,160.694489 
	C296.076843,162.908035 292.013123,166.611298 290.157654,172.614548 
	C289.815887,173.720306 288.667572,174.576767 287.891541,175.548309 
	C275.348785,170.855377 272.942719,165.742935 276.581451,152.850174 
	C277.788177,148.574615 278.582245,144.018707 278.510132,139.608215 
	C278.467621,137.006271 276.917816,133.889359 275.049530,131.977844 
	C271.905914,128.761536 273.641418,125.481018 273.647949,121.798607 
	C279.693115,115.990692 286.208954,111.440125 294.532013,109.659660 
	C306.574615,107.083534 316.245148,110.548279 322.824646,120.903633 
	C326.607544,126.857452 331.523956,130.912659 338.073212,133.783173 
	C351.558533,139.693710 359.181183,157.631058 349.993439,168.747345 
	C348.352814,170.732376 346.193970,172.289047 344.177094,174.350952 
z"/>
<path fill="#C3DDDF" opacity="1.000000" stroke="none" 
	d="
M293.987854,36.424969 
	C298.146393,36.425457 301.808868,36.370022 305.468964,36.439457 
	C310.991699,36.544231 312.764893,38.178383 312.842102,43.536797 
	C312.969208,52.355083 313.018280,61.176365 312.942963,69.995041 
	C312.894012,75.725426 310.848663,77.667343 304.967316,77.705673 
	C294.482819,77.774025 283.994598,77.865517 273.514221,77.646164 
	C269.914459,77.570824 267.189331,78.370895 264.796509,81.186157 
	C262.008667,84.466110 258.808899,87.395943 254.957275,91.325027 
	C254.957275,86.315216 254.957275,82.361343 254.957275,78.580193 
	C246.237946,76.113541 246.119141,75.949776 246.118790,67.021912 
	C246.118484,59.699097 246.097733,52.376205 246.124786,45.053490 
	C246.151001,37.957455 247.599884,36.456127 254.546692,36.438774 
	C267.527954,36.406342 280.509369,36.426609 293.987854,36.424969 
M270.531128,51.955158 
	C279.677582,51.954868 288.824860,52.018124 297.969666,51.895489 
	C299.608398,51.873516 301.236816,51.083580 304.157715,50.304962 
	C302.017120,48.926476 301.355225,48.129845 300.687378,48.124809 
	C287.220398,48.023258 273.752563,47.987816 260.285522,48.056263 
	C259.602722,48.059734 258.925293,49.116364 258.245361,49.682632 
	C259.020294,50.403145 259.742706,51.665440 260.579559,51.746498 
	C263.546875,52.033916 266.553223,51.918068 270.531128,51.955158 
M275.447723,60.076019 
	C278.571350,59.873158 281.694946,59.670292 284.818573,59.467430 
	C284.754761,58.682182 284.690979,57.896938 284.627197,57.111691 
	C275.844238,56.877529 267.061523,56.657360 258.291534,57.231823 
	C258.265991,58.179966 258.240448,59.128113 258.214874,60.076256 
	C263.631592,60.076256 269.048279,60.076256 275.447723,60.076019 
M265.533386,65.953918 
	C264.207703,65.956276 262.814789,65.705162 261.575684,66.033890 
	C260.390320,66.348351 259.364868,67.265640 258.269135,67.917953 
	C259.276398,68.585930 260.243469,69.743195 261.298462,69.829872 
	C264.425507,70.086807 267.600861,70.087112 270.727722,69.828926 
	C271.779449,69.742088 272.742279,68.578476 273.745728,67.907005 
	C272.644562,67.258217 271.612701,66.346565 270.423187,66.033066 
	C269.183014,65.706215 267.790894,65.956055 265.533386,65.953918 
z"/>
<path fill="#0086EE" opacity="1.000000" stroke="none" 
	d="
M420.406982,311.127991 
	C420.084167,278.643372 420.060608,245.943634 419.962616,213.244110 
	C419.955261,210.794266 419.415985,208.346024 419.045715,205.491226 
	C438.846008,213.783417 449.959045,227.478531 445.814514,252.964493 
	C442.343109,274.311462 432.421692,293.050568 420.406982,311.127991 
z"/>
<path fill="#CDE4E2" opacity="1.000000" stroke="none" 
	d="
M444.552795,80.253571 
	C446.037140,80.609665 447.150513,80.893089 448.263855,81.176514 
	C448.252563,81.434250 448.241272,81.691978 448.229980,81.949715 
	C409.661896,81.949715 371.093842,81.949715 332.677094,81.949715 
	C337.405273,71.426376 350.029480,65.475075 362.217133,68.309692 
	C363.512634,68.611008 364.878662,68.817467 366.054382,69.390984 
	C372.825287,72.693863 378.247284,70.342476 383.245178,65.594673 
	C387.756683,61.308849 392.565765,57.592793 399.116577,56.830002 
	C404.876740,56.159271 410.295929,57.254383 413.149109,62.328358 
	C420.058777,74.616310 431.302155,78.651337 444.552795,80.253571 
z"/>
<path fill="#02BFD8" opacity="1.000000" stroke="none" 
	d="
M185.044022,83.005333 
	C189.521957,85.424019 187.596405,89.673134 187.955994,93.716248 
	C143.654327,94.178421 99.372925,94.187607 54.633930,94.196182 
	C53.729576,89.618683 53.394390,85.076996 58.822678,82.031601 
	C100.771362,81.980339 141.892014,81.989799 183.012665,81.999252 
	C183.012665,81.999252 182.999390,82.001144 183.183716,82.228516 
	C183.926697,82.639030 184.485367,82.822182 185.044022,83.005333 
z"/>
<path fill="#E3E7E8" opacity="1.000000" stroke="none" 
	d="
M395.059265,334.373810 
	C396.648743,333.388397 398.032410,332.684692 399.769836,332.002686 
	C397.705322,334.294495 395.486664,336.834595 392.837708,338.792603 
	C367.891266,357.232605 339.293732,366.332123 309.091461,371.246887 
	C305.346527,371.856293 301.583771,372.355865 297.407104,372.950928 
	C296.320923,370.918335 295.656860,368.841125 295.437775,366.327637 
	C300.017456,365.416534 304.152130,364.941650 308.571228,364.433167 
	C309.921967,364.224365 310.988312,364.049194 312.457886,363.925812 
	C321.278229,362.249695 329.695312,360.521729 338.534485,358.769470 
	C346.711792,356.324829 354.499207,354.000336 362.201141,351.420715 
	C364.281677,350.723907 366.103271,349.253906 368.043701,348.138763 
	C374.600403,345.170258 381.205627,342.302582 387.689484,339.182678 
	C390.218140,337.965942 392.473541,336.181427 395.059265,334.373810 
z"/>
<path fill="#28303A" opacity="1.000000" stroke="none" 
	d="
M284.572479,379.039520 
	C284.913513,378.972046 285.344330,378.995880 285.648926,379.365845 
	C289.547180,384.896423 294.038025,381.337250 298.197815,380.995697 
	C302.716675,383.186737 302.896454,387.407349 302.669952,391.498535 
	C302.621704,392.369659 300.344727,393.753357 299.040405,393.818604 
	C288.263000,394.357666 277.474243,394.760620 266.685181,394.887787 
	C264.857422,394.909332 263.011719,393.412903 261.174316,392.617798 
	C262.539703,391.064850 263.719086,388.415344 265.302338,388.146820 
	C272.553009,386.916901 278.505890,383.331635 284.572479,379.039520 
z"/>
<path fill="#29313B" opacity="1.000000" stroke="none" 
	d="
M227.919312,372.515503 
	C229.326431,372.235443 230.696884,372.297150 232.686722,372.742432 
	C236.567322,375.350891 239.797592,374.838928 243.235306,373.059723 
	C243.820297,373.123596 244.023682,373.314056 244.067749,373.674652 
	C244.371872,376.300446 244.652481,378.929260 244.985611,381.551361 
	C245.493484,385.548828 243.432266,386.928833 239.762573,386.920685 
	C230.437134,386.900055 221.110657,387.021667 211.786972,386.901642 
	C210.342438,386.883057 208.910461,385.891083 207.472672,385.349243 
	C208.575699,383.890839 209.372864,381.778442 210.837616,381.093414 
	C215.756607,378.792847 220.935593,377.053986 225.956863,374.960449 
	C226.752731,374.628601 227.248260,373.576355 227.919312,372.515503 
z"/>
<path fill="#ECEEEE" opacity="1.000000" stroke="none" 
	d="
M244.533417,373.694794 
	C244.023682,373.314056 243.820297,373.123596 243.223267,372.708496 
	C242.966675,371.846100 242.944412,371.378448 243.011932,370.541107 
	C243.437561,368.692352 243.773407,367.213318 244.567444,365.760315 
	C256.720825,366.095581 268.416016,366.404755 280.111237,366.713959 
	C281.098846,368.927826 282.086456,371.141663 283.047180,373.730713 
	C270.346558,373.975616 257.672821,373.845276 244.533417,373.694794 
z"/>
<path fill="#1CC1D6" opacity="1.000000" stroke="none" 
	d="
M182.698608,81.723831 
	C141.892014,81.989799 100.771362,81.980339 59.153633,81.956703 
	C64.728195,81.547585 70.798866,80.833366 76.871643,80.815025 
	C98.828545,80.748711 120.786163,80.951233 142.743484,80.946533 
	C145.185638,80.946014 147.627655,80.268288 150.466522,79.780823 
	C152.690170,80.099045 154.506439,80.867981 156.345642,80.927361 
	C165.021835,81.207489 173.704330,81.293304 182.698608,81.723831 
z"/>
<path fill="#E5CDAE" opacity="1.000000" stroke="none" 
	d="
M298.226868,380.627625 
	C294.038025,381.337250 289.547180,384.896423 285.864655,379.363647 
	C289.264496,378.326324 292.753204,377.661194 296.672974,376.907440 
	C297.488007,377.965729 297.871979,379.112640 298.226868,380.627625 
z"/>
<path fill="#0086EE" opacity="1.000000" stroke="none" 
	d="
M418.788513,204.904755 
	C418.690948,204.974228 418.535095,204.893143 418.281891,204.721146 
	C418.389862,204.548492 418.571777,204.589798 418.788513,204.904755 
z"/>
<path fill="#E3E7E8" opacity="1.000000" stroke="none" 
	d="
M400.264404,332.189392 
	C400.095337,331.883759 400.238647,331.647125 400.533569,331.260803 
	C400.625122,331.479034 400.589020,331.861450 400.264404,332.189392 
z"/>
<path fill="#30354B" opacity="1.000000" stroke="none" 
	d="
M244.109253,365.734253 
	C243.773407,367.213318 243.437561,368.692352 242.563675,370.551697 
	C239.010864,370.964600 235.996109,370.997192 232.981339,371.029816 
	C232.689697,368.962585 232.398041,366.895386 232.050049,363.984741 
	C231.640656,356.339661 231.316010,349.536346 230.929169,342.736603 
	C229.844040,323.662018 228.855637,304.580658 227.576279,285.518951 
	C227.013550,277.134521 229.417816,270.347260 236.849976,266.082397 
	C244.644043,261.609802 252.602936,257.411407 260.602051,253.312317 
	C272.024658,247.458908 283.549377,241.804794 295.299316,236.075104 
	C295.746765,236.067230 295.925385,236.049805 296.408142,235.974075 
	C297.142303,235.280243 297.572388,234.644699 298.358521,234.000092 
	C299.836670,233.632584 300.958740,233.274155 302.290222,233.023865 
	C302.756104,233.325317 302.951691,233.567703 303.086456,233.859222 
	C300.406525,235.732971 297.820099,237.760696 295.030975,239.454727 
	C280.309631,248.395905 265.500641,257.193085 250.798386,266.165314 
	C243.752090,270.465393 241.623505,277.598083 244.816086,285.557800 
	C247.461823,292.154083 250.252167,298.692413 252.953674,306.044220 
	C252.427353,309.936371 251.891205,313.035614 251.430008,316.145935 
	C248.979401,332.673828 246.547577,349.204529 244.109253,365.734253 
z"/>
<path fill="#047D87" opacity="1.000000" stroke="none" 
	d="
M303.544983,233.907211 
	C302.951691,233.567703 302.756104,233.325317 302.139709,232.816650 
	C301.503632,232.300568 301.227509,232.099854 300.923462,231.564117 
	C300.529541,229.927017 300.163574,228.624908 300.269531,227.240021 
	C304.206207,227.152817 307.762054,227.621201 311.103424,226.977020 
	C313.313934,226.550903 316.263275,224.990601 317.079437,223.142212 
	C321.000122,214.263123 324.307190,205.113129 328.248932,196.045853 
	C329.777344,194.962692 331.559845,194.062851 331.881378,192.793106 
	C333.098663,187.985779 333.849701,183.059906 334.761139,178.175766 
	C335.915039,171.992554 332.921387,166.793152 327.363007,165.301102 
	C322.937988,164.113266 318.030762,167.248306 315.949707,172.763474 
	C313.667938,178.810516 311.520050,184.908081 309.300262,191.020935 
	C310.321838,191.804764 311.219025,192.493134 312.100403,193.569763 
	C310.497955,200.226517 309.053101,206.537216 307.210693,212.729630 
	C306.819733,214.043671 305.126007,215.567307 303.775085,215.879089 
	C300.575348,216.617599 297.221100,216.686386 294.003723,216.588730 
	C293.005371,208.859497 291.932556,201.567444 290.846375,193.842361 
	C290.553986,190.973801 290.269836,188.538849 289.997314,186.102585 
	C289.657654,183.066162 289.327606,180.028687 288.993439,176.991653 
	C288.720215,176.629028 288.446960,176.266388 288.032654,175.726028 
	C288.667572,174.576767 289.815887,173.720306 290.157654,172.614548 
	C292.013123,166.611298 296.076843,162.908035 302.328003,161.043274 
	C303.393219,165.716507 305.679840,168.649124 310.363190,167.911438 
	C314.702545,167.227982 316.110779,163.876938 315.683258,159.697281 
	C315.633148,159.207520 315.701019,158.705673 315.714203,158.209442 
	C318.349762,158.500702 320.986145,158.784805 323.620728,159.084503 
	C332.523804,160.097260 338.117798,165.624481 339.255859,174.872162 
	C340.529755,194.709534 341.058746,214.108505 337.213745,233.744049 
	C326.046753,234.067581 315.025146,234.011398 303.544983,233.907211 
z"/>
<path fill="#019CDE" opacity="1.000000" stroke="none" 
	d="
M368.034363,347.716492 
	C366.103271,349.253906 364.281677,350.723907 362.201141,351.420715 
	C354.499207,354.000336 346.711792,356.324829 338.549805,358.293701 
	C338.428680,355.544128 338.954559,353.246826 338.961700,350.947906 
	C339.017914,332.811035 338.975098,314.673859 338.962769,296.536774 
	C355.863464,293.599243 363.245148,285.645325 365.220184,268.268860 
	C365.389343,266.780609 365.657227,265.303589 365.978973,263.412659 
	C366.718811,264.345001 367.866699,265.666473 367.919403,267.030243 
	C368.375122,278.815216 368.851532,290.607178 368.882416,302.398254 
	C368.907440,311.941528 368.263641,321.484955 368.036682,331.031158 
	C367.907898,336.449188 368.020935,341.873016 368.034363,347.716492 
z"/>
<path fill="#01A1D8" opacity="1.000000" stroke="none" 
	d="
M338.570862,296.449524 
	C338.975098,314.673859 339.017914,332.811035 338.961700,350.947906 
	C338.954559,353.246826 338.428680,355.544128 338.127777,358.317993 
	C329.695312,360.521729 321.278229,362.249695 312.468994,363.465912 
	C312.081421,342.721191 312.059784,322.488068 312.129852,302.255280 
	C312.137115,300.160858 312.689911,298.068329 312.989594,295.974915 
	C321.386078,296.104065 329.782532,296.233185 338.570862,296.449524 
z"/>
<path fill="#01A7D3" opacity="1.000000" stroke="none" 
	d="
M308.286835,364.466797 
	C304.152130,364.941650 300.017456,365.416534 295.457886,365.948059 
	C290.336395,347.292694 285.629242,328.583282 280.950653,309.866760 
	C279.793732,305.238556 278.729584,300.587189 277.624878,295.955231 
	C287.535065,295.955231 296.803467,295.955231 306.581940,296.436218 
	C307.110687,317.383392 307.097260,337.849731 307.197510,358.315552 
	C307.207550,360.367676 307.907227,362.416473 308.286835,364.466797 
z"/>
<path fill="#03AECD" opacity="1.000000" stroke="none" 
	d="
M244.567444,365.760315 
	C246.547577,349.204529 248.979401,332.673828 251.430008,316.145935 
	C251.891205,313.035614 252.427353,309.936371 252.972778,306.424011 
	C256.930206,314.430328 260.938995,322.801971 264.734131,331.269379 
	C269.907562,342.811951 274.918030,354.427582 280.054810,366.362915 
	C268.416016,366.404755 256.720825,366.095581 244.567444,365.760315 
z"/>
<path fill="#374B68" opacity="1.000000" stroke="none" 
	d="
M308.571228,364.433167 
	C307.907227,362.416473 307.207550,360.367676 307.197510,358.315552 
	C307.097260,337.849731 307.110687,317.383392 307.050903,296.448303 
	C308.825500,295.814697 310.641174,295.649963 312.723236,295.730042 
	C312.689911,298.068329 312.137115,300.160858 312.129852,302.255280 
	C312.059784,322.488068 312.081421,342.721191 312.065765,363.414093 
	C310.988312,364.049194 309.921967,364.224365 308.571228,364.433167 
z"/>
<path fill="#01BDC4" opacity="1.000000" stroke="none" 
	d="
M135.959808,329.131683 
	C117.340012,315.457764 103.613235,297.618713 93.217552,277.290924 
	C78.496391,248.505005 72.039764,217.871704 76.271675,185.618271 
	C77.683998,174.854156 81.353058,164.386154 84.072479,153.414825 
	C114.795708,153.016968 145.436935,152.987106 176.540100,153.045013 
	C177.665237,160.365677 178.328445,167.598557 178.537720,175.332184 
	C174.258102,175.858307 170.429977,175.979172 166.607452,175.881271 
	C163.036148,175.789810 161.649902,176.917435 163.046692,180.631348 
	C168.839844,196.034805 174.526810,211.478210 180.238480,227.236206 
	C181.254608,228.940598 182.284988,230.315704 182.833191,231.771790 
	C173.627228,231.874283 164.903473,231.895828 156.230042,231.551315 
	C157.388687,226.750854 158.666687,222.347580 159.489868,217.860870 
	C159.704254,216.692413 158.500198,215.263687 158.115051,213.646698 
	C159.499054,210.161804 160.909149,207.035065 161.760406,203.762939 
	C161.920700,203.146881 159.443390,200.951706 158.879501,201.182983 
	C154.765167,202.870468 153.140610,200.958923 152.056274,197.369171 
	C151.712585,196.231384 150.568802,195.335281 149.383179,193.800476 
	C146.980545,196.726288 144.919708,199.235855 142.740585,201.889481 
	C140.135818,200.966751 137.462082,200.019592 134.599075,199.005386 
	C132.909088,205.793457 134.571075,210.540436 139.491394,213.987091 
	C137.833023,214.209976 136.570786,214.352524 134.946716,214.535950 
	C136.281433,220.311630 137.536880,225.744278 138.435913,231.167862 
	C137.713318,231.424377 137.347153,231.689987 136.514496,231.988419 
	C128.769196,232.021255 121.490372,232.021255 114.211540,232.021255 
	C114.204597,232.949310 114.197662,233.877365 114.190727,234.805420 
	C124.460373,235.007065 134.730011,235.208725 144.973877,235.762909 
	C140.603119,238.976761 140.855850,243.306931 140.947845,247.777115 
	C141.125992,256.433868 141.159378,265.101227 140.925201,273.755310 
	C140.822464,277.551880 140.167435,281.385529 139.299591,285.093842 
	C138.535217,288.360016 136.268845,291.444672 136.154526,294.662415 
	C135.746750,306.139954 135.973312,317.640106 135.959808,329.131683 
M116.535347,180.890549 
	C117.826309,179.924805 119.117271,178.959061 120.444626,177.966095 
	C118.701218,175.888092 117.615555,174.594070 116.456467,173.212540 
	C115.247368,174.836212 114.276779,176.139587 113.324013,177.419037 
	C114.261230,178.506012 115.122154,179.504471 116.535347,180.890549 
z"/>
<path fill="#FEFEFE" opacity="1.000000" stroke="none" 
	d="
M100.933586,105.442154 
	C100.959641,111.391312 100.857666,116.886818 101.003738,122.375725 
	C101.095726,125.832275 99.637581,127.126183 96.241455,127.062691 
	C89.086746,126.928917 81.926880,126.954376 74.771080,127.054054 
	C72.012665,127.092476 70.865852,126.045914 70.921005,123.249588 
	C71.032570,117.592598 71.009621,111.931198 70.935074,106.273026 
	C70.896729,103.362381 72.099556,101.985466 75.079460,102.010452 
	C82.402565,102.071892 89.732040,101.886978 97.045074,102.165565 
	C98.367447,102.215942 99.623711,104.001328 100.933586,105.442154 
z"/>
<path fill="#FAFDFD" opacity="1.000000" stroke="none" 
	d="
M108.000000,138.985596 
	C96.354195,138.985107 85.207581,139.050430 74.063416,138.914902 
	C72.344330,138.894012 70.636459,137.950714 68.923401,137.433990 
	C69.070251,136.819809 69.217094,136.205612 69.363937,135.591431 
	C103.061295,135.591431 136.758652,135.591431 170.691284,135.591431 
	C170.603226,139.753723 167.611221,138.948532 165.393448,138.954742 
	C146.429092,139.007828 127.464516,138.985443 108.000000,138.985596 
z"/>
<path fill="#F9FCFC" opacity="1.000000" stroke="none" 
	d="
M129.000183,120.956123 
	C143.194427,120.956055 156.888702,120.956055 170.582977,120.956055 
	C170.770889,121.678261 170.958801,122.400475 171.146713,123.122681 
	C169.668701,123.735329 168.194244,124.871040 166.712158,124.881065 
	C148.587753,125.003548 130.462006,124.998779 112.337433,124.890549 
	C110.856567,124.881706 109.381660,123.875374 107.903984,123.332527 
	C107.984619,122.540421 108.065247,121.748306 108.145882,120.956192 
	C114.930656,120.956192 121.715439,120.956192 129.000183,120.956123 
z"/>
<path fill="#F9FCFC" opacity="1.000000" stroke="none" 
	d="
M148.307220,108.279404 
	C147.318939,109.422279 146.141266,110.899368 144.940292,110.918587 
	C133.794983,111.096931 122.645271,111.066559 111.498192,110.957314 
	C110.409706,110.946648 109.330383,110.000992 108.246811,109.489334 
	C109.130356,108.689056 110.010529,107.197174 110.897942,107.192863 
	C123.028145,107.133858 135.159378,107.276779 147.290085,107.399559 
	C147.564178,107.402328 147.834793,107.750366 148.307220,108.279404 
z"/>
<path fill="#A2C3D2" opacity="1.000000" stroke="none" 
	d="
M222.975525,176.118042 
	C224.964523,176.643845 226.953506,177.169632 229.166870,177.949265 
	C234.487457,192.043625 239.583679,205.884155 244.921585,220.413635 
	C245.839249,227.540405 250.243835,227.514664 255.508087,226.842987 
	C262.313965,226.886978 268.656067,226.890625 275.454956,226.940536 
	C278.669617,227.102890 281.427490,227.218964 283.932251,227.574707 
	C283.262207,229.127609 282.845276,230.440826 282.183350,231.790283 
	C281.608765,231.910294 281.282196,231.899918 280.621033,231.567215 
	C271.142242,231.224564 262.000916,231.115204 252.859741,230.993546 
	C248.464005,230.935028 243.667282,232.040405 240.963318,226.586075 
	C240.361664,224.135254 239.871750,222.029770 239.134399,220.014816 
	C233.776077,205.372330 228.367920,190.748077 222.975525,176.118042 
z"/>
<path fill="#E6C8A5" opacity="1.000000" stroke="none" 
	d="
M290.859741,194.275391 
	C291.932556,201.567444 293.005371,208.859497 293.721252,216.858582 
	C287.245728,218.381134 281.127136,219.196640 274.539917,220.004715 
	C268.786438,219.846085 263.501587,219.694885 258.216736,219.543701 
	C264.444733,218.516602 270.653046,217.336212 276.909790,216.532974 
	C279.662506,216.179565 280.923767,215.083939 281.537964,212.379654 
	C282.938019,206.214920 284.661560,200.123627 286.660034,193.681458 
	C288.330841,193.665390 289.595306,193.970383 290.859741,194.275391 
z"/>
<path fill="#FCD8B6" opacity="1.000000" stroke="none" 
	d="
M258.004913,219.497009 
	C263.501587,219.694885 268.786438,219.846085 274.537109,220.436798 
	C275.001343,222.882294 274.999756,224.888290 274.998169,226.894257 
	C268.656067,226.890625 262.313965,226.886978 255.495117,226.476135 
	C255.681473,223.981140 256.344604,221.893326 257.007690,219.805511 
	C257.226105,219.590958 257.487915,219.472565 258.004913,219.497009 
z"/>
<path fill="#DCF4F8" opacity="1.000000" stroke="none" 
	d="
M231.450241,134.703049 
	C231.138596,133.710617 231.092682,132.960785 231.183319,132.024796 
	C232.526352,130.150330 233.732849,128.462036 235.077011,126.581070 
	C236.716583,128.774170 238.422928,131.056564 240.031815,133.208618 
	C238.479782,135.349167 236.957596,137.448563 235.224808,139.838409 
	C234.061768,138.216675 232.888870,136.581161 231.450241,134.703049 
z"/>
<path fill="#149195" opacity="1.000000" stroke="none" 
	d="
M290.846375,193.842361 
	C289.595306,193.970383 288.330841,193.665390 286.749390,193.304047 
	C283.355408,192.498978 283.700623,190.352264 284.474396,188.181335 
	C285.751404,184.598511 287.152008,181.059753 288.746979,177.247040 
	C289.327606,180.028687 289.657654,183.066162 289.997314,186.102585 
	C290.269836,188.538849 290.553986,190.973801 290.846375,193.842361 
z"/>
<path fill="#E6C8A5" opacity="1.000000" stroke="none" 
	d="
M256.545532,219.759445 
	C256.344604,221.893326 255.681473,223.981140 255.031342,226.435791 
	C250.243835,227.514664 245.839249,227.540405 245.077515,220.762207 
	C248.688950,220.185684 252.386154,219.949539 256.545532,219.759445 
z"/>
<path fill="#C1DFF1" opacity="1.000000" stroke="none" 
	d="
M222.514297,176.037231 
	C228.367920,190.748077 233.776077,205.372330 239.134399,220.014816 
	C239.871750,222.029770 240.361664,224.135254 240.498932,226.593903 
	C220.105408,226.961655 200.179077,226.934311 180.252747,226.906952 
	C174.526810,211.478210 168.839844,196.034805 163.046692,180.631348 
	C161.649902,176.917435 163.036148,175.789810 166.607452,175.881271 
	C170.429977,175.979172 174.258102,175.858307 178.542236,175.737732 
	C193.351486,175.747177 207.702286,175.851807 222.514297,176.037231 
M206.496094,199.203400 
	C204.238342,196.635437 201.565094,194.764481 198.474167,197.484741 
	C195.429825,200.163986 195.384735,203.869263 198.051025,206.667511 
	C199.504044,208.192429 202.780640,209.582047 204.467300,208.958099 
	C208.320801,207.532532 208.745300,203.981659 207.108231,200.303192 
	C207.041367,200.152924 206.966660,200.006134 206.496094,199.203400 
z"/>
<path fill="#1CC1D6" opacity="1.000000" stroke="none" 
	d="
M184.853455,82.774597 
	C184.485367,82.822182 183.926697,82.639030 183.181488,82.222153 
	C183.550919,82.173569 184.106888,82.358711 184.853455,82.774597 
z"/>
<path fill="#DCF4F8" opacity="1.000000" stroke="none" 
	d="
M395.184387,257.845581 
	C395.553772,257.573822 395.994019,257.521271 396.166595,257.711487 
	C397.232025,258.886047 398.237091,260.115326 400.146210,262.370728 
	C398.726379,263.342957 397.294861,264.323212 395.565918,265.364990 
	C394.565979,264.184021 393.863525,262.941498 392.990692,261.397675 
	C393.584656,260.504120 394.358093,259.340576 395.184387,257.845581 
z"/>
<path fill="#FEFEFE" opacity="1.000000" stroke="none" 
	d="
M469.009460,131.028885 
	C468.808960,145.946915 470.982330,143.904816 456.634827,143.973022 
	C444.674103,144.029892 445.942108,145.314896 445.903259,133.369675 
	C445.866058,121.925621 445.895203,121.925529 457.538239,121.925529 
	C458.537262,121.925529 459.536316,121.918388 460.535278,121.926643 
	C470.114166,122.005821 468.910095,120.949280 469.009460,131.028885 
z"/>
<path fill="#FAFDFD" opacity="1.000000" stroke="none" 
	d="
M419.999390,126.059799 
	C408.082336,125.959183 396.646637,126.272171 385.242859,125.871567 
	C385.262726,125.166504 385.282593,124.461433 385.302460,123.756363 
	C403.104004,123.756363 420.905548,123.756363 438.707092,123.756363 
	C438.739960,124.394440 438.772797,125.032524 438.805664,125.670601 
	C432.761139,126.479141 426.596222,125.868881 419.999390,126.059799 
z"/>
<path fill="#FCFDFD" opacity="1.000000" stroke="none" 
	d="
M408.046936,142.071945 
	C404.451996,142.072052 401.348083,142.072052 398.244171,142.072052 
	C401.547333,138.341034 435.188843,138.282578 438.738770,141.251678 
	C428.712982,142.323090 418.612854,141.952805 408.046936,142.071945 
z"/>
<path fill="#FAFDFD" opacity="1.000000" stroke="none" 
	d="
M402.825378,134.071014 
	C396.774658,134.071152 391.199066,134.071152 385.013397,134.071152 
	C387.725739,130.550323 403.506683,129.863037 408.843750,133.288483 
	C406.996002,133.549271 405.148224,133.810074 402.825378,134.071014 
z"/>
<path fill="#FAFDFD" opacity="1.000000" stroke="none" 
	d="
M432.827881,134.070923 
	C427.795013,134.071121 423.235779,134.071121 418.064972,134.071121 
	C420.757416,130.537598 433.559143,129.893173 438.824982,133.286057 
	C436.983826,133.547623 435.142670,133.809174 432.827881,134.070923 
z"/>
<path fill="#01BBC5" opacity="1.000000" stroke="none" 
	d="
M136.118958,329.424133 
	C135.973312,317.640106 135.746750,306.139954 136.154526,294.662415 
	C136.268845,291.444672 138.535217,288.360016 139.299591,285.093842 
	C140.167435,281.385529 140.822464,277.551880 140.925201,273.755310 
	C141.159378,265.101227 141.125992,256.433868 140.947845,247.777115 
	C140.855850,243.306931 140.603119,238.976761 145.434204,235.666229 
	C158.612976,235.322189 171.305634,235.427353 183.967804,235.922943 
	C183.469055,238.208496 182.597046,240.104172 182.599655,241.998627 
	C182.613953,252.354507 183.027283,262.711578 182.944016,273.065338 
	C182.868408,282.467926 182.166260,291.864655 182.041046,301.267975 
	C181.874664,313.763428 182.169495,326.266296 181.908356,338.758514 
	C181.816544,343.150055 180.668839,347.519501 180.003265,351.899048 
	C163.963242,347.392578 149.544083,339.691132 136.118958,329.424133 
M152.578110,274.982178 
	C151.304672,276.002869 150.031250,277.023560 148.420074,278.314972 
	C151.093018,280.669342 153.174057,282.502350 155.292099,284.367950 
	C156.768646,282.435394 158.379974,280.326385 159.899048,278.338135 
	C158.204590,276.240387 156.601395,274.255615 154.793747,272.017731 
	C154.076691,272.946503 153.515427,273.673462 152.578110,274.982178 
z"/>
<path fill="#01B2CB" opacity="1.000000" stroke="none" 
	d="
M295.030487,236.065552 
	C283.549377,241.804794 272.024658,247.458908 260.602051,253.312317 
	C252.602936,257.411407 244.644043,261.609802 236.849976,266.082397 
	C229.417816,270.347260 227.013550,277.134521 227.576279,285.518951 
	C228.855637,304.580658 229.844040,323.662018 230.929169,342.736603 
	C231.316010,349.536346 231.640656,356.339661 231.932953,363.596588 
	C225.271591,362.950439 218.670929,361.848999 212.140671,360.322052 
	C212.515915,357.817902 213.083282,355.739716 213.086746,353.660583 
	C213.152451,314.218292 213.151611,274.775909 213.616821,235.274292 
	C241.026138,235.252655 267.983215,235.290283 294.953491,235.512939 
	C294.966644,235.697983 295.030487,236.065552 295.030487,236.065552 
z"/>
<path fill="#01B6C7" opacity="1.000000" stroke="none" 
	d="
M180.327484,352.087708 
	C180.668839,347.519501 181.816544,343.150055 181.908356,338.758514 
	C182.169495,326.266296 181.874664,313.763428 182.041046,301.267975 
	C182.166260,291.864655 182.868408,282.467926 182.944016,273.065338 
	C183.027283,262.711578 182.613953,252.354507 182.599655,241.998627 
	C182.597046,240.104172 183.469055,238.208496 184.362518,235.829620 
	C192.834671,235.274155 200.881638,235.202469 208.989578,235.588074 
	C209.084442,238.208557 209.146240,240.371704 209.148071,242.534912 
	C209.181122,281.659332 209.206940,320.783752 209.234299,359.908142 
	C199.706772,357.364227 190.179245,354.820312 180.327484,352.087708 
z"/>
<path fill="#374D66" opacity="1.000000" stroke="none" 
	d="
M209.494934,359.984772 
	C209.206940,320.783752 209.181122,281.659332 209.148071,242.534912 
	C209.146240,240.371704 209.084442,238.208557 209.229752,235.321320 
	C210.660843,234.842682 211.912735,235.088104 213.164612,235.333527 
	C213.151611,274.775909 213.152451,314.218292 213.086746,353.660583 
	C213.083282,355.739716 212.515915,357.817902 211.779022,360.118347 
	C210.816513,360.247253 210.286041,360.154327 209.494934,359.984772 
z"/>
<path fill="#E5CDAE" opacity="1.000000" stroke="none" 
	d="
M232.930115,371.433746 
	C235.996109,370.997192 239.010864,370.964600 242.473892,370.921387 
	C242.944412,371.378448 242.966675,371.846100 243.000977,372.664978 
	C239.797592,374.838928 236.567322,375.350891 233.077011,372.888702 
	C232.858261,372.380157 232.868576,372.108917 232.930115,371.433746 
z"/>
<path fill="#FBDDBA" opacity="1.000000" stroke="none" 
	d="
M302.038849,156.871307 
	C287.346802,158.332428 280.661743,151.490738 281.082794,136.821960 
	C287.752411,134.071167 293.988831,131.755188 299.984100,128.927811 
	C303.440674,127.297699 305.005646,128.802780 306.124603,131.539566 
	C306.977081,133.624619 307.417877,135.877991 308.307404,138.983582 
	C309.170105,137.240265 309.367737,136.025116 310.043701,135.631683 
	C311.889557,134.557251 313.986359,133.089005 315.888000,133.215591 
	C317.232086,133.305054 319.494415,135.800049 319.421875,137.115021 
	C319.317078,139.015427 317.567230,140.888870 316.327637,142.638016 
	C315.630920,143.621140 314.548981,144.331268 313.284424,145.689102 
	C310.838898,151.340256 307.335785,155.022232 302.038849,156.871307 
z"/>
<path fill="#E6C5A1" opacity="1.000000" stroke="none" 
	d="
M302.130310,157.240143 
	C307.335785,155.022232 310.838898,151.340256 313.262756,146.042542 
	C314.183350,149.743225 314.769470,153.615189 315.534912,157.848297 
	C315.701019,158.705673 315.633148,159.207520 315.683258,159.697281 
	C316.110779,163.876938 314.702545,167.227982 310.363190,167.911438 
	C305.679840,168.649124 303.393219,165.716507 302.710175,160.930573 
	C302.464203,159.590851 302.342987,158.599899 302.130310,157.240143 
z"/>
<path fill="#F8FBFB" opacity="1.000000" stroke="none" 
	d="
M270.037964,51.955086 
	C266.553223,51.918068 263.546875,52.033916 260.579559,51.746498 
	C259.742706,51.665440 259.020294,50.403145 258.245361,49.682636 
	C258.925293,49.116364 259.602722,48.059734 260.285522,48.056263 
	C273.752563,47.987816 287.220398,48.023258 300.687378,48.124809 
	C301.355225,48.129845 302.017120,48.926476 304.157715,50.304962 
	C301.236816,51.083580 299.608398,51.873516 297.969666,51.895489 
	C288.824860,52.018124 279.677582,51.954868 270.037964,51.955086 
z"/>
<path fill="#FEFEFE" opacity="1.000000" stroke="none" 
	d="
M274.956360,60.076138 
	C269.048279,60.076256 263.631592,60.076256 258.214874,60.076256 
	C258.240448,59.128113 258.265991,58.179966 258.291534,57.231823 
	C267.061523,56.657360 275.844238,56.877529 284.627197,57.111691 
	C284.690979,57.896938 284.754761,58.682182 284.818573,59.467430 
	C281.694946,59.670292 278.571350,59.873158 274.956360,60.076138 
z"/>
<path fill="#F8FBFB" opacity="1.000000" stroke="none" 
	d="
M265.999298,65.953842 
	C267.790894,65.956055 269.183014,65.706215 270.423187,66.033066 
	C271.612701,66.346565 272.644562,67.258217 273.745728,67.907013 
	C272.742279,68.578476 271.779449,69.742088 270.727722,69.828926 
	C267.600861,70.087112 264.425507,70.086807 261.298462,69.829872 
	C260.243469,69.743195 259.276398,68.585930 258.269135,67.917953 
	C259.364868,67.265640 260.390320,66.348351 261.575684,66.033890 
	C262.814789,65.705162 264.207703,65.956276 265.999298,65.953842 
z"/>
<path fill="#3B4760" opacity="1.000000" stroke="none" 
	d="
M213.616837,235.274277 
	C211.912735,235.088104 210.660843,234.842682 209.168777,234.864014 
	C200.881638,235.202469 192.834671,235.274155 184.393005,235.439178 
	C171.305634,235.427353 158.612976,235.322189 145.459991,235.313690 
	C134.730011,235.208725 124.460373,235.007065 114.190727,234.805420 
	C114.197662,233.877365 114.204597,232.949310 114.211540,232.021255 
	C121.490372,232.021255 128.769196,232.021255 136.693085,232.205902 
	C137.959259,232.189453 138.580368,231.988342 139.654480,231.829834 
	C145.464874,231.887421 150.822296,231.902390 156.179703,231.917358 
	C164.903473,231.895828 173.627228,231.874283 183.266449,231.822693 
	C202.313950,231.811356 220.445984,231.842392 238.578033,231.844864 
	C252.704880,231.846802 266.831726,231.813232 280.958588,231.795441 
	C281.282196,231.899918 281.608765,231.910294 282.698608,231.861206 
	C289.289734,231.896942 295.120544,231.898026 300.951385,231.899139 
	C301.227509,232.099854 301.503632,232.300568 301.930298,232.708496 
	C300.958740,233.274155 299.836670,233.632584 298.065186,234.030731 
	C296.942017,234.384811 296.468292,234.699203 295.723175,235.065918 
	C295.281281,235.188156 295.110809,235.258041 294.940308,235.327911 
	C267.983215,235.290283 241.026138,235.252655 213.616837,235.274277 
z"/>
<path fill="#374D66" opacity="1.000000" stroke="none" 
	d="
M295.994568,235.013580 
	C296.468292,234.699203 296.942017,234.384811 297.709106,234.039795 
	C297.572388,234.644699 297.142303,235.280243 296.389099,235.718445 
	C296.042175,235.351929 296.018372,235.182770 295.994568,235.013580 
z"/>
<path fill="#0A9EBE" opacity="1.000000" stroke="none" 
	d="
M295.723175,235.065918 
	C296.018372,235.182770 296.042175,235.351929 296.084991,235.776733 
	C295.925385,236.049805 295.746765,236.067230 295.299316,236.075104 
	C295.030487,236.065552 294.966644,235.697983 294.953491,235.512955 
	C295.110809,235.258041 295.281281,235.188156 295.723175,235.065918 
z"/>
<path fill="#FADEBB" opacity="1.000000" stroke="none" 
	d="
M275.454926,226.940552 
	C274.999756,224.888290 275.001343,222.882294 275.005737,220.444229 
	C281.127136,219.196640 287.245728,218.381134 293.646790,217.295776 
	C297.221100,216.686386 300.575348,216.617599 303.775085,215.879089 
	C305.126007,215.567307 306.819733,214.043671 307.210693,212.729630 
	C309.053101,206.537216 310.497955,200.226517 312.500488,193.429962 
	C317.888275,193.954391 322.860199,195.006866 327.832153,196.059326 
	C324.307190,205.113129 321.000122,214.263123 317.079437,223.142212 
	C316.263275,224.990601 313.313934,226.550903 311.103424,226.977020 
	C307.762054,227.621201 304.206207,227.152817 299.837402,227.141693 
	C294.017334,227.195770 289.101379,227.265396 284.185394,227.335022 
	C281.427490,227.218964 278.669617,227.102890 275.454926,226.940552 
z"/>
<path fill="#139093" opacity="1.000000" stroke="none" 
	d="
M328.248932,196.045853 
	C322.860199,195.006866 317.888275,193.954391 312.516266,193.041718 
	C311.219025,192.493134 310.321838,191.804764 309.300262,191.020935 
	C311.520050,184.908081 313.667938,178.810516 315.949707,172.763474 
	C318.030762,167.248306 322.937988,164.113266 327.363007,165.301102 
	C332.921387,166.793152 335.915039,171.992554 334.761139,178.175766 
	C333.849701,183.059906 333.098663,187.985779 331.881378,192.793106 
	C331.559845,194.062851 329.777344,194.962692 328.248932,196.045853 
z"/>
<path fill="#0BA4CF" opacity="1.000000" stroke="none" 
	d="
M283.932251,227.574707 
	C289.101379,227.265396 294.017334,227.195770 299.365479,227.224487 
	C300.163574,228.624908 300.529541,229.927017 300.923462,231.564117 
	C295.120544,231.898026 289.289734,231.896942 282.943604,231.824936 
	C282.845276,230.440826 283.262207,229.127609 283.932251,227.574707 
z"/>
<path fill="#874606" opacity="1.000000" stroke="none" 
	d="
M156.230042,231.551300 
	C150.822296,231.902390 145.464874,231.887421 139.626968,231.701111 
	C139.105621,231.334641 138.987579,231.217026 138.792328,231.176941 
	C137.536880,225.744278 136.281433,220.311630 134.946716,214.535950 
	C136.570786,214.352524 137.833023,214.209976 139.963745,214.069595 
	C146.537354,214.032669 152.242493,213.993576 157.947632,213.954498 
	C158.500198,215.263687 159.704254,216.692413 159.489868,217.860870 
	C158.666687,222.347580 157.388687,226.750854 156.230042,231.551300 
z"/>
<path fill="#32D18F" opacity="1.000000" stroke="none" 
	d="
M158.115051,213.646698 
	C152.242493,213.993576 146.537354,214.032669 140.359863,213.989258 
	C134.571075,210.540436 132.909088,205.793457 134.599075,199.005386 
	C137.462082,200.019592 140.135818,200.966751 142.740585,201.889481 
	C144.919708,199.235855 146.980545,196.726288 149.383179,193.800476 
	C150.568802,195.335281 151.712585,196.231384 152.056274,197.369171 
	C153.140610,200.958923 154.765167,202.870468 158.879501,201.182983 
	C159.443390,200.951706 161.920700,203.146881 161.760406,203.762939 
	C160.909149,207.035065 159.499054,210.161804 158.115051,213.646698 
z"/>
<path fill="#94BDCE" opacity="1.000000" stroke="none" 
	d="
M280.621033,231.567215 
	C266.831726,231.813232 252.704880,231.846802 238.578033,231.844864 
	C220.445984,231.842392 202.313950,231.811356 183.748642,231.741730 
	C182.284988,230.315704 181.254608,228.940598 180.238480,227.236221 
	C200.179077,226.934311 220.105408,226.961655 240.496124,226.981171 
	C243.667282,232.040405 248.464005,230.935028 252.859741,230.993546 
	C262.000916,231.115204 271.142242,231.224564 280.621033,231.567215 
z"/>
<path fill="#DCF4F8" opacity="1.000000" stroke="none" 
	d="
M116.259209,180.696747 
	C115.122154,179.504471 114.261230,178.506012 113.324013,177.419037 
	C114.276779,176.139587 115.247368,174.836212 116.456467,173.212540 
	C117.615555,174.594070 118.701218,175.888092 120.444626,177.966095 
	C119.117271,178.959061 117.826309,179.924805 116.259209,180.696747 
z"/>
<path fill="#374D66" opacity="1.000000" stroke="none" 
	d="
M138.435913,231.167862 
	C138.987579,231.217026 139.105621,231.334641 139.173981,231.658478 
	C138.580368,231.988342 137.959259,232.189453 137.159561,232.173065 
	C137.347153,231.689987 137.713318,231.424377 138.435913,231.167862 
z"/>
<path fill="#E9F1F5" opacity="1.000000" stroke="none" 
	d="
M206.695847,199.530563 
	C206.966660,200.006134 207.041367,200.152924 207.108231,200.303192 
	C208.745300,203.981659 208.320801,207.532532 204.467300,208.958099 
	C202.780640,209.582047 199.504044,208.192429 198.051025,206.667511 
	C195.384735,203.869263 195.429825,200.163986 198.474167,197.484741 
	C201.565094,194.764481 204.238342,196.635437 206.695847,199.530563 
z"/>
<path fill="#E4F8F9" opacity="1.000000" stroke="none" 
	d="
M152.766144,274.691315 
	C153.515427,273.673462 154.076691,272.946503 154.793747,272.017731 
	C156.601395,274.255615 158.204590,276.240387 159.899048,278.338135 
	C158.379974,280.326385 156.768646,282.435394 155.292099,284.367950 
	C153.174057,282.502350 151.093018,280.669342 148.420074,278.314972 
	C150.031250,277.023560 151.304672,276.002869 152.766144,274.691315 
z"/>
</svg>