<svg version="1.1" id="Layer_1" xmlns="http://www.w3.org/2000/svg" xmlns:xlink="http://www.w3.org/1999/xlink" x="0px" y="0px"
	 width="100%" viewBox="0 0 268 157" enable-background="new 0 0 268 157" xml:space="preserve">
<path fill="#000000" opacity="1.000000" stroke="none" 
	d="
M158.000000,158.000000 
	C106.666672,158.000000 55.833221,157.956238 5.000289,158.097488 
	C1.575041,158.107010 0.892655,157.425110 0.902429,153.999741 
	C1.044626,104.166817 1.033394,54.333286 0.916848,4.500232 
	C0.909872,1.517399 1.517764,0.914670 4.500058,0.918137 
	C91.499931,1.019294 178.499969,1.019287 265.499847,0.918160 
	C268.481842,0.914694 269.090088,1.517010 269.083160,4.500124 
	C268.966675,54.499847 268.966736,104.499992 269.083160,154.499710 
	C269.090118,157.482391 268.483795,158.095200 265.499786,158.084290 
	C229.833557,157.953735 194.166702,158.000000 158.000000,158.000000 
z"/>
<path fill="#32363C" opacity="1.000000" stroke="none" 
	d="
M142.627060,33.783073 
	C153.897614,33.621506 169.139526,38.920235 171.914291,53.722542 
	C170.940704,61.903381 171.762466,69.734238 171.475037,77.977173 
	C169.718079,81.235443 168.293716,84.129280 168.242203,87.598503 
	C168.219894,89.100670 167.455673,90.569923 165.556961,90.600624 
	C163.655655,90.631371 162.899185,89.206596 162.776596,87.682877 
	C162.316498,81.964752 160.001694,76.540672 161.098404,70.519928 
	C162.201309,64.465134 159.658188,61.395973 153.583527,59.564465 
	C149.430161,58.312225 145.032623,58.583130 140.428543,57.549042 
	C135.473450,58.426544 130.751892,58.262505 126.305229,59.743267 
	C119.862770,61.888645 117.787476,64.602791 118.968742,71.241638 
	C120.011787,77.103630 117.549133,82.344391 117.160645,87.915489 
	C117.065903,89.274147 116.277542,90.499557 114.684845,90.600365 
	C112.803360,90.719452 111.968758,89.402817 111.785530,87.828979 
	C111.418602,84.677345 111.092232,81.559471 108.622498,78.704193 
	C108.528084,71.140999 108.439301,64.007698 108.782990,56.458138 
	C107.757401,45.527374 118.788437,37.322800 128.903259,34.990486 
	C131.292221,34.439629 133.781174,34.322334 136.590393,34.003998 
	C138.649887,33.062145 140.470490,33.659763 142.627060,33.783073 
z"/>
<path fill="#F2D7BC" opacity="1.000000" stroke="none" 
	d="
M108.790375,78.658081 
	C112.079659,79.201500 113.252609,80.820290 113.368484,83.831963 
	C113.442932,85.766937 112.630898,88.058823 114.933807,89.769829 
	C114.178886,83.168861 119.773773,77.698669 117.080437,70.476044 
	C115.072235,65.090721 118.001076,61.190262 123.550636,58.791107 
	C128.539536,56.634331 133.863647,56.643261 139.539795,56.351219 
	C141.260086,57.455200 141.611130,58.947853 141.617340,60.445805 
	C141.679520,75.412445 142.301163,90.384132 141.135727,105.774628 
	C140.590637,107.029457 139.948898,107.582588 138.751495,108.053284 
	C136.701065,108.474998 135.021835,108.385468 133.391418,108.276474 
	C134.064270,108.730507 134.735687,108.883377 135.726395,109.187714 
	C137.529373,109.746208 139.181427,109.704201 140.621368,111.246643 
	C142.029327,115.480499 142.061081,119.358231 140.594818,123.611664 
	C139.198730,124.779045 137.929443,124.413902 136.289520,124.240181 
	C125.049843,123.382950 114.502121,114.367836 112.080315,103.328545 
	C111.429924,100.363861 110.809395,97.744713 107.476585,97.133240 
	C104.940193,96.667877 104.983017,94.419579 103.984528,92.488312 
	C103.059746,89.359451 103.678429,86.528152 103.760605,83.306778 
	C103.960129,80.696457 105.467430,79.754997 107.518463,78.940384 
	C108.067078,78.741753 108.272926,78.581764 108.790375,78.658081 
z"/>
<path fill="#E9BFA7" opacity="1.000000" stroke="none" 
	d="
M140.177261,107.133194 
	C139.982956,90.335709 139.974609,73.824440 139.956573,56.873642 
	C145.599991,56.329895 151.214157,56.606468 156.513611,58.827515 
	C162.062531,61.153122 164.375259,64.914719 163.009918,70.626381 
	C162.050476,74.639992 161.606873,78.184723 163.869873,81.948967 
	C165.213623,84.184166 163.583878,87.376068 165.444534,89.984703 
	C168.524139,86.724609 163.884750,80.571999 170.493881,78.969849 
	C171.075333,78.738846 171.270721,78.582764 171.667542,78.743118 
	C173.610870,80.040901 175.168747,81.195557 175.913025,83.546814 
	C176.976837,86.285614 176.316086,88.794319 176.238846,91.682053 
	C176.243408,93.454887 175.485733,94.490868 174.470825,94.954674 
	C169.409729,97.267502 167.936905,101.889191 166.741089,106.672867 
	C164.414474,115.980148 157.214417,119.962822 149.097397,122.944603 
	C147.751709,123.438950 146.307938,123.666298 144.517899,124.024399 
	C143.072739,124.753319 141.896088,124.429932 140.390137,124.196991 
	C140.024323,119.991600 140.025742,116.017830 140.048553,111.590286 
	C140.799255,109.811867 142.235870,109.844963 143.644989,109.261177 
	C143.187561,107.564056 141.271194,108.525269 140.177261,107.133194 
z"/>
<path fill="#989A9D" opacity="1.000000" stroke="none" 
	d="
M171.923340,78.589157 
	C171.703461,79.036133 171.537918,79.012711 171.126144,78.942108 
	C170.992325,70.781235 171.104721,62.667538 171.572296,54.330154 
	C171.944214,62.110561 171.960953,70.114655 171.923340,78.589157 
z"/>
<path fill="#989A9D" opacity="1.000000" stroke="none" 
	d="
M109.059006,78.434708 
	C108.895271,78.909241 108.688560,78.924103 108.171539,78.920364 
	C107.977364,71.405396 108.093498,63.909039 108.602272,56.227043 
	C109.001961,63.352615 109.009003,70.663818 109.059006,78.434708 
z"/>
<path fill="#FAF0E8" opacity="1.000000" stroke="none" 
	d="
M103.583603,83.070381 
	C103.974968,85.652336 103.987305,88.423553 103.981133,91.656105 
	C102.089149,89.303551 103.257370,86.229347 103.583603,83.070381 
z"/>
<path fill="#FAF0E8" opacity="1.000000" stroke="none" 
	d="
M176.414825,91.924133 
	C176.022751,89.663574 176.008575,87.222549 176.012680,84.323730 
	C178.022675,86.323814 176.658981,89.106133 176.414825,91.924133 
z"/>
<path fill="#FAF0E8" opacity="1.000000" stroke="none" 
	d="
M139.607300,123.978683 
	C141.117065,123.976295 142.211212,123.987213 143.715836,124.014954 
	C141.665268,125.995415 138.893417,124.704575 136.060760,124.410484 
	C136.976639,124.022156 138.084167,124.007072 139.607300,123.978683 
z"/>
<path fill="#989A9D" opacity="1.000000" stroke="none" 
	d="
M142.884659,33.623043 
	C141.286926,34.029213 139.553482,34.057522 137.388367,34.044121 
	C138.633560,31.808075 140.785995,33.251293 142.884659,33.623043 
z"/>
<path fill="#000000" opacity="1.000000" stroke="none" 
	d="
M139.638672,106.918945 
	C141.816956,106.904907 143.642334,106.972809 145.468307,107.016968 
	C146.537003,107.042809 147.557877,107.405441 147.427017,108.555328 
	C147.369476,109.060768 146.237595,109.443939 145.265015,110.026619 
	C141.941589,110.839317 138.911209,110.363861 135.467133,110.307358 
	C134.128204,109.537064 132.375381,110.871933 132.085754,108.509171 
	C133.404007,106.879578 135.048874,107.835571 136.801437,107.235992 
	C137.847183,107.021378 138.566589,107.006149 139.638672,106.918945 
z"/>
<path fill="#FAF0E8" opacity="1.000000" stroke="none" 
	d="
M135.316681,110.403130 
	C138.039627,110.122353 141.043274,110.080643 144.491714,110.104774 
	C143.748535,111.345482 142.211899,110.911804 140.436371,111.101562 
	C138.579071,110.971741 137.088211,110.806969 135.316681,110.403130 
z"/>
<path fill="#FAF0E8" opacity="1.000000" stroke="none" 
	d="
M136.715942,107.010681 
	C136.089706,108.932816 134.296082,107.636818 132.509949,108.087234 
	C131.644836,107.891289 130.081635,107.707458 131.667023,107.106377 
	C133.031906,106.588913 134.744980,106.989876 136.715942,107.010681 
z"/>
</svg>