<svg version="1.1" id="Layer_1" xmlns="http://www.w3.org/2000/svg" xmlns:xlink="http://www.w3.org/1999/xlink" x="0px" y="0px"
	 width="100%" viewBox="0 0 255 158" enable-background="new 0 0 255 158" xml:space="preserve">
<path fill="#000000" opacity="1.000000" stroke="none" 
	d="
M147.000000,159.000000 
	C99.166672,159.000000 51.833252,158.964874 4.500217,159.083313 
	C1.517210,159.090775 0.910246,158.482742 0.916931,155.499832 
	C1.032341,104.000084 1.000000,52.500015 1.000000,1.000009 
	C84.666656,1.000000 168.333359,1.026829 251.999832,0.904044 
	C255.424072,0.899019 256.107239,1.574858 256.097534,5.000243 
	C255.955658,55.166504 255.966827,105.333366 256.083130,155.499756 
	C256.090057,158.482559 255.483688,159.095566 252.499725,159.084351 
	C217.500214,158.952896 182.500015,159.000000 147.000000,159.000000 
z"/>
<path fill="#481A13" opacity="1.000000" stroke="none" 
	d="
M135.637634,32.264080 
	C143.999756,33.559250 151.854996,36.205059 157.568008,42.023911 
	C164.909805,49.501736 169.144150,58.768333 168.220566,69.724785 
	C168.067719,71.537979 168.021347,73.360146 167.891388,75.603470 
	C167.492554,76.620392 167.515579,77.280678 167.498795,77.940651 
	C167.336029,84.336884 166.515457,84.910820 160.892502,81.414368 
	C153.210587,76.637642 148.140717,69.650330 144.966156,61.470364 
	C143.034363,65.657532 139.314606,68.774460 133.522430,70.606461 
	C130.091141,72.107292 126.804909,72.168152 123.493523,72.340637 
	C117.382980,72.658913 114.525803,75.272034 113.328094,81.261879 
	C112.072754,87.539925 110.211212,88.445595 105.194954,84.861671 
	C103.458321,83.620911 101.512222,83.498650 99.366089,82.570023 
	C98.057182,80.531281 98.635193,78.595268 98.764908,76.358521 
	C94.606071,57.632362 104.679863,36.248367 128.746109,32.181492 
	C131.108994,32.962120 133.246292,32.325176 135.637634,32.264080 
z"/>
<path fill="#E8BEA6" opacity="1.000000" stroke="none" 
	d="
M132.629486,69.471817 
	C135.599625,67.749672 138.551544,66.857933 140.460754,64.371414 
	C142.160675,62.157494 143.800018,59.897064 145.666138,57.388229 
	C149.983459,67.955612 155.145508,77.516632 166.734116,81.848976 
	C166.885345,80.104424 167.046814,78.241776 167.532639,76.203941 
	C167.901199,81.107239 167.945419,86.185707 167.899414,91.640167 
	C167.461990,92.628937 167.519852,93.329506 167.254288,94.304016 
	C163.030121,98.832794 160.146500,103.955917 156.338654,108.790436 
	C155.851120,109.095894 155.653076,109.213341 155.156769,109.504898 
	C149.957001,115.644173 143.973557,120.145538 136.423889,123.049133 
	C135.237747,123.618225 134.326385,123.479294 133.028137,123.237968 
	C130.205566,120.662865 130.830353,117.705063 131.175690,114.451935 
	C131.820877,112.044373 133.458145,110.916939 135.107834,109.784477 
	C134.048645,108.320152 132.053787,108.084335 131.458191,105.931686 
	C130.054550,94.680634 130.692764,83.782356 130.925552,72.889900 
	C130.950775,71.708733 131.334198,70.613686 132.629486,69.471817 
z"/>
<path fill="#F1D6BC" opacity="1.000000" stroke="none" 
	d="
M132.997940,112.783394 
	C133.030258,116.118141 133.013718,119.119133 132.992767,122.572418 
	C132.283661,123.581535 131.460449,123.491997 130.288239,123.256226 
	C122.511406,120.652733 116.554214,116.195007 111.469177,109.897278 
	C110.987129,109.560707 110.788338,109.441544 110.320229,109.102402 
	C107.836372,107.129990 106.011208,105.022362 105.201363,102.306282 
	C104.190872,98.917274 99.943527,98.385597 98.886246,94.680496 
	C98.652695,94.149612 98.566025,93.934341 98.425072,93.375229 
	C97.934151,90.322144 95.757706,87.679459 98.118080,84.474991 
	C98.408867,83.399231 98.798691,82.822418 99.659653,82.179237 
	C101.796875,79.642845 103.452744,79.493767 105.420692,82.030022 
	C106.598442,83.547882 108.034760,85.014931 109.982796,85.698997 
	C111.376076,85.219215 110.779457,84.046158 110.810471,83.191612 
	C111.136604,74.204109 116.719444,69.045303 125.738762,69.353188 
	C127.870201,69.425941 130.012009,69.195114 132.563782,69.123062 
	C133.003601,81.371063 133.028702,93.599968 133.068604,106.280502 
	C131.269730,108.596420 130.675812,110.489349 132.997940,112.783394 
z"/>
<path fill="#481A13" opacity="1.000000" stroke="none" 
	d="
M98.763268,94.334000 
	C99.310814,94.264732 99.593132,94.797958 100.005310,94.932060 
	C106.524345,97.052872 107.678917,103.509499 110.943359,108.656525 
	C109.726883,109.892494 108.294273,109.375061 106.545685,109.261490 
	C101.738991,110.001930 100.309151,106.935249 99.016937,103.341881 
	C97.982353,100.290497 98.694168,97.496513 98.763268,94.334000 
z"/>
<path fill="#481A13" opacity="1.000000" stroke="none" 
	d="
M155.269958,109.240570 
	C157.687836,103.309555 159.897980,97.222305 166.622345,94.236557 
	C167.952789,95.309921 167.355682,96.762512 167.229034,98.498260 
	C167.323364,105.549423 166.029892,107.753479 160.217682,109.867035 
	C158.482300,109.147392 156.984116,109.668915 155.269958,109.240570 
z"/>
<path fill="#E8BEA6" opacity="1.000000" stroke="none" 
	d="
M98.931664,93.732437 
	C98.980255,96.638535 98.992432,99.359886 99.016022,102.532822 
	C96.848747,100.131203 98.821724,96.900719 98.286606,93.468597 
	C98.618088,93.129860 98.792908,93.301964 98.931664,93.732437 
z"/>
<path fill="#947A76" opacity="1.000000" stroke="none" 
	d="
M99.654907,81.759399 
	C99.522896,82.583656 99.082336,83.168724 98.409798,83.919151 
	C97.827911,81.514610 97.764671,78.946358 98.596909,76.190788 
	C99.096642,77.840393 99.221497,79.680313 99.654907,81.759399 
z"/>
<path fill="#947A76" opacity="1.000000" stroke="none" 
	d="
M135.508728,32.037251 
	C133.923523,33.742683 131.640503,32.768326 129.258469,32.404373 
	C131.069046,32.049236 133.074326,32.024319 135.508728,32.037251 
z"/>
<path fill="#F1D6BC" opacity="1.000000" stroke="none" 
	d="
M167.406555,98.736252 
	C167.002090,97.534424 166.982788,96.201294 166.941986,94.466217 
	C167.114075,93.538544 167.307663,93.012833 167.655212,92.251648 
	C167.803360,94.212425 167.797531,96.408699 167.406555,98.736252 
z"/>
<path fill="#FEFDFC" opacity="1.000000" stroke="none" 
	d="
M130.104248,123.408188 
	C130.694565,123.061226 131.459335,123.064034 132.606232,123.045776 
	C133.754776,123.050148 134.521149,123.075584 135.670029,123.084450 
	C134.308609,124.809769 132.233215,123.778191 130.104248,123.408188 
z"/>
<path fill="#947A76" opacity="1.000000" stroke="none" 
	d="
M106.390648,109.381424 
	C107.511940,109.079063 108.857346,109.079918 110.605560,109.043091 
	C111.008369,109.005402 111.285851,109.292961 111.235886,109.486412 
	C109.662201,109.681458 108.138481,109.683052 106.390648,109.381424 
z"/>
<path fill="#947A76" opacity="1.000000" stroke="none" 
	d="
M154.873199,109.164780 
	C156.446793,109.126068 157.909866,109.238899 159.615433,109.618973 
	C158.464890,109.870811 157.071869,109.855423 155.268677,109.759529 
	C154.858505,109.679024 154.762695,109.316338 154.873199,109.164780 
z"/>
<path fill="#FEFDFC" opacity="1.000000" stroke="none" 
	d="
M133.397644,113.023163 
	C132.576599,112.991974 132.097885,112.892059 131.637573,112.737396 
	C129.190979,111.915321 125.551865,111.227425 125.976860,108.398911 
	C126.404747,105.551208 130.094101,107.535072 132.654587,106.789444 
	C133.569336,106.779129 134.066620,106.775627 134.539230,106.881943 
	C136.468613,107.315933 139.677429,105.783562 140.115540,108.095543 
	C140.635330,110.838394 137.506683,111.750725 135.154037,112.515938 
	C134.689819,112.666931 134.217209,112.792107 133.397644,113.023163 
z"/>
</svg>