<svg version="1.1" id="Layer_1" xmlns="http://www.w3.org/2000/svg" xmlns:xlink="http://www.w3.org/1999/xlink" x="0px" y="0px"
	 width="100%" viewBox="0 0 512 512" enable-background="new 0 0 512 512" xml:space="preserve">
<path fill="#000000" opacity="1.000000" stroke="none" 
	d="
M1.000000,203.000000 
	C1.000000,136.666672 1.033979,70.833267 0.903376,5.000192 
	C0.896582,1.575496 1.576367,0.903139 5.000061,0.905342 
	C172.999985,1.013444 341.000000,1.013444 508.999939,0.905342 
	C512.423645,0.903139 513.096802,1.576367 513.094604,5.000061 
	C512.986511,172.999985 512.986511,341.000000 513.094604,508.999939 
	C513.096802,512.423645 512.423645,513.096802 508.999939,513.094604 
	C341.000000,512.986511 172.999985,512.986511 5.000061,513.094604 
	C1.576367,513.096802 0.900537,512.423950 0.904491,508.999878 
	C1.022094,407.166687 1.000000,305.333344 1.000000,203.000000 
z"/>
<path fill="#14CAE6" opacity="1.000000" stroke="none" 
	d="
M280.230194,473.557251 
	C278.928406,474.657166 277.783600,475.042603 276.365051,475.036041 
	C263.863403,474.977997 251.324692,475.600037 238.869232,474.838715 
	C225.085861,473.996246 211.466812,471.379333 198.147781,467.573975 
	C183.016846,463.250977 168.411224,457.601135 154.496887,450.169861 
	C138.962555,441.873444 124.810173,431.744568 111.491188,420.191254 
	C97.375465,407.946777 85.453011,393.895203 75.150681,378.507935 
	C59.241322,354.746216 48.219585,328.826233 42.983395,300.585876 
	C42.129337,295.979706 41.192574,291.388885 40.227890,286.389404 
	C42.919476,283.829834 44.876015,285.932281 46.735550,287.421326 
	C55.430237,294.383636 63.671700,301.882446 72.136086,309.118317 
	C90.834663,325.103058 109.368500,341.279724 128.118393,357.204987 
	C128.999832,357.953644 129.868439,358.737793 130.733673,360.014038 
	C131.685226,363.800842 129.980591,366.857544 129.354614,370.080872 
	C128.911575,372.362213 128.200012,374.582184 127.739403,376.864471 
	C126.235321,384.317017 130.092789,388.148224 137.495285,386.342560 
	C147.337402,383.941772 157.049438,381.037415 166.887436,378.613342 
	C168.507080,378.214233 170.097855,377.751587 172.156906,377.975159 
	C185.040161,387.444885 196.405121,398.207550 208.297028,408.341064 
	C231.224777,427.878662 253.999954,447.596619 276.822418,467.258331 
	C278.666107,468.846680 281.026031,470.201660 280.230194,473.557251 
z"/>
<path fill="#77E3EC" opacity="1.000000" stroke="none" 
	d="
M228.762146,40.432060 
	C243.990097,38.286366 259.033173,38.599590 274.540833,39.090366 
	C289.106110,50.047794 302.257904,62.058449 315.771881,73.635056 
	C345.846375,99.398102 375.837463,125.258919 405.850342,151.093903 
	C425.523102,168.028168 445.203156,184.954285 464.907104,201.852173 
	C466.572968,203.280838 467.338867,205.448990 469.555725,206.779541 
	C471.502686,216.882217 473.303528,226.747375 474.767456,236.662277 
	C475.270905,240.072021 474.933197,243.605957 474.906921,247.540604 
	C471.782715,249.904663 469.830627,247.614410 467.884888,245.994064 
	C456.146332,236.218796 444.537689,226.285950 433.060333,216.208206 
	C419.965851,204.710495 406.290527,193.878296 393.669220,181.838577 
	C392.950256,181.152725 391.989502,180.778168 390.682434,180.375610 
	C388.117310,179.183182 387.004547,177.104675 385.774933,175.141449 
	C368.749237,147.958008 345.465485,128.336899 315.430145,116.845093 
	C312.807922,115.841805 310.050446,115.091736 307.496735,113.086868 
	C302.187286,107.552948 296.339783,103.173553 290.855469,98.389755 
	C271.209137,81.252731 251.271103,64.452690 231.631027,47.307823 
	C229.682739,45.607052 227.232590,43.990196 228.762146,40.432060 
z"/>
<path fill="#80E5ED" opacity="1.000000" stroke="none" 
	d="
M469.778656,206.613083 
	C465.731262,207.114120 463.887512,203.488647 461.341370,201.398315 
	C450.581085,192.564453 440.212402,183.254883 429.657318,174.169449 
	C416.215820,162.599426 402.714996,151.098282 389.272827,139.529037 
	C378.717285,130.444244 368.233704,121.275818 357.678772,112.190292 
	C344.237366,100.620102 330.741089,89.113678 317.296600,77.547035 
	C304.477478,66.518417 291.676544,55.468380 278.920074,44.367538 
	C277.444672,43.083626 275.797516,41.831512 275.068115,39.494068 
	C299.474670,41.384949 323.055389,47.068470 345.540588,57.125450 
	C363.952393,65.360535 380.853180,75.900726 396.414764,88.789711 
	C417.500427,106.254028 434.526855,126.940216 448.002563,150.710175 
	C457.916138,168.196869 464.737457,186.840759 469.778656,206.613083 
z"/>
<path fill="#23CEE7" opacity="1.000000" stroke="none" 
	d="
M130.224792,359.865051 
	C124.605759,358.472137 121.427277,354.073761 117.569069,350.807068 
	C99.325966,335.360992 81.417358,319.520355 63.345551,303.871155 
	C56.820545,298.220856 50.190281,292.691345 43.555740,287.169525 
	C42.838722,286.572754 41.772186,286.395935 40.514759,286.006073 
	C37.868622,266.459717 37.918804,246.932205 40.533524,227.181976 
	C43.815189,225.127396 45.610344,227.484024 47.394680,228.960510 
	C58.263870,237.954559 68.936432,247.184219 79.585175,256.436615 
	C97.250679,271.785645 115.189415,286.817017 132.755173,302.281006 
	C134.136169,303.496796 135.540024,304.644470 137.820831,305.001678 
	C142.797058,309.564453 144.288147,314.619659 142.532654,320.971832 
	C139.525253,331.853851 136.693451,342.787872 133.753113,353.690552 
	C133.156815,355.901611 132.774994,358.302460 130.224792,359.865051 
z"/>
<path fill="#23CEE7" opacity="1.000000" stroke="none" 
	d="
M280.440796,473.905060 
	C279.843689,472.408600 278.997223,471.380035 277.969696,470.508453 
	C265.330444,459.787292 252.643356,449.122223 240.042175,438.356598 
	C229.705811,429.525848 219.480865,420.564819 209.182816,411.689087 
	C197.883224,401.950104 186.546997,392.253601 175.260574,382.499420 
	C174.413879,381.767700 173.838043,380.722534 173.068848,379.494415 
	C173.414703,377.514099 174.719193,376.800110 176.139954,376.252136 
	C177.067062,375.894562 178.056442,375.690063 178.973816,375.314087 
	C191.621796,370.131073 203.708649,370.025085 215.994476,377.258789 
	C222.484299,381.079865 230.342148,382.289062 237.780884,384.033447 
	C240.186371,384.597565 242.710388,384.832336 245.205414,386.386658 
	C248.487152,391.406830 253.301682,394.287140 257.431366,397.809814 
	C279.719269,416.822052 301.780640,436.097351 324.054077,455.126129 
	C326.434753,457.160034 329.781525,459.051239 328.217316,463.546448 
	C312.632172,468.786652 297.088531,472.924316 280.440796,473.905060 
z"/>
<path fill="#2CD0E8" opacity="1.000000" stroke="none" 
	d="
M137.394012,305.634216 
	C134.198990,306.103394 132.197205,304.465912 130.121399,302.670410 
	C116.443855,290.839691 102.668633,279.121979 88.976471,267.308105 
	C75.909042,256.033203 62.927803,244.658386 49.851036,233.394409 
	C47.229385,231.136200 44.348213,229.179276 41.238358,227.021057 
	C42.267143,211.044495 46.665966,195.860199 52.011490,180.904175 
	C52.445335,179.690323 52.857750,178.468811 53.613976,177.072113 
	C56.024090,176.787582 57.252239,178.240799 58.621075,179.435547 
	C79.061310,197.276291 99.660027,214.933228 120.286263,232.557938 
	C122.309700,234.286957 124.134499,236.201294 126.220924,238.402496 
	C127.402924,241.314468 127.138062,244.005569 127.064552,246.636414 
	C126.565887,264.483459 130.365982,281.522827 136.567566,298.124908 
	C137.434067,300.444611 138.640884,302.706146 137.394012,305.634216 
z"/>
<path fill="#65DEEB" opacity="1.000000" stroke="none" 
	d="
M144.791733,69.460526 
	C157.381805,61.680496 170.468353,55.727989 184.507324,50.972504 
	C187.951096,50.379890 190.359161,51.743549 192.539108,53.617092 
	C210.543427,69.090714 228.551254,84.560387 246.483353,100.117645 
	C248.598770,101.952888 250.996552,103.814796 249.284042,107.553551 
	C247.627365,109.149300 245.866074,109.648674 244.045425,109.931297 
	C232.974335,111.649887 222.332169,114.807274 212.046127,119.241791 
	C209.619995,120.287758 207.174240,121.431152 204.056808,121.538803 
	C201.781769,121.264854 200.297577,120.219559 198.911606,119.014023 
	C181.796936,104.127373 164.515259,89.435059 147.321808,74.640137 
	C145.852692,73.375961 144.068726,72.178581 144.791733,69.460526 
z"/>
<path fill="#6EE1EC" opacity="1.000000" stroke="none" 
	d="
M249.260437,107.206711 
	C248.184784,102.001305 243.694763,100.298767 240.651108,97.565414 
	C229.685883,87.718147 218.479935,78.127876 207.129684,68.724472 
	C200.000259,62.817921 193.684525,55.885715 185.210571,51.100365 
	C195.276611,46.510391 206.311874,44.420506 217.256241,42.022057 
	C220.869156,41.230293 224.536728,40.687927 228.591187,40.098869 
	C229.781174,46.145966 235.491135,47.856651 239.083710,51.161316 
	C249.554230,60.792763 260.670105,69.720108 271.471130,78.995476 
	C283.278900,89.135368 295.021637,99.350990 306.771423,109.558144 
	C307.246368,109.970749 307.502930,110.634773 307.932312,111.507401 
	C306.063354,113.929619 303.692078,113.154701 301.499542,112.626175 
	C285.777069,108.836151 269.913483,106.922226 253.736206,108.691879 
	C252.216827,108.858078 250.759232,108.575150 249.260437,107.206711 
z"/>
<path fill="#6EE1EC" opacity="1.000000" stroke="none" 
	d="
M390.624725,179.351425 
	C397.188782,180.424347 400.447601,185.978790 404.974854,189.685532 
	C418.823120,201.024002 432.254883,212.871613 445.834412,224.537720 
	C453.632477,231.236969 461.426636,237.941254 469.165588,244.708374 
	C470.688538,246.040100 472.168640,247.330078 474.496704,247.935974 
	C476.462006,260.538757 474.670074,273.002472 473.947205,285.487946 
	C473.894562,286.397247 473.326324,287.276703 472.915833,288.583832 
	C469.791016,290.915710 467.791046,288.631592 465.836151,287.039429 
	C456.551117,279.477264 447.518311,271.613678 438.512817,263.721954 
	C428.142303,254.634018 417.456940,245.910019 406.987335,236.351166 
	C404.244568,232.069626 404.771912,227.398392 403.897034,223.053329 
	C401.329193,210.300507 397.441406,198.014297 391.827545,186.275131 
	C390.832764,184.194931 389.581787,182.146744 390.624725,179.351425 
z"/>
<path fill="#2CD0E8" opacity="1.000000" stroke="none" 
	d="
M328.363464,463.791443 
	C328.058533,460.086639 325.021576,458.351044 322.746918,456.382019 
	C299.099548,435.912262 275.357452,415.551880 251.614334,395.192993 
	C249.251953,393.167297 246.216888,391.837189 245.078400,388.230469 
	C246.419693,386.048767 248.440689,385.787231 250.438995,386.054565 
	C261.540314,387.539703 272.643127,386.915039 284.160950,386.329987 
	C291.757507,390.994293 297.766907,397.027802 304.186615,402.540558 
	C320.487518,416.538696 336.852417,430.463562 353.023010,444.612854 
	C354.993683,446.337189 357.344818,447.983917 356.216675,451.538635 
	C347.246765,456.577087 337.847534,459.844788 328.363464,463.791443 
z"/>
<path fill="#57DBEA" opacity="1.000000" stroke="none" 
	d="
M144.661407,69.184052 
	C148.748199,74.761101 154.612686,78.098480 159.454681,82.498001 
	C169.992599,92.072975 181.029877,101.098122 191.855728,110.356583 
	C195.632263,113.586334 199.387222,116.841301 203.504868,120.257233 
	C203.681458,122.083755 202.567810,123.098030 201.286743,123.869202 
	C192.235077,129.318207 183.443207,135.142014 175.152878,141.705872 
	C174.504623,142.219131 173.693710,142.463699 172.507996,142.640625 
	C167.653214,141.218231 165.030136,137.317719 161.678818,134.458145 
	C147.175003,122.082558 132.773621,109.585663 118.282082,97.194069 
	C116.544403,95.708199 114.584251,94.262611 114.824432,91.218575 
	C123.892189,82.506866 134.389297,76.241074 144.661407,69.184052 
z"/>
<path fill="#36D3E8" opacity="1.000000" stroke="none" 
	d="
M356.354187,451.801208 
	C355.578278,449.598511 354.272949,448.113892 352.520905,446.618042 
	C339.138031,435.192047 325.907410,423.588013 312.576538,412.100708 
	C304.656128,405.275635 296.651917,398.547485 288.651947,391.815460 
	C287.620819,390.947815 286.535980,390.193909 286.070679,388.495758 
	C286.438782,386.515564 287.731293,385.647614 289.204437,385.400726 
	C299.165894,383.731445 308.567535,379.964386 318.758667,377.722717 
	C323.936188,378.839966 327.016541,382.531158 330.501312,385.498169 
	C346.903809,399.463837 363.205078,413.548645 379.526947,427.608887 
	C381.395355,429.218384 383.456329,430.717163 384.110229,433.682983 
	C379.823547,439.049377 373.857788,441.697296 368.450958,445.104889 
	C364.647247,447.502136 360.629486,449.559784 356.354187,451.801208 
z"/>
<path fill="#3DD4E9" opacity="1.000000" stroke="none" 
	d="
M384.464508,434.019043 
	C373.546600,425.002716 362.978668,415.966064 352.423096,406.914978 
	C341.737915,397.752747 331.065002,388.576202 320.174927,379.144012 
	C319.701294,377.694977 320.398468,376.849335 321.267609,376.428558 
	C330.393005,372.010895 338.841888,366.341461 348.382477,361.982880 
	C350.519440,362.024445 351.872894,362.976685 353.136841,364.072784 
	C370.284882,378.943634 387.582611,393.641052 404.688934,408.559814 
	C406.294037,409.959656 408.043945,411.296509 409.037842,413.695068 
	C401.555389,421.345367 393.736725,428.337799 384.464508,434.019043 
z"/>
<path fill="#3DD4E9" opacity="1.000000" stroke="none" 
	d="
M63.796555,155.213654 
	C67.841415,146.440842 72.679222,138.567566 78.629074,131.033722 
	C81.595818,130.416489 83.417923,132.062302 85.140205,133.556213 
	C102.725418,148.809647 120.547829,163.787292 138.076233,179.106400 
	C139.220215,180.106201 140.069916,181.327271 140.908966,183.007080 
	C141.295044,184.897278 140.979431,186.374908 140.333160,187.720230 
	C136.542831,195.610687 134.773911,204.326065 130.078583,212.163574 
	C127.444313,212.733109 126.018921,211.155090 124.540550,209.879486 
	C105.375389,193.343201 86.025200,177.021561 67.009560,160.311981 
	C65.513329,158.997208 63.903389,157.734665 63.796555,155.213654 
z"/>
<path fill="#5CDCEB" opacity="1.000000" stroke="none" 
	d="
M467.613159,313.716095 
	C465.915161,324.393127 461.469543,333.928741 457.435150,343.882355 
	C455.218018,344.990967 453.889618,343.797241 452.667328,342.721405 
	C435.435089,327.553436 417.805176,312.845947 400.561859,297.691315 
	C400.064362,297.254059 399.593109,296.778076 399.079773,295.851074 
	C398.509399,294.190002 398.521240,292.857635 398.930511,291.575104 
	C401.703766,282.884155 403.258850,273.891327 405.733459,264.745087 
	C408.772766,261.760468 410.857361,263.986969 412.800507,265.661926 
	C427.242523,278.110779 441.762817,290.468781 456.164398,302.963867 
	C460.025024,306.313416 464.428101,309.108490 467.613159,313.716095 
z"/>
<path fill="#46D7E9" opacity="1.000000" stroke="none" 
	d="
M409.428314,413.918518 
	C404.409027,412.651398 401.787506,408.461884 398.310577,405.541229 
	C381.830505,391.697418 365.722443,377.410736 349.182281,363.120972 
	C348.404083,361.665344 348.981567,360.571045 349.881805,359.856720 
	C356.869843,354.311554 363.058716,347.825653 370.648132,342.544006 
	C377.815826,346.795349 383.342712,352.618469 389.442535,357.735992 
	C401.179504,367.582916 412.681732,377.708069 424.245300,387.759491 
	C425.738098,389.057068 427.491638,390.205902 427.584351,392.874390 
	C422.360443,400.606598 416.200562,407.332825 409.428314,413.918518 
z"/>
<path fill="#57DBEA" opacity="1.000000" stroke="none" 
	d="
M399.494629,295.930542 
	C406.186462,298.231384 410.126282,303.642334 415.005188,307.716553 
	C429.061646,319.454620 442.706482,331.685577 456.811157,343.886688 
	C455.444763,351.092102 451.270874,356.973907 448.137421,363.332153 
	C446.858978,365.926208 445.189636,368.327576 443.373230,370.962524 
	C441.179901,371.224152 439.989685,370.006195 438.746582,368.906830 
	C422.930176,354.918823 406.822052,341.268250 390.827118,327.486847 
	C389.180847,326.068359 387.539764,324.661499 386.686157,322.160950 
	C386.360413,319.896118 387.047211,318.229156 387.884674,316.591614 
	C390.742798,311.003052 393.688721,305.458099 396.058777,299.631775 
	C396.679871,298.104950 397.423065,296.595734 399.494629,295.930542 
z"/>
<path fill="#36D3E8" opacity="1.000000" stroke="none" 
	d="
M63.631645,155.052826 
	C74.315544,163.933899 84.698105,172.953568 95.031708,182.028961 
	C106.243752,191.875824 117.995148,201.106567 128.879761,211.814194 
	C130.247452,212.988327 130.646896,214.284775 130.494095,215.629517 
	C129.764893,222.046677 128.397369,228.367905 127.513702,234.764709 
	C127.355064,235.913040 126.598930,236.886688 125.245590,237.818573 
	C118.795448,235.003708 114.360641,229.941177 109.317924,225.703186 
	C93.056541,212.036850 77.000595,198.125366 60.925457,184.238922 
	C58.543243,182.181046 56.484673,179.748550 54.112099,177.191360 
	C55.779190,169.110962 60.111862,162.408707 63.631645,155.052826 
z"/>
<path fill="#46D7E9" opacity="1.000000" stroke="none" 
	d="
M140.486588,183.100861 
	C127.439636,172.221848 114.772972,161.389282 102.078705,150.589172 
	C94.535156,144.171204 86.948166,137.804306 79.165024,131.154190 
	C82.114868,124.154587 87.578674,119.142174 92.100891,113.423782 
	C93.208984,112.022583 94.944405,111.100403 95.623566,108.980713 
	C101.362206,111.255486 105.055901,115.903557 109.437248,119.632568 
	C123.459808,131.567368 137.530350,143.449860 151.332428,155.642654 
	C152.834503,156.969574 154.333878,158.278397 154.967529,160.672897 
	C155.030365,163.689148 153.656174,165.828079 152.123886,167.738815 
	C148.133759,172.714447 146.341705,179.292099 140.486588,183.100861 
z"/>
<path fill="#4ED9EA" opacity="1.000000" stroke="none" 
	d="
M387.188416,321.186523 
	C392.613190,327.850159 399.737610,332.305298 405.859100,337.849396 
	C418.026581,348.869263 431.195709,358.762085 442.884766,370.810181 
	C439.493164,378.609070 434.393188,385.047821 428.975220,391.684143 
	C428.602295,392.165375 428.375793,392.331085 427.898041,392.834656 
	C427.646820,393.172455 427.704529,393.152802 427.723267,393.176270 
	C414.170166,381.588196 400.449921,370.143707 387.099030,358.283478 
	C381.701019,353.488190 375.414795,349.582642 371.084045,343.154297 
	C370.750214,342.372345 370.535675,341.771667 370.799011,341.417480 
	C375.928528,334.518219 380.180145,326.918365 387.188416,321.186523 
z"/>
<path fill="#4ED9EA" opacity="1.000000" stroke="none" 
	d="
M154.384277,161.232040 
	C148.406158,154.809525 141.601196,149.792770 135.294617,144.234940 
	C124.508270,134.729233 113.414986,125.570801 102.675346,116.013969 
	C100.399445,113.988724 97.049568,112.901939 96.003036,109.168777 
	C101.560104,102.404175 107.893372,96.727257 114.640427,91.019104 
	C120.625839,97.934540 128.226288,102.860603 134.856659,108.855843 
	C147.032852,119.865608 160.204269,129.754974 171.877686,141.817673 
	C172.717926,143.788940 171.813965,145.063721 170.815094,146.150360 
	C166.328308,151.031387 161.536972,155.621078 156.996140,160.452728 
	C156.421280,161.064423 155.586105,161.300308 154.384277,161.232040 
z"/>
<path fill="#65DEEB" opacity="1.000000" stroke="none" 
	d="
M467.915466,313.606567 
	C462.583557,312.904633 459.717041,308.391754 456.008789,305.281677 
	C440.193359,292.017242 424.739868,278.321289 409.141144,264.798004 
	C408.780579,264.485413 408.264374,264.352325 407.492615,264.068481 
	C406.449615,263.515808 405.803314,262.853149 405.819061,262.012848 
	C405.967865,254.080917 405.417358,246.132462 406.330841,238.220337 
	C406.404846,237.579437 406.904114,237.037308 407.755524,236.266418 
	C414.578613,239.556122 419.506165,244.976868 425.028900,249.627441 
	C439.684540,261.968536 454.111786,274.580750 468.673737,287.033752 
	C469.647552,287.866486 470.988403,288.270081 472.496155,288.935455 
	C472.625000,297.349579 470.178925,305.254456 467.915466,313.606567 
z"/>
<path fill="#46D7E9" opacity="1.000000" stroke="none" 
	d="
M427.886688,393.216095 
	C427.791382,392.924164 427.935974,392.675873 428.454651,392.213623 
	C428.594727,392.419678 428.360626,392.839691 427.886688,393.216095 
z"/>
<path fill="#000000" opacity="1.000000" stroke="none" 
	d="
M408.084290,235.584686 
	C408.110352,241.980820 408.054413,247.963867 407.998932,253.946930 
	C407.970215,257.045624 408.283173,260.180542 407.092468,263.574677 
	C406.170349,274.712494 403.016418,284.926270 399.934265,295.564758 
	C396.224518,304.330322 392.554321,312.693176 387.730347,320.865601 
	C382.493744,328.482117 377.898743,336.174103 371.060730,342.527008 
	C364.963196,350.762085 356.926086,356.385162 349.025330,362.639984 
	C341.103729,367.917908 333.252594,372.752380 324.842987,376.592896 
	C323.385864,377.258392 321.823334,377.692993 320.136292,378.558167 
	C309.144226,382.764709 298.108032,385.857849 286.407257,388.085876 
	C279.677277,388.909454 273.330536,389.031677 266.964752,389.038635 
	C259.924225,389.046326 252.903107,388.957458 245.475830,387.934967 
	C235.693970,385.499023 226.148453,383.854858 217.201355,380.063904 
	C213.939880,378.682007 210.353989,377.837189 207.419220,375.960541 
	C201.417587,372.122894 195.643936,372.268280 189.208481,374.818115 
	C184.287323,376.767944 178.943298,377.650543 173.394379,379.086792 
	C161.597031,382.131744 150.141678,384.919434 138.815384,388.158478 
	C134.745987,389.322296 130.987976,389.771332 127.796089,386.874023 
	C124.599213,383.972260 124.551399,380.411926 125.825279,376.161987 
	C127.345222,371.091187 128.131973,365.780182 129.911118,360.379456 
	C134.209778,345.575043 137.355377,330.823608 141.768433,316.405701 
	C142.840164,312.904266 138.775436,309.834106 137.434494,306.123962 
	C133.677170,296.444855 130.202667,286.963287 127.919731,277.048401 
	C125.018875,264.449951 124.785843,251.723663 124.908836,238.464264 
	C126.225479,229.649506 127.615974,221.298050 129.024597,212.530792 
	C132.331696,202.529602 135.573318,192.925873 140.062042,183.411926 
	C144.667862,175.946884 149.217819,168.853012 153.902878,161.438965 
	C159.955109,154.990036 165.872223,148.861267 171.913696,142.425079 
	C181.614517,133.812164 191.962082,126.644989 203.579071,120.685104 
	C217.101669,114.714432 230.398712,109.186234 245.008896,107.954620 
	C246.081940,107.864174 246.916183,106.677094 248.588928,106.907631 
	C257.316071,105.682930 265.703552,105.633400 274.020844,106.105568 
	C285.273071,106.744339 296.405243,108.560966 307.607239,111.902496 
	C315.942566,115.281364 324.335205,117.680191 331.895233,121.998444 
	C342.587555,128.105850 352.763580,134.843872 361.908173,143.264709 
	C373.227509,153.688217 382.509674,165.562393 390.560242,178.901672 
	C394.584381,187.770355 399.123901,196.178467 401.667358,205.356735 
	C404.085388,214.082336 406.690887,222.797577 407.044617,231.962112 
	C407.086304,233.042664 407.670044,234.102295 408.084290,235.584686 
z"/>
<path fill="#36D3E8" opacity="1.000000" stroke="none" 
	d="
M302.422302,365.473328 
	C293.701447,368.976837 284.599365,370.639221 275.416962,370.842957 
	C267.586487,371.016724 259.625305,372.217010 251.426910,369.916077 
	C242.584915,364.137024 235.323441,357.028961 227.635895,350.455994 
	C202.503891,328.967804 177.443253,307.395264 152.440643,285.755890 
	C150.811829,284.346161 149.472214,282.628204 147.401154,281.189636 
	C143.473785,267.391327 142.594452,253.558762 142.898956,239.565094 
	C142.964264,236.563629 144.045319,233.802856 144.093842,230.426880 
	C147.611511,228.203140 149.484940,231.120712 151.417511,232.786392 
	C162.139847,242.028015 172.917358,251.205582 183.644745,260.441315 
	C216.078613,288.365234 248.475891,316.331635 280.973511,344.181641 
	C287.042114,349.382324 293.128082,354.568634 299.075317,359.908844 
	C300.616302,361.292542 302.702576,362.488068 302.422302,365.473328 
z"/>
<path fill="#5CDCEB" opacity="1.000000" stroke="none" 
	d="
M198.961090,144.315277 
	C210.245346,135.969162 223.025558,131.131714 236.620926,127.216278 
	C254.210220,141.301193 270.847687,156.103439 287.772003,170.570160 
	C312.790619,191.955811 337.646484,213.530716 362.659515,234.923050 
	C370.365112,241.513260 377.971588,248.220795 385.722076,254.759827 
	C387.839325,256.546143 389.344269,258.628296 389.231262,261.814392 
	C389.268005,270.259125 386.283325,277.823578 384.454834,285.850342 
	C381.387390,288.164825 379.429047,286.261536 377.548431,284.663788 
	C363.610687,272.822479 349.706848,260.940521 335.871735,248.979950 
	C310.592926,227.126144 285.267059,205.326920 259.850586,183.634079 
	C257.334686,181.486786 255.627487,178.455933 252.199051,176.798462 
	C250.237778,174.902618 249.334869,172.708221 247.967392,170.827316 
	C242.065399,162.709427 233.919510,160.120407 224.304062,161.178024 
	C222.157928,161.414093 220.038605,161.966202 217.528732,161.199677 
	C211.298447,155.421753 204.364777,150.937042 198.961090,144.315277 
z"/>
<path fill="#65DEEB" opacity="1.000000" stroke="none" 
	d="
M389.417542,261.883606 
	C386.869934,256.020233 380.952972,253.505142 376.633820,249.574341 
	C366.094543,239.982651 355.031830,230.966919 344.202209,221.693222 
	C330.475647,209.938782 316.761047,198.170334 303.060547,186.385529 
	C292.876892,177.625824 282.710999,168.845413 272.560730,160.047012 
	C261.532867,150.487885 250.551514,140.874969 239.491470,131.353317 
	C238.328644,130.352234 237.055817,129.603851 237.018356,127.519676 
	C248.875534,124.382500 260.915741,123.505447 273.540527,124.092453 
	C283.589935,129.734970 291.323578,137.639114 299.620605,144.785965 
	C327.248352,168.583817 354.934143,192.314499 382.548584,216.127853 
	C384.075439,217.444534 385.477509,218.820419 386.841400,220.734650 
	C389.443817,228.238708 390.138367,235.725601 390.006958,243.327011 
	C389.901398,249.434631 389.861725,255.543365 389.417542,261.883606 
z"/>
<path fill="#3DD4E9" opacity="1.000000" stroke="none" 
	d="
M302.839813,365.875549 
	C292.878845,356.360474 282.291168,348.056915 272.212982,339.177948 
	C261.757904,329.966919 251.039383,321.055542 240.478210,311.964203 
	C227.525360,300.814026 214.632416,289.594299 201.683319,278.439758 
	C190.622803,268.912109 179.603989,259.333099 168.406372,249.968536 
	C160.527176,243.379181 153.255280,236.066727 144.497864,230.064819 
	C144.652420,222.044891 147.042679,214.531662 149.456573,207.023178 
	C149.750687,206.108353 150.003220,205.180161 150.614075,204.075836 
	C153.999191,203.684952 155.762222,205.861618 157.738403,207.592087 
	C167.379028,216.034088 177.107407,224.373688 186.940811,232.589630 
	C188.452881,233.853012 189.911331,235.295151 192.311920,235.849670 
	C194.986404,237.689697 195.479568,240.423370 196.442810,242.862869 
	C212.357788,283.169617 241.057007,309.359131 282.809998,321.155121 
	C285.204681,321.831665 287.684265,322.263763 290.137512,323.839905 
	C296.333893,330.525635 303.563202,335.488403 310.013458,341.334991 
	C313.434601,344.435944 317.077148,347.296783 320.492249,350.406006 
	C322.283569,352.036774 324.374237,353.604034 324.240662,356.768616 
	C317.463806,360.793457 310.372467,363.398071 302.839813,365.875549 
z"/>
<path fill="#57DBEA" opacity="1.000000" stroke="none" 
	d="
M252.818329,176.293289 
	C259.766602,179.918976 264.987518,185.547546 270.810303,190.416153 
	C284.688568,202.020264 298.347351,213.887878 312.044769,225.707001 
	C325.117188,236.986877 338.112640,248.355911 351.167847,259.655792 
	C360.832825,268.021210 370.543518,276.333832 380.220917,284.684937 
	C381.145294,285.482635 382.159821,285.953552 383.744476,286.021027 
	C382.036194,293.611633 378.951447,300.750153 374.981689,307.516693 
	C374.176605,308.889038 373.484894,310.327881 372.423889,311.892639 
	C370.298981,312.810211 368.777863,311.999451 367.506805,310.927185 
	C362.441101,306.653809 356.825958,302.955322 352.839172,296.996918 
	C351.527679,292.841736 353.055481,289.113525 352.994263,285.319214 
	C352.773712,271.644135 343.597565,262.290680 329.918640,262.050690 
	C326.957306,261.998749 323.953735,262.410522 320.701416,261.283295 
	C309.242218,248.928787 295.826538,239.314072 283.601837,228.364380 
	C273.461823,219.281952 262.858337,210.728485 252.590744,201.205551 
	C251.676910,192.751099 251.309723,184.668274 252.818329,176.293289 
z"/>
<path fill="#6EE1EC" opacity="1.000000" stroke="none" 
	d="
M387.061096,220.541901 
	C381.210144,219.286102 377.664978,214.334503 373.313080,210.646225 
	C353.078979,193.497635 333.145569,175.994904 313.029663,158.705994 
	C300.461212,147.903885 287.755096,137.262039 275.136505,126.518059 
	C274.664917,126.116531 274.464264,125.396797 274.070618,124.496849 
	C286.252655,124.503281 298.113678,127.103928 309.519867,131.303406 
	C326.927521,137.712494 342.344025,147.540115 355.280853,160.874207 
	C367.674530,173.648453 377.038391,188.458374 382.959839,205.318115 
	C384.655853,210.147079 386.903412,214.850327 387.061096,220.541901 
z"/>
<path fill="#2CD0E8" opacity="1.000000" stroke="none" 
	d="
M147.151886,281.342407 
	C153.563492,281.669037 156.702484,287.233643 161.088135,290.784119 
	C172.545959,300.059967 183.579269,309.861145 194.755157,319.483887 
	C205.180511,328.460419 215.556320,337.494415 225.983429,346.468872 
	C232.262161,351.872894 238.635422,357.167542 244.886566,362.602875 
	C247.122360,364.546906 249.565918,366.360626 250.939117,369.504089 
	C241.061676,369.312012 231.657318,366.605164 222.382385,363.123688 
	C216.746597,361.008270 211.435043,358.274414 206.137772,355.513550 
	C202.692978,353.718140 199.360504,353.501984 195.396011,354.744904 
	C185.256531,347.691620 176.537994,339.342407 167.366165,331.534851 
	C164.278915,328.906860 160.347504,326.971039 158.957764,322.304077 
	C161.829971,313.753754 158.366867,306.857239 154.511185,299.981232 
	C151.282837,294.223969 149.667404,287.790497 147.151886,281.342407 
z"/>
<path fill="#46D7E9" opacity="1.000000" stroke="none" 
	d="
M192.477676,236.625031 
	C189.681122,237.092331 187.728973,235.988617 185.897308,234.399094 
	C174.382004,224.406021 162.834000,214.450592 151.124969,204.188110 
	C153.267654,195.136642 157.983765,187.536713 162.637207,179.929230 
	C164.303833,177.204620 166.408279,174.747864 168.631714,172.030884 
	C170.777069,171.750748 172.150330,172.762665 173.354385,173.872742 
	C178.791595,178.885513 185.437683,182.636490 189.526489,189.578339 
	C188.239975,204.169250 189.512405,218.142395 193.098724,231.929550 
	C193.479919,233.395096 193.548553,234.895538 192.477676,236.625031 
z"/>
<path fill="#23CEE7" opacity="1.000000" stroke="none" 
	d="
M158.553741,322.152039 
	C169.753433,331.297821 180.632294,340.617920 191.456161,350.001434 
	C192.803223,351.169220 194.286682,352.327454 194.932312,354.496063 
	C180.383560,358.681396 165.746384,362.457092 151.170212,366.455200 
	C147.379562,367.494904 146.366974,366.991516 147.494156,362.903656 
	C151.210999,349.423737 154.662628,335.870728 158.553741,322.152039 
z"/>
<path fill="#46D7E9" opacity="1.000000" stroke="none" 
	d="
M324.452454,357.055786 
	C317.791840,349.241943 309.225861,343.871185 302.039886,336.990326 
	C298.109894,333.227173 293.065399,330.651367 290.072144,325.496368 
	C292.439575,322.264343 295.644287,323.741516 298.341705,324.113098 
	C309.100891,325.595184 319.658905,325.492584 330.382446,321.639313 
	C333.593506,321.712860 335.838348,323.199219 337.728973,324.975494 
	C342.125702,329.106171 347.578430,332.104675 351.052490,337.662415 
	C344.757416,344.392090 337.302124,349.271545 329.753815,354.024200 
	C328.124756,355.049927 326.459808,356.018616 324.452454,357.055786 
z"/>
<path fill="#4ED9EA" opacity="1.000000" stroke="none" 
	d="
M188.405731,189.164307 
	C181.790497,183.576996 175.536346,178.035110 169.116348,172.193085 
	C171.592010,166.479233 175.876938,162.389343 180.178940,158.392242 
	C185.791672,153.177307 191.647491,148.222626 198.556702,144.096954 
	C205.804047,148.050507 211.938660,153.063187 216.974365,159.775803 
	C217.147110,162.526764 215.136932,163.122055 213.579025,163.821823 
	C203.583954,168.311310 196.334930,175.476700 191.894470,185.506226 
	C191.229385,187.008438 190.496552,188.557861 188.405731,189.164307 
z"/>
<path fill="#4ED9EA" opacity="1.000000" stroke="none" 
	d="
M351.417114,337.914215 
	C344.103363,334.115234 339.024078,327.756653 332.160156,323.105988 
	C331.550720,320.857025 333.152008,319.977112 334.484039,319.084351 
	C341.452454,314.413727 346.654266,308.294647 350.062164,300.622803 
	C350.730347,299.118591 351.448883,297.556641 353.523438,296.916077 
	C359.758209,301.879547 365.633575,306.799103 371.807861,311.883911 
	C366.767181,321.780548 359.611206,330.073547 351.417114,337.914215 
z"/>
<path fill="#000000" opacity="1.000000" stroke="none" 
	d="
M353.935883,296.527039 
	C349.310394,307.693115 343.488220,317.353912 332.005615,322.613556 
	C318.462311,329.087799 304.675049,327.517395 290.423218,325.096741 
	C277.825348,322.022034 265.868103,318.344696 254.697403,312.333221 
	C233.819519,301.097839 217.218338,285.470184 204.987854,265.145203 
	C200.386642,257.498779 196.745529,249.435593 193.508621,241.145569 
	C192.991699,239.821686 193.300552,238.538528 192.516449,237.127106 
	C188.780670,224.226334 186.473068,211.384247 186.888229,198.114548 
	C186.976349,195.298325 188.105957,192.742569 188.025726,189.546570 
	C193.047501,176.538177 200.875732,166.609314 213.920288,161.593826 
	C214.817810,161.248718 215.769791,161.045288 216.865601,160.449738 
	C223.510544,159.553009 229.917160,157.825211 236.487656,159.953461 
	C244.442368,162.530136 249.632889,167.821838 253.000580,175.667145 
	C254.866364,184.307281 253.598328,192.718552 254.093430,201.535889 
	C259.502594,211.638382 256.156250,225.414474 247.021042,230.574066 
	C244.582428,231.951416 244.043732,233.347290 245.240845,235.749222 
	C252.532242,250.378815 263.669434,261.156189 278.072723,268.697815 
	C280.686981,270.066650 282.367340,269.525024 283.516602,266.693787 
	C286.101257,260.326385 291.161499,257.886322 297.783875,257.963959 
	C303.101288,258.026306 308.420532,257.950897 313.738861,257.984070 
	C315.728821,257.996490 317.760590,257.901093 319.705750,259.593628 
	C326.621460,260.684387 333.293640,259.235626 339.985229,261.784790 
	C346.153137,264.134460 355.180115,273.906128 355.055939,282.352356 
	C354.988037,286.971313 354.851105,291.551849 353.935883,296.527039 
z"/>
<path fill="#4ED9EA" opacity="1.000000" stroke="none" 
	d="
M319.984833,259.482483 
	C312.364227,259.889862 304.727386,259.962860 297.090393,259.995056 
	C289.707611,260.026215 287.437408,261.530121 285.027283,268.721436 
	C283.795166,272.397827 282.537842,273.369415 278.533691,271.329285 
	C262.447418,263.133362 250.381699,251.223160 242.380981,235.011124 
	C240.801987,231.811539 241.355911,230.459366 244.373901,229.232315 
	C253.702332,225.439484 253.998596,224.933655 253.999466,214.885391 
	C253.999817,210.898865 254.010635,206.912354 254.091354,202.462677 
	C258.644226,202.680038 261.143158,206.420181 264.206635,209.002075 
	C279.871460,222.204453 295.247620,235.749756 310.696960,249.207047 
	C314.122009,252.190445 318.593353,254.222351 319.984833,259.482483 
z"/>
<path fill="#46D7E9" opacity="1.000000" stroke="none" 
	d="
M316.236694,308.533173 
	C299.865204,309.929260 284.630432,306.373505 269.912811,299.995941 
	C246.104233,289.678955 228.497528,272.511139 216.566681,249.855911 
	C210.959335,239.208221 207.144791,227.621368 205.808502,215.311630 
	C205.162064,209.356689 205.263870,203.463409 204.992142,197.544037 
	C204.916183,195.889252 204.923447,194.263992 206.069778,192.434967 
	C207.860947,190.668579 209.360687,191.609482 210.676224,192.611130 
	C217.964508,198.160416 224.648636,204.422409 231.506042,210.477814 
	C232.628296,211.468796 233.481781,212.752747 233.169922,214.768494 
	C225.434265,220.040237 220.191681,231.418823 225.916229,242.273132 
	C236.858566,263.020966 252.515228,278.616608 273.575684,288.879913 
	C279.615631,291.823303 285.413879,290.991455 291.549072,288.116638 
	C294.129608,286.932434 296.143005,287.507660 297.911041,288.969971 
	C303.557770,293.640228 309.054840,298.486755 314.477448,303.413452 
	C315.826508,304.639191 316.997864,306.138641 316.236694,308.533173 
z"/>
<path fill="#4ED9EA" opacity="1.000000" stroke="none" 
	d="
M316.403931,308.902954 
	C313.177124,302.657410 306.992920,299.810272 302.369110,295.465698 
	C299.466888,292.738770 296.999023,288.998047 292.251465,288.020081 
	C294.811188,285.633850 298.044373,283.533112 299.500031,279.921906 
	C300.219330,278.137482 301.326111,277.975372 302.905457,277.981964 
	C312.387482,278.021729 321.869934,277.968201 331.351898,278.016937 
	C334.616608,278.033722 336.601471,279.891296 336.963226,283.036835 
	C338.405334,295.575745 329.260040,307.989014 316.403931,308.902954 
z"/>
<path fill="#4ED9EA" opacity="1.000000" stroke="none" 
	d="
M233.406860,214.937225 
	C225.035614,206.618332 216.096405,199.182861 206.482971,192.076538 
	C210.835037,181.861099 218.585098,176.580109 229.945282,176.991486 
	C233.912537,177.135132 235.983383,179.136948 235.994431,183.113983 
	C236.020294,192.423645 235.905304,201.735184 236.074982,211.041809 
	C236.111908,213.067001 235.263855,213.971039 233.406860,214.937225 
z"/>
</svg>